<?xml version="1.0" encoding="UTF-8"?><svg id="Layer_1" xmlns="http://www.w3.org/2000/svg" xmlns:xlink="http://www.w3.org/1999/xlink" viewBox="0 0 212.91 185.61"><defs><style>.cls-1,.cls-2,.cls-3,.cls-4,.cls-5,.cls-6,.cls-7,.cls-8{fill:none;}.cls-9{fill:#a3d399;opacity:.03;}.cls-9,.cls-10{fill-rule:evenodd;}.cls-11{clip-path:url(#clippath);}.cls-2{stroke-width:.7px;}.cls-2,.cls-3,.cls-5,.cls-12,.cls-7,.cls-8{stroke-miterlimit:10;}.cls-2,.cls-4,.cls-6{stroke:#000;}.cls-2,.cls-6{stroke-linecap:square;}.cls-3{opacity:.8;stroke:#4a9143;}.cls-3,.cls-6,.cls-12,.cls-7,.cls-8{stroke-width:.5px;}.cls-13{fill:#f1bd3a;}.cls-14{fill:#fff;}.cls-15{fill:#e28bba;}.cls-16{fill:#769ccb;}.cls-17{fill:#78c696;}.cls-4{stroke-width:.8px;}.cls-4,.cls-6{stroke-linejoin:round;}.cls-18{clip-path:url(#clippath-1);}.cls-19{clip-path:url(#clippath-4);}.cls-20{clip-path:url(#clippath-3);}.cls-21{clip-path:url(#clippath-2);}.cls-22{clip-path:url(#clippath-7);}.cls-23{clip-path:url(#clippath-8);}.cls-24{clip-path:url(#clippath-6);}.cls-25{clip-path:url(#clippath-5);}.cls-26{clip-path:url(#clippath-9);}.cls-27{fill:#3e3e3e;font-family:Lato-Regular, Lato;font-size:4.18px;}.cls-28{clip-path:url(#clippath-20);}.cls-29{clip-path:url(#clippath-21);}.cls-30{clip-path:url(#clippath-23);}.cls-31{clip-path:url(#clippath-22);}.cls-32{clip-path:url(#clippath-14);}.cls-33{clip-path:url(#clippath-13);}.cls-34{clip-path:url(#clippath-12);}.cls-35{clip-path:url(#clippath-10);}.cls-36{clip-path:url(#clippath-15);}.cls-37{clip-path:url(#clippath-17);}.cls-38{clip-path:url(#clippath-16);}.cls-39{clip-path:url(#clippath-19);}.cls-40{clip-path:url(#clippath-11);}.cls-41{clip-path:url(#clippath-18);}.cls-42{letter-spacing:-.07em;}.cls-5{opacity:.6;stroke:#9e9e9e;stroke-width:.8px;}.cls-10{fill:#ef90b1;opacity:.6;}.cls-12{fill:#d0b3d5;opacity:.77;}.cls-12,.cls-8{stroke:#4f4f4f;}.cls-43{fill:#4b9142;}.cls-43,.cls-44{font-family:Lato-Bold, Lato;font-size:5.08px;}.cls-44{fill:#231f20;}.cls-45{fill:#7d7d7d;font-family:MyriadPro-Regular, 'Myriad Pro';font-size:11.37px;}.cls-7{stroke:#cfcfce;}</style><clipPath id="clippath"><rect class="cls-1" x="3.85" y="1.06" width="198.16" height="42.07"/></clipPath><clipPath id="clippath-1"><rect class="cls-1" x="3.85" y="1.06" width="198.16" height="42.07"/></clipPath><clipPath id="clippath-2"><rect class="cls-1" x="3.85" y="1.06" width="198.16" height="42.07"/></clipPath><clipPath id="clippath-3"><rect class="cls-1" x="3.85" y="1.06" width="198.16" height="42.07"/></clipPath><clipPath id="clippath-4"><rect class="cls-1" x="3.85" y="1.06" width="198.16" height="42.07"/></clipPath><clipPath id="clippath-5"><rect class="cls-1" x="3.85" y="1.06" width="198.16" height="42.07"/></clipPath><clipPath id="clippath-6"><rect class="cls-1" x="3.85" y="1.06" width="198.16" height="42.07"/></clipPath><clipPath id="clippath-7"><rect class="cls-1" x="3.85" y="1.06" width="198.16" height="42.07"/></clipPath><clipPath id="clippath-8"><rect class="cls-1" x="3.85" y="1.06" width="198.16" height="42.07"/></clipPath><clipPath id="clippath-9"><rect class="cls-1" x="3.85" y="1.06" width="198.16" height="42.07"/></clipPath><clipPath id="clippath-10"><rect class="cls-1" x="3.85" y="1.06" width="198.16" height="42.07"/></clipPath><clipPath id="clippath-11"><rect class="cls-1" x="3.85" y="1.06" width="198.16" height="42.07"/></clipPath><clipPath id="clippath-12"><rect class="cls-1" x="3.85" y="1.06" width="198.16" height="42.07"/></clipPath><clipPath id="clippath-13"><rect class="cls-1" x="3.85" y="1.06" width="198.16" height="42.07"/></clipPath><clipPath id="clippath-14"><rect class="cls-1" x="3.85" y="1.06" width="198.16" height="42.07"/></clipPath><clipPath id="clippath-15"><rect class="cls-1" x="3.85" y="1.06" width="198.16" height="42.07"/></clipPath><clipPath id="clippath-16"><rect class="cls-1" x="3.85" y="1.06" width="198.16" height="42.07"/></clipPath><clipPath id="clippath-17"><rect class="cls-1" x="3.85" y="1.06" width="198.16" height="42.07"/></clipPath><clipPath id="clippath-18"><rect class="cls-1" x="3.85" y="1.06" width="198.16" height="42.07"/></clipPath><clipPath id="clippath-19"><rect class="cls-1" x="3.85" y="1.06" width="198.16" height="42.07"/></clipPath><clipPath id="clippath-20"><rect class="cls-1" x="3.85" y="1.06" width="198.16" height="42.07"/></clipPath><clipPath id="clippath-21"><rect class="cls-1" x="3.85" y="1.06" width="198.16" height="42.07"/></clipPath><clipPath id="clippath-22"><rect class="cls-1" x="3.85" y="1.06" width="198.16" height="42.07"/></clipPath><clipPath id="clippath-23"><rect class="cls-1" x="3.85" y="1.06" width="198.16" height="42.07"/></clipPath></defs><g><line class="cls-4" x1="3.85" y1="1.06" x2="2.79" y2="1.06"/><polygon points=".18 1.96 .66 1.96 .66 .27 .13 .38 .13 .11 .66 0 .96 0 .96 1.96 1.45 1.96 1.45 2.21 .18 2.21 .18 1.96"/><g><g class="cls-11"><line class="cls-6" x1="3.85" y1="43.13" x2="202.02" y2="43.13"/></g><g class="cls-18"><path class="cls-16" d="M11.63,27.66h5.5l-2.74-16.73-2.75,16.73Zm6.8,7.81H10.34l-1.28,7.66H3.85L11.29,1.06h6.17l7.43,42.07h-5.2l-1.26-7.66Z"/></g><g class="cls-21"><polygon class="cls-13" points="26 1.06 47.03 1.06 47.03 9.27 39.46 9.27 39.46 43.13 33.58 43.13 33.58 9.27 26 9.27 26 1.06"/></g><g class="cls-20"><path class="cls-15" d="M69.17,39.32c-1.41,1.27-2.88,2.22-4.4,2.86-1.52,.63-3.09,.95-4.71,.95-3.66,0-6.57-1.89-8.71-5.67-2.14-3.78-3.21-8.9-3.21-15.36s1.09-11.68,3.27-15.43c2.18-3.75,5.17-5.62,8.96-5.62,1.46,0,2.86,.25,4.2,.76,1.34,.5,2.61,1.25,3.79,2.25V12.46c-1.23-1.28-2.45-2.24-3.66-2.87-1.21-.64-2.43-.96-3.65-.96-2.26,0-4,1.16-5.22,3.49-1.22,2.32-1.83,5.65-1.83,9.98s.59,7.6,1.77,9.94c1.18,2.33,2.85,3.5,5.02,3.5,.59,0,1.14-.07,1.65-.2,.51-.14,.96-.35,1.36-.64v-7.87h-3.46v-7.01h8.84v19.5Z"/></g><g class="cls-19"><path class="cls-16" d="M78.05,43.07h5.5l-2.74-.06-2.75,.06Zm6.8,.03h-8.09l-1.28,.03h-5.2l7.43-.15h6.17l7.43,.15h-5.2l-1.26-.03Z"/></g><g class="cls-25"><path class="cls-15" d="M91.31,39.18c-1.41,1.26-2.88,2.21-4.4,2.85-1.52,.63-3.09,.94-4.71,.94-3.66,0-6.57-1.88-8.71-5.65s-3.21-8.86-3.21-15.3,1.09-11.63,3.27-15.37c2.18-3.73,5.17-5.6,8.96-5.6,1.46,0,2.86,.25,4.2,.76,1.34,.5,2.61,1.25,3.79,2.24V12.42c-1.23-1.28-2.45-2.23-3.66-2.86-1.21-.63-2.43-.95-3.65-.95-2.26,0-4,1.16-5.22,3.48-1.22,2.31-1.83,5.63-1.83,9.94s.59,7.57,1.77,9.91c1.18,2.33,2.85,3.49,5.02,3.49,.59,0,1.14-.07,1.65-.2,.51-.14,.96-.35,1.36-.64v-7.84h-3.46v-6.99h8.84v19.43Z"/></g><g class="cls-24"><path class="cls-16" d="M100.19,43.07h5.5l-2.74-.06-2.75,.06Zm6.8,.03h-8.09l-1.28,.03h-5.2l7.43-.15h6.17l7.43,.15h-5.2l-1.26-.03Z"/></g><g class="cls-22"><path class="cls-17" d="M113.45,39.97c-1.17,.99-2.39,1.74-3.66,2.24-1.27,.51-2.59,.76-3.97,.76-4.12,0-7.38-1.88-9.79-5.65-2.41-3.76-3.61-8.86-3.61-15.3s1.2-11.57,3.61-15.33c2.41-3.76,5.67-5.65,9.79-5.65,1.38,0,2.71,.25,3.97,.76,1.27,.5,2.49,1.25,3.66,2.24V12.42c-1.18-1.32-2.35-2.28-3.5-2.89s-2.36-.92-3.62-.92c-2.28,0-4.06,1.19-5.37,3.58-1.3,2.38-1.95,5.66-1.95,9.84s.65,7.44,1.95,9.83c1.3,2.38,3.09,3.57,5.37,3.57,1.27,0,2.48-.31,3.62-.92,1.15-.62,2.31-1.58,3.5-2.9v8.36Z"/></g><g class="cls-23"><path class="cls-17" d="M135.6,43.11c-1.17,0-2.39,.01-3.66,.02-1.27,0-2.59,0-3.97,0-4.12,0-7.38-.01-9.79-.04-2.41-.03-3.61-.07-3.61-.11s1.2-.09,3.61-.11c2.41-.03,5.67-.04,9.79-.04,1.38,0,2.71,0,3.97,0,1.27,0,2.49,0,3.66,.02v.06c-1.18,0-2.35-.02-3.5-.02-1.15,0-2.36,0-3.62,0-2.28,0-4.06,0-5.37,.03-1.3,.02-1.95,.04-1.95,.07s.65,.05,1.95,.07c1.3,.02,3.09,.03,5.37,.03,1.27,0,2.48,0,3.62,0,1.15,0,2.31-.01,3.5-.02v.06Z"/></g><g class="cls-26"><path class="cls-16" d="M122.33,41.97h5.5l-2.74-.92-2.75,.92Zm6.8,.43h-8.09l-1.28,.42h-5.2l7.43-2.32h6.17l7.43,2.32h-5.2l-1.26-.42Z"/></g><g class="cls-35"><polygon class="cls-13" points="114.56 28.13 135.6 28.13 135.6 30.54 128.03 30.54 128.03 40.5 122.14 40.5 122.14 30.54 114.56 30.54 114.56 28.13"/></g><g class="cls-40"><path class="cls-15" d="M135.6,25.68c-1.41,.82-2.88,1.43-4.4,1.84-1.52,.41-3.09,.61-4.71,.61-3.66,0-6.57-1.22-8.71-3.65s-3.21-5.72-3.21-9.88,1.09-7.51,3.27-9.92c2.18-2.41,5.17-3.62,8.96-3.62,1.46,0,2.86,.16,4.2,.49,1.34,.32,2.61,.81,3.79,1.45v5.4c-1.23-.82-2.45-1.44-3.66-1.85-1.21-.41-2.43-.62-3.65-.62-2.26,0-4,.75-5.22,2.25-1.22,1.49-1.83,3.63-1.83,6.42s.59,4.89,1.77,6.4c1.18,1.5,2.85,2.25,5.02,2.25,.59,0,1.14-.04,1.65-.13,.51-.09,.96-.23,1.36-.41v-5.07h-3.46v-4.51h8.84v12.55Z"/></g><g class="cls-34"><path class="cls-16" d="M144.47,43.02h5.5l-2.74-.12-2.75,.12Zm6.8,.06h-8.09l-1.28,.06h-5.2l7.43-.31h6.17l7.43,.31h-5.2l-1.26-.06Z"/></g><g class="cls-33"><path class="cls-15" d="M157.74,42.69c-1.41,.04-2.88,.07-4.4,.09-1.52,.02-3.09,.03-4.71,.03-3.66,0-6.57-.06-8.71-.19-2.14-.12-3.21-.29-3.21-.51s1.09-.39,3.27-.51c2.18-.12,5.17-.19,8.96-.19,1.46,0,2.86,0,4.2,.03,1.34,.02,2.61,.04,3.79,.07v.28c-1.23-.04-2.45-.07-3.66-.09-1.21-.02-2.43-.03-3.65-.03-2.26,0-4,.04-5.22,.12-1.22,.08-1.83,.19-1.83,.33s.59,.25,1.77,.33c1.18,.08,2.85,.12,5.02,.12,.59,0,1.14,0,1.65,0,.51,0,.96-.01,1.36-.02v-.26h-3.46v-.23h8.84v.65Z"/></g><g class="cls-32"><path class="cls-17" d="M157.74,40.35c-1.17,.36-2.39,.62-3.66,.8-1.27,.18-2.59,.27-3.97,.27-4.12,0-7.38-.67-9.79-2.02-2.41-1.35-3.61-3.17-3.61-5.48s1.2-4.14,3.61-5.49c2.41-1.35,5.67-2.02,9.79-2.02,1.38,0,2.71,.09,3.97,.27,1.27,.18,2.49,.45,3.66,.8v2.99c-1.18-.47-2.35-.82-3.5-1.04-1.15-.22-2.36-.33-3.62-.33-2.28,0-4.06,.43-5.37,1.28-1.3,.85-1.95,2.03-1.95,3.52s.65,2.66,1.95,3.52c1.3,.85,3.09,1.28,5.37,1.28,1.27,0,2.48-.11,3.62-.33,1.15-.22,2.31-.57,3.5-1.04v2.99Z"/></g><g class="cls-36"><polygon class="cls-13" points="136.7 1.06 157.74 1.06 157.74 6.01 150.17 6.01 150.17 26.43 144.28 26.43 144.28 6.01 136.7 6.01 136.7 1.06"/></g><g class="cls-38"><path class="cls-17" d="M179.88,43.09c-1.17,.01-2.39,.03-3.66,.03-1.27,0-2.59,.01-3.97,.01-4.12,0-7.38-.03-9.79-.08-2.41-.06-3.61-.13-3.61-.23s1.2-.17,3.61-.23c2.41-.06,5.67-.08,9.79-.08,1.38,0,2.71,0,3.97,.01,1.27,0,2.49,.02,3.66,.03v.12c-1.18-.02-2.35-.03-3.5-.04s-2.36-.01-3.62-.01c-2.28,0-4.06,.02-5.37,.05-1.3,.04-1.95,.08-1.95,.15s.65,.11,1.95,.15c1.3,.04,3.09,.05,5.37,.05,1.27,0,2.48,0,3.62-.01,1.15,0,2.31-.02,3.5-.04v.12Z"/></g><g class="cls-37"><path class="cls-15" d="M179.88,42.25c-1.41,.09-2.88,.16-4.4,.2-1.52,.04-3.09,.07-4.71,.07-3.66,0-6.57-.13-8.71-.4s-3.21-.62-3.21-1.07,1.09-.82,3.27-1.08c2.18-.26,5.17-.39,8.96-.39,1.46,0,2.86,.02,4.2,.05,1.34,.04,2.61,.09,3.79,.16v.59c-1.23-.09-2.45-.16-3.66-.2-1.21-.04-2.43-.07-3.65-.07-2.26,0-4,.08-5.22,.24-1.22,.16-1.83,.39-1.83,.7s.59,.53,1.77,.69c1.18,.16,2.85,.24,5.02,.24,.59,0,1.14,0,1.65-.01,.51,0,.96-.02,1.36-.04v-.55h-3.46v-.49h8.84v1.36Z"/></g><g class="cls-41"><polygon class="cls-13" points="158.84 26.12 179.88 26.12 179.88 28.74 172.31 28.74 172.31 39.57 166.43 39.57 166.43 28.74 158.84 28.74 158.84 26.12"/></g><g class="cls-39"><path class="cls-16" d="M166.61,16.9h5.5l-2.74-9.97-2.75,9.97Zm6.8,4.65h-8.09l-1.28,4.56h-5.2l7.43-25.06h6.17l7.43,25.06h-5.2l-1.26-4.56Z"/></g><g class="cls-28"><path class="cls-16" d="M188.76,42.39h5.5l-2.74-.8-2.75,.8Zm6.8,.37h-8.09l-1.28,.37h-5.2l7.43-2.01h6.17l7.43,2.01h-5.2l-1.26-.37Z"/></g><g class="cls-29"><path class="cls-15" d="M202.02,40.76c-1.41,.12-2.88,.21-4.4,.27-1.52,.06-3.09,.09-4.71,.09-3.66,0-6.57-.18-8.71-.54-2.14-.36-3.21-.85-3.21-1.47s1.09-1.12,3.27-1.47c2.18-.36,5.17-.54,8.96-.54,1.46,0,2.86,.02,4.2,.07,1.34,.05,2.61,.12,3.79,.22v.8c-1.23-.12-2.45-.21-3.66-.27-1.21-.06-2.43-.09-3.65-.09-2.26,0-4,.11-5.22,.33-1.22,.22-1.83,.54-1.83,.95s.59,.73,1.77,.95c1.18,.22,2.85,.33,5.02,.33,.59,0,1.14,0,1.65-.02,.51-.01,.96-.03,1.36-.06v-.75h-3.46v-.67h8.84v1.86Z"/></g><g class="cls-31"><path class="cls-17" d="M202.02,36.74c-1.17,.12-2.39,.21-3.66,.26-1.27,.06-2.59,.09-3.97,.09-4.12,0-7.38-.22-9.79-.67-2.41-.44-3.61-1.05-3.61-1.81s1.2-1.37,3.61-1.81c2.41-.44,5.67-.67,9.79-.67,1.38,0,2.71,.03,3.97,.09,1.27,.06,2.49,.15,3.66,.26v.99c-1.18-.16-2.35-.27-3.5-.34s-2.36-.11-3.62-.11c-2.28,0-4.06,.14-5.37,.42-1.3,.28-1.95,.67-1.95,1.16s.65,.88,1.95,1.16c1.3,.28,3.09,.42,5.37,.42,1.27,0,2.48-.04,3.62-.11,1.15-.07,2.31-.19,3.5-.34v.99Z"/></g><g class="cls-30"><polygon class="cls-13" points="180.99 1.06 202.02 1.06 202.02 7.12 194.45 7.12 194.45 32.15 188.57 32.15 188.57 7.12 180.99 7.12 180.99 1.06"/></g><line class="cls-4" x1="3.85" y1="43.13" x2="2.79" y2="43.13"/><path d="M.76,42.03c.25,0,.43,.1,.57,.29,.13,.2,.2,.48,.2,.85s-.07,.66-.2,.85c-.13,.19-.32,.29-.57,.29s-.44-.1-.57-.29-.19-.48-.19-.85,.06-.66,.19-.85c.13-.19,.32-.29,.57-.29Zm0,.24c-.15,0-.27,.08-.35,.23s-.12,.38-.12,.68,.04,.53,.12,.68,.19,.23,.35,.23,.27-.08,.35-.23c.08-.15,.12-.38,.12-.68s-.04-.53-.12-.68c-.08-.15-.19-.23-.35-.23Z"/><line class="cls-2" x1="3.85" y1="43.13" x2="3.85" y2="1.06"/></g></g><text class="cls-45" transform="translate(119.2 176.2) rotate(90)"><tspan x="0" y="0">....</tspan></text><text class="cls-45" transform="translate(119.2 73.98) rotate(90)"><tspan x="0" y="0">....</tspan></text><text class="cls-27" transform="translate(33.59 87.4) scale(.98 1)"><tspan x="0" y="0">Homo sapiens|NM_182810.3</tspan></text><text class="cls-27" transform="translate(24.73 93) scale(.98 1)"><tspan x="0" y="0">Hyaena hyaena|XM_039237441.1</tspan></text><text class="cls-27" transform="translate(19.93 98.59) scale(.98 1)"><tspan x="0" y="0">Hylobates moloch|XM_032754577.1</tspan></text><text class="cls-27" transform="translate(26.09 104.19) scale(.98 1)"><tspan x="0" y="0">Jaculus jaculus|XM_004650329.3</tspan></text><text class="cls-27" transform="translate(29.27 109.79) scale(.98 1)"><tspan x="0" y="0">Lacerta agilis|XM_033161810.1</tspan></text><text class="cls-27" transform="translate(1.29 115.38) scale(.98 1)"><tspan x="0" y="0">Lagenorhynchus obliquidens|XM_027107709.1</tspan></text><text class="cls-27" transform="translate(23.28 120.98) scale(.98 1)"><tspan x="0" y="0">Lagopus leucura|XM_042889620.1</tspan></text><text class="cls-27" transform="translate(27.3 126.57) scale(.98 1)"><tspan x="0" y="0">Lagopus muta|XM_048930828.1</tspan></text><text class="cls-27" transform="translate(15.41 132.17) scale(.98 1)"><tspan x="0" y="0">Latimeria chalumnae|XM_006006873.2</tspan></text><text class="cls-27" transform="translate(31.02 137.76) scale(.98 1)"><tspan x="0" y="0">Lemur catta|XM_045554868.1</tspan></text><text class="cls-27" transform="translate(15.07 143.36) scale(.98 1)"><tspan x="0" y="0">Lepidothrix coronata|XM_017823453.1</tspan></text><text class="cls-27" transform="translate(22.99 148.95) scale(.98 1)"><tspan x="0" y="0">Lipotes vexillifer|XM_007453996.1</tspan></text><text class="cls-27" transform="translate(4.01 154.55) scale(.98 1)"><tspan x="0" y="0">Lonchura striata domestica|XM_021553935.1</tspan></text><text class="cls-27" transform="translate(20.12 160.14) scale(.98 1)"><tspan x="0" y="0">Lontra canadensis|XM_032882961.1</tspan></text><text class="cls-27" transform="translate(17.96 165.74) scale(.98 1)"><tspan x="0" y="0">Loxodonta africana|XM_003419752.3</tspan></text><text class="cls-27" transform="translate(17.96 171.34) scale(.98 1)"><tspan x="0" y="0">Loxodonta africana|XM_023559906.1</tspan></text><line class="cls-7" x1="155.54" y1="85.89" x2="189.81" y2="85.89"/><rect class="cls-14" x="165.99" y="83.56" width="1.09" height="4.66"/><rect class="cls-14" x="178.02" y="83.56" width="21.51" height="4.66"/><g><polyline class="cls-9" points="201.96 88.22 189.81 88.22 189.81 83.56 201.96 83.56"/><polyline class="cls-3" points="201.96 88.22 189.81 88.22 189.81 83.56 201.96 83.56"/></g><polyline class="cls-12" points="178.02 85.89 178.02 83.56 194.97 83.56 199.53 85.89 194.97 88.22 178.02 88.22 178.02 85.89"/><g><polyline class="cls-10" points="165.99 85.89 165.99 83.56 167.08 85.89 165.99 88.22 165.99 85.89"/><polyline class="cls-8" points="165.99 85.89 165.99 83.56 167.08 85.89 165.99 88.22 165.99 85.89"/></g><line class="cls-7" x1="153.71" y1="91.48" x2="189.81" y2="91.48"/><rect class="cls-14" x="165.99" y="89.15" width="1.09" height="4.66"/><rect class="cls-14" x="178.02" y="89.15" width="21.88" height="4.66"/><polyline class="cls-12" points="178.02 91.48 178.02 89.15 195.34 89.15 199.9 91.48 195.34 93.82 178.02 93.82 178.02 91.48"/><g><polyline class="cls-10" points="165.99 91.48 165.99 89.15 167.08 91.48 165.99 93.82 165.99 91.48"/><polyline class="cls-8" points="165.99 91.48 165.99 89.15 167.08 91.48 165.99 93.82 165.99 91.48"/></g><line class="cls-7" x1="91.12" y1="97.08" x2="189.81" y2="97.08"/><rect class="cls-14" x="104.25" y="94.75" width="11.67" height="4.66"/><rect class="cls-14" x="106.8" y="94.75" width="9.11" height="4.66"/><rect class="cls-14" x="113.12" y="94.75" width="1.82" height="4.66"/><rect class="cls-14" x="119.2" y="94.75" width="8.75" height="4.66"/><rect class="cls-14" x="120.66" y="94.75" width="7.29" height="4.66"/><rect class="cls-14" x="129.04" y="94.75" width="17.14" height="4.66"/><rect class="cls-14" x="132.57" y="94.75" width="12.4" height="4.66"/><rect class="cls-14" x="139.86" y="94.75" width="5.1" height="4.66"/><rect class="cls-14" x="143.75" y="94.75" width="6.93" height="4.66"/><rect class="cls-14" x="144.84" y="94.75" width="5.83" height="4.66"/><rect class="cls-14" x="148" y="94.75" width="41.93" height="4.66"/><rect class="cls-14" x="165.99" y="94.75" width="1.09" height="4.66"/><rect class="cls-14" x="178.02" y="94.75" width="21.15" height="4.66"/><g><polyline class="cls-9" points="201.96 99.41 189.81 99.41 189.81 94.75 201.96 94.75"/><polyline class="cls-3" points="201.96 99.41 189.81 99.41 189.81 94.75 201.96 94.75"/></g><polyline class="cls-7" points="104.25 97.08 104.25 94.75 111.36 94.75 115.92 97.08 111.36 99.41 104.25 99.41 104.25 97.08"/><polyline class="cls-7" points="106.8 97.08 106.8 94.75 111.36 94.75 115.92 97.08 111.36 99.41 106.8 99.41 106.8 97.08"/><polyline class="cls-7" points="113.12 97.08 113.12 94.75 114.94 97.08 113.12 99.41 113.12 97.08"/><polyline class="cls-7" points="119.2 97.08 119.2 94.75 123.39 94.75 127.95 97.08 123.39 99.41 119.2 99.41 119.2 97.08"/><polyline class="cls-7" points="120.66 97.08 120.66 94.75 123.39 94.75 127.95 97.08 123.39 99.41 120.66 99.41 120.66 97.08"/><polyline class="cls-7" points="129.04 97.08 129.04 94.75 141.62 94.75 146.18 97.08 141.62 99.41 129.04 99.41 129.04 97.08"/><polyline class="cls-7" points="132.57 97.08 132.57 94.75 140.41 94.75 144.96 97.08 140.41 99.41 132.57 99.41 132.57 97.08"/><polyline class="cls-7" points="139.86 97.08 139.86 94.75 140.41 94.75 144.96 97.08 140.41 99.41 139.86 99.41 139.86 97.08"/><polyline class="cls-7" points="143.75 97.08 143.75 94.75 146.12 94.75 150.68 97.08 146.12 99.41 143.75 99.41 143.75 97.08"/><polyline class="cls-7" points="144.84 97.08 144.84 94.75 146.12 94.75 150.68 97.08 146.12 99.41 144.84 99.41 144.84 97.08"/><polyline class="cls-7" points="148 97.08 148 94.75 185.37 94.75 189.93 97.08 185.37 99.41 148 99.41 148 97.08"/><polyline class="cls-12" points="178.02 97.08 178.02 94.75 194.61 94.75 199.17 97.08 194.61 99.41 178.02 99.41 178.02 97.08"/><g><polyline class="cls-10" points="165.99 97.08 165.99 94.75 167.08 97.08 165.99 99.41 165.99 97.08"/><polyline class="cls-8" points="165.99 97.08 165.99 94.75 167.08 97.08 165.99 99.41 165.99 97.08"/></g><line class="cls-7" x1="155.17" y1="102.67" x2="189.81" y2="102.67"/><rect class="cls-14" x="165.99" y="100.34" width="1.09" height="4.66"/><rect class="cls-14" x="178.02" y="100.34" width="21.51" height="4.66"/><g><polyline class="cls-9" points="201.96 105.01 189.81 105.01 189.81 100.34 201.96 100.34"/><polyline class="cls-3" points="201.96 105.01 189.81 105.01 189.81 100.34 201.96 100.34"/></g><polyline class="cls-12" points="178.02 102.67 178.02 100.34 194.97 100.34 199.53 102.67 194.97 105.01 178.02 105.01 178.02 102.67"/><g><polyline class="cls-10" points="165.99 102.67 165.99 100.34 167.08 102.67 165.99 105.01 165.99 102.67"/><polyline class="cls-8" points="165.99 102.67 165.99 100.34 167.08 102.67 165.99 105.01 165.99 102.67"/></g><line class="cls-7" x1="158.33" y1="108.27" x2="189.81" y2="108.27"/><rect class="cls-14" x="165.38" y="105.94" width="1.09" height="4.66"/><rect class="cls-14" x="165.99" y="105.94" width="32.45" height="4.66"/><rect class="cls-14" x="177.29" y="105.94" width="21.15" height="4.66"/><g><polyline class="cls-9" points="201.96 110.6 189.81 110.6 189.81 105.94 201.96 105.94"/><polyline class="cls-3" points="201.96 110.6 189.81 110.6 189.81 105.94 201.96 105.94"/></g><polyline class="cls-7" points="165.99 108.27 165.99 105.94 193.88 105.94 198.44 108.27 193.88 110.6 165.99 110.6 165.99 108.27"/><polyline class="cls-12" points="177.29 108.27 177.29 105.94 193.88 105.94 198.44 108.27 193.88 110.6 177.29 110.6 177.29 108.27"/><g><polyline class="cls-10" points="165.38 108.27 165.38 105.94 166.47 108.27 165.38 110.6 165.38 108.27"/><polyline class="cls-8" points="165.38 108.27 165.38 105.94 166.47 108.27 165.38 110.6 165.38 108.27"/></g><line class="cls-7" x1="154.81" y1="113.87" x2="189.81" y2="113.87"/><rect class="cls-14" x="165.99" y="111.53" width="1.09" height="4.66"/><rect class="cls-14" x="178.02" y="111.53" width="21.51" height="4.66"/><g><polyline class="cls-9" points="201.96 116.2 189.81 116.2 189.81 111.53 201.96 111.53"/><polyline class="cls-3" points="201.96 116.2 189.81 116.2 189.81 111.53 201.96 111.53"/></g><polyline class="cls-12" points="178.02 113.87 178.02 111.53 194.97 111.53 199.53 113.87 194.97 116.2 178.02 116.2 178.02 113.87"/><g><polyline class="cls-10" points="165.99 113.87 165.99 111.53 167.08 113.87 165.99 116.2 165.99 113.87"/><polyline class="cls-8" points="165.99 113.87 165.99 111.53 167.08 113.87 165.99 116.2 165.99 113.87"/></g><line class="cls-7" x1="137.43" y1="119.46" x2="189.81" y2="119.46"/><rect class="cls-14" x="165.14" y="117.13" width="1.09" height="4.66"/><rect class="cls-14" x="177.29" y="117.13" width="20.78" height="4.66"/><g><polyline class="cls-9" points="201.96 121.79 189.81 121.79 189.81 117.13 201.96 117.13"/><polyline class="cls-3" points="201.96 121.79 189.81 121.79 189.81 117.13 201.96 117.13"/></g><polyline class="cls-12" points="177.29 119.46 177.29 117.13 193.52 117.13 198.07 119.46 193.52 121.79 177.29 121.79 177.29 119.46"/><g><polyline class="cls-10" points="165.14 119.46 165.14 117.13 166.23 119.46 165.14 121.79 165.14 119.46"/><polyline class="cls-8" points="165.14 119.46 165.14 117.13 166.23 119.46 165.14 121.79 165.14 119.46"/></g><line class="cls-7" x1="122.36" y1="125.06" x2="189.81" y2="125.06"/><rect class="cls-14" x="132.32" y="122.73" width="14.95" height="4.66"/><rect class="cls-14" x="165.14" y="122.73" width="1.09" height="4.66"/><rect class="cls-14" x="177.29" y="122.73" width="20.78" height="4.66"/><g><polyline class="cls-9" points="201.96 127.39 189.81 127.39 189.81 122.73 201.96 122.73"/><polyline class="cls-3" points="201.96 127.39 189.81 127.39 189.81 122.73 201.96 122.73"/></g><polyline class="cls-7" points="132.32 125.06 132.32 122.73 142.72 122.73 147.27 125.06 142.72 127.39 132.32 127.39 132.32 125.06"/><polyline class="cls-12" points="177.29 125.06 177.29 122.73 193.52 122.73 198.07 125.06 193.52 127.39 177.29 127.39 177.29 125.06"/><g><polyline class="cls-10" points="165.14 125.06 165.14 122.73 166.23 125.06 165.14 127.39 165.14 125.06"/><polyline class="cls-8" points="165.14 125.06 165.14 122.73 166.23 125.06 165.14 127.39 165.14 125.06"/></g><line class="cls-7" x1="150.19" y1="130.65" x2="189.81" y2="130.65"/><rect class="cls-14" x="165.14" y="128.32" width="1.09" height="4.66"/><rect class="cls-14" x="176.56" y="128.32" width="22.24" height="4.66"/><rect class="cls-14" x="176.93" y="128.32" width="21.88" height="4.66"/><g><polyline class="cls-9" points="201.96 132.98 189.81 132.98 189.81 128.32 201.96 128.32"/><polyline class="cls-3" points="201.96 132.98 189.81 132.98 189.81 128.32 201.96 128.32"/></g><polyline class="cls-7" points="176.56 130.65 176.56 128.32 194.24 128.32 198.8 130.65 194.24 132.98 176.56 132.98 176.56 130.65"/><polyline class="cls-12" points="176.93 130.65 176.93 128.32 194.24 128.32 198.8 130.65 194.24 132.98 176.93 132.98 176.93 130.65"/><g><polyline class="cls-10" points="165.14 130.65 165.14 128.32 166.23 130.65 165.14 132.98 165.14 130.65"/><polyline class="cls-8" points="165.14 130.65 165.14 128.32 166.23 130.65 165.14 132.98 165.14 130.65"/></g><line class="cls-7" x1="144.96" y1="136.25" x2="189.81" y2="136.25"/><rect class="cls-14" x="147.52" y="133.92" width="35" height="4.66"/><rect class="cls-14" x="150.19" y="133.92" width="8.02" height="4.66"/><rect class="cls-14" x="165.99" y="133.92" width="1.09" height="4.66"/><rect class="cls-14" x="178.02" y="133.92" width="21.51" height="4.66"/><g><polyline class="cls-9" points="201.96 138.58 189.81 138.58 189.81 133.92 201.96 133.92"/><polyline class="cls-3" points="201.96 138.58 189.81 138.58 189.81 133.92 201.96 133.92"/></g><polyline class="cls-7" points="147.52 136.25 147.52 133.92 177.96 133.92 182.52 136.25 177.96 138.58 147.52 138.58 147.52 136.25"/><polyline class="cls-7" points="150.19 136.25 150.19 133.92 153.65 133.92 158.21 136.25 153.65 138.58 150.19 138.58 150.19 136.25"/><polyline class="cls-12" points="178.02 136.25 178.02 133.92 194.97 133.92 199.53 136.25 194.97 138.58 178.02 138.58 178.02 136.25"/><g><polyline class="cls-10" points="165.99 136.25 165.99 133.92 167.08 136.25 165.99 138.58 165.99 136.25"/><polyline class="cls-8" points="165.99 136.25 165.99 133.92 167.08 136.25 165.99 138.58 165.99 136.25"/></g><line class="cls-7" x1="150.68" y1="141.84" x2="189.81" y2="141.84"/><rect class="cls-14" x="165.26" y="139.51" width="1.09" height="4.66"/><rect class="cls-14" x="177.29" y="139.51" width="21.15" height="4.66"/><g><polyline class="cls-9" points="201.96 144.17 189.81 144.17 189.81 139.51 201.96 139.51"/><polyline class="cls-3" points="201.96 144.17 189.81 144.17 189.81 139.51 201.96 139.51"/></g><polyline class="cls-12" points="177.29 141.84 177.29 139.51 193.88 139.51 198.44 141.84 193.88 144.17 177.29 144.17 177.29 141.84"/><g><polyline class="cls-10" points="165.26 141.84 165.26 139.51 166.35 141.84 165.26 144.17 165.26 141.84"/><polyline class="cls-8" points="165.26 141.84 165.26 139.51 166.35 141.84 165.26 144.17 165.26 141.84"/></g><line class="cls-7" x1="155.17" y1="147.44" x2="189.81" y2="147.44"/><rect class="cls-14" x="158.33" y="145.11" width="8.75" height="4.66"/><rect class="cls-14" x="165.99" y="145.11" width="1.09" height="4.66"/><rect class="cls-14" x="178.02" y="145.11" width="21.51" height="4.66"/><g><polyline class="cls-9" points="201.96 149.77 189.81 149.77 189.81 145.11 201.96 145.11"/><polyline class="cls-3" points="201.96 149.77 189.81 149.77 189.81 145.11 201.96 145.11"/></g><polyline class="cls-7" points="158.33 147.44 158.33 145.11 162.52 145.11 167.08 147.44 162.52 149.77 158.33 149.77 158.33 147.44"/><polyline class="cls-12" points="178.02 147.44 178.02 145.11 194.97 145.11 199.53 147.44 194.97 149.77 178.02 149.77 178.02 147.44"/><g><polyline class="cls-10" points="165.99 147.44 165.99 145.11 167.08 147.44 165.99 149.77 165.99 147.44"/><polyline class="cls-8" points="165.99 147.44 165.99 145.11 167.08 147.44 165.99 149.77 165.99 147.44"/></g><line class="cls-7" x1="128.19" y1="153.03" x2="189.81" y2="153.03"/><rect class="cls-14" x="142.29" y="150.7" width="6.93" height="4.66"/><rect class="cls-14" x="165.26" y="150.7" width="1.09" height="4.66"/><rect class="cls-14" x="177.29" y="150.7" width="21.15" height="4.66"/><g><polyline class="cls-9" points="201.96 155.37 189.81 155.37 189.81 150.7 201.96 150.7"/><polyline class="cls-3" points="201.96 155.37 189.81 155.37 189.81 150.7 201.96 150.7"/></g><polyline class="cls-7" points="142.29 153.03 142.29 150.7 144.66 150.7 149.22 153.03 144.66 155.37 142.29 155.37 142.29 153.03"/><polyline class="cls-12" points="177.29 153.03 177.29 150.7 193.88 150.7 198.44 153.03 193.88 155.37 177.29 155.37 177.29 153.03"/><g><polyline class="cls-10" points="165.26 153.03 165.26 150.7 166.35 153.03 165.26 155.37 165.26 153.03"/><polyline class="cls-8" points="165.26 153.03 165.26 150.7 166.35 153.03 165.26 155.37 165.26 153.03"/></g><line class="cls-7" x1="158.33" y1="158.63" x2="189.81" y2="158.63"/><rect class="cls-14" x="165.99" y="156.3" width="1.09" height="4.66"/><rect class="cls-14" x="178.02" y="156.3" width="21.51" height="4.66"/><g><polyline class="cls-9" points="201.96 160.96 189.81 160.96 189.81 156.3 201.96 156.3"/><polyline class="cls-3" points="201.96 160.96 189.81 160.96 189.81 156.3 201.96 156.3"/></g><polyline class="cls-12" points="178.02 158.63 178.02 156.3 194.97 156.3 199.53 158.63 194.97 160.96 178.02 160.96 178.02 158.63"/><g><polyline class="cls-10" points="165.99 158.63 165.99 156.3 167.08 158.63 165.99 160.96 165.99 158.63"/><polyline class="cls-8" points="165.99 158.63 165.99 156.3 167.08 158.63 165.99 160.96 165.99 158.63"/></g><line class="cls-7" x1="162.1" y1="164.23" x2="189.81" y2="164.23"/><rect class="cls-14" x="165.99" y="161.89" width="1.09" height="4.66"/><rect class="cls-14" x="178.02" y="161.89" width="21.51" height="4.66"/><g><polyline class="cls-9" points="201.96 166.56 189.81 166.56 189.81 161.89 201.96 161.89"/><polyline class="cls-3" points="201.96 166.56 189.81 166.56 189.81 161.89 201.96 161.89"/></g><polyline class="cls-12" points="178.02 164.23 178.02 161.89 194.97 161.89 199.53 164.23 194.97 166.56 178.02 166.56 178.02 164.23"/><g><polyline class="cls-10" points="165.99 164.23 165.99 161.89 167.08 164.23 165.99 166.56 165.99 164.23"/><polyline class="cls-8" points="165.99 164.23 165.99 161.89 167.08 164.23 165.99 166.56 165.99 164.23"/></g><line class="cls-7" x1="163.31" y1="169.82" x2="189.81" y2="169.82"/><rect class="cls-14" x="165.99" y="167.49" width="1.09" height="4.66"/><rect class="cls-14" x="178.02" y="167.49" width="21.51" height="4.66"/><g><polyline class="cls-9" points="201.96 172.15 189.81 172.15 189.81 167.49 201.96 167.49"/><polyline class="cls-3" points="201.96 172.15 189.81 172.15 189.81 167.49 201.96 167.49"/></g><polyline class="cls-12" points="178.02 169.82 178.02 167.49 194.97 167.49 199.53 169.82 194.97 172.15 178.02 172.15 178.02 169.82"/><g><polyline class="cls-10" points="165.99 169.82 165.99 167.49 167.08 169.82 165.99 172.15 165.99 169.82"/><polyline class="cls-8" points="165.99 169.82 165.99 167.49 167.08 169.82 165.99 172.15 165.99 169.82"/></g><line class="cls-5" x1="3.37" y1="43.26" x2="164.75" y2="81.81"/><line class="cls-5" x1="202.02" y1="43.13" x2="167.41" y2="81.81"/><text class="cls-44" transform="translate(178.3 178.06)"><tspan x="0" y="0">uORF2</tspan></text><text class="cls-44" transform="translate(159 178.1)"><tspan x="0" y="0">uORF1</tspan></text><text class="cls-43" transform="translate(189.93 184.61)"><tspan class="cls-42" x="0" y="0">A</tspan><tspan x="3.24" y="0">TF4 CDS</tspan></text></svg>