<?xml version="1.0" encoding="utf-8"?>
<!-- Generator: Adobe Illustrator 27.2.0, SVG Export Plug-In . SVG Version: 6.00 Build 0)  -->
<svg version="1.1" id="Layer_1" xmlns="http://www.w3.org/2000/svg" xmlns:xlink="http://www.w3.org/1999/xlink" x="0px" y="0px"
	 viewBox="0 0 375.7 369.1" style="enable-background:new 0 0 375.7 369.1;" xml:space="preserve">
<style type="text/css">
	.st0{fill:none;stroke:#808184;stroke-width:0.75;stroke-miterlimit:10;}
	.st1{fill:none;}
	.st2{opacity:0.93;}
	.st3{fill:none;stroke:#ABD6E7;stroke-width:0.75;stroke-miterlimit:10;}
	.st4{fill:#ABD6E7;}
	.st5{opacity:0.7;}
	.st6{fill:none;stroke:#5FB880;stroke-width:0.75;stroke-miterlimit:10;}
	.st7{fill:#5FB880;}
	.st8{fill:none;stroke:#58595B;stroke-width:0.75;stroke-miterlimit:10;}
	.st9{opacity:0.8;fill:#DCEEDA;stroke:#62BE6A;stroke-width:0.75;stroke-miterlimit:10;}
	.st10{fill:none;stroke:#595A5C;stroke-width:0.75;stroke-miterlimit:10;}
	.st11{fill:#595A5C;}
	.st12{fill:none;stroke:#231F20;stroke-miterlimit:10;}
	.st13{fill:#EEE9BA;stroke:#58595B;stroke-width:0.75;stroke-miterlimit:10;}
	.st14{fill:#EBCED4;stroke:#58595B;stroke-width:0.75;stroke-miterlimit:10;}
	.st15{fill:none;stroke:#8388B9;stroke-width:0.75;stroke-miterlimit:10;}
	.st16{fill:none;stroke:#929497;stroke-width:0.7548;stroke-miterlimit:10;stroke-dasharray:2.0193,2.0193;}
	.st17{fill:none;stroke:#ABD6E7;stroke-width:0.724;stroke-miterlimit:10;}
	.st18{opacity:0.8;fill:#FAA43C;}
	.st19{opacity:0.8;fill:#DDCD3B;}
	.st20{opacity:0.8;fill:#EF7CAE;}
	.st21{opacity:0.8;fill:#63BD6A;}
	.st22{opacity:0.8;fill:#B076B1;}
	.st23{opacity:0.8;fill:#5DA3D9;}
	.st24{opacity:0.8;fill:#F15C56;}
	.st25{opacity:0.8;fill-rule:evenodd;clip-rule:evenodd;fill:#FAA43C;}
	.st26{fill:none;stroke:#FFFFFF;stroke-width:0.1978;stroke-miterlimit:10;}
	.st27{opacity:0.8;fill-rule:evenodd;clip-rule:evenodd;fill:#EF7CAE;}
	.st28{opacity:0.8;fill-rule:evenodd;clip-rule:evenodd;fill:#B076B1;}
	.st29{opacity:0.8;fill-rule:evenodd;clip-rule:evenodd;fill:#63BD6A;}
	.st30{opacity:0.8;fill-rule:evenodd;clip-rule:evenodd;fill:#DDCD3B;}
	.st31{opacity:0.8;fill-rule:evenodd;clip-rule:evenodd;fill:#5DA3D9;}
	.st32{opacity:0.8;}
	.st33{fill:#FAA43C;stroke:#FFFFFF;stroke-width:0.1978;stroke-miterlimit:10;}
	.st34{opacity:0.8;fill-rule:evenodd;clip-rule:evenodd;fill:#F15C56;}
	.st35{fill:none;stroke:#010101;stroke-width:1.5308;stroke-linejoin:bevel;stroke-miterlimit:3.8;}
	.st36{fill:none;stroke:#6D6E71;stroke-width:0.75;stroke-miterlimit:10;}
	.st37{fill:#FFFFFF;stroke:#6D6E71;stroke-width:0.75;stroke-miterlimit:10;}
	.st38{fill:#6D6E71;}
	.st39{font-family:'Lato-Regular';}
	.st40{font-size:5.1261px;}
	.st41{fill:none;stroke:#58595B;stroke-width:0.6072;stroke-miterlimit:10;}
	.st42{opacity:0.8;fill:#DCEEDA;stroke:#62BE6A;stroke-width:0.6072;stroke-miterlimit:10;}
	.st43{fill:#F2EED1;stroke:#58595B;stroke-width:0.6072;stroke-miterlimit:10;}
	.st44{fill:#FFFFFF;stroke:#58595B;stroke-width:0.6072;stroke-miterlimit:10;}
	.st45{font-size:4.1502px;}
	.st46{fill:#EDE7BB;stroke:#58595B;stroke-width:0.8263;stroke-miterlimit:10;}
	.st47{fill:none;stroke:#EDE7BB;stroke-width:0.7736;stroke-miterlimit:10;}
	.st48{font-size:9.5px;}
	.st49{fill:none;stroke:#58595B;stroke-width:0.6786;stroke-miterlimit:10;}
	.st50{opacity:0.8;fill:#DCEEDA;stroke:#62BE6A;stroke-width:0.6786;stroke-miterlimit:10;}
	.st51{fill:#FFFFFF;stroke:#58595B;stroke-width:0.6786;stroke-miterlimit:10;}
	.st52{fill:#DCE7F4;stroke:#58595B;stroke-width:0.6786;stroke-miterlimit:10;}
	.st53{fill:#DCE7F4;stroke:#58595B;stroke-width:1.0914;stroke-miterlimit:10;}
	.st54{font-size:4.6382px;}
	.st55{fill:none;stroke:#DCE7F4;stroke-width:0.6786;stroke-miterlimit:10;}
	.st56{fill:#DCE7F4;stroke:#000000;stroke-width:0.6786;stroke-miterlimit:10;}
	.st57{fill:#414142;}
	.st58{font-size:7.47px;}
	.st59{fill:#DCE7F4;}
	.st60{fill:#58595B;}
	.st61{fill:none;stroke:#58595B;stroke-width:0.5982;stroke-miterlimit:10;}
	.st62{opacity:0.8;fill:#DCEEDA;stroke:#62BE6A;stroke-width:0.5982;stroke-miterlimit:10;}
	.st63{fill:#FFFFFF;stroke:#58595B;stroke-width:0.5982;stroke-miterlimit:10;}
	.st64{fill:#DCE7F4;stroke:#58595B;stroke-width:0.5982;stroke-miterlimit:10;}
	.st65{font-size:4.0889px;}
	.st66{fill:none;stroke:#DCE7F4;stroke-width:0.5888;stroke-miterlimit:10;}
	.st67{fill:#CCDDF2;stroke:#58595B;stroke-width:0.8263;stroke-miterlimit:10;}
	.st68{opacity:0.8;fill:#DCEEDA;stroke:#62BE6A;stroke-width:0.7476;stroke-miterlimit:10;}
	.st69{fill:#FFFFFF;stroke:#000000;stroke-width:0.4;stroke-miterlimit:10;}
	.st70{fill:#98C0E6;stroke:#000000;stroke-width:0.4;stroke-miterlimit:10;}
	.st71{fill:#B2D2EE;stroke:#000000;stroke-width:0.4;stroke-miterlimit:10;}
	.st72{fill:#5792CD;stroke:#000000;stroke-width:0.4;stroke-miterlimit:10;}
	.st73{fill:#DCE7F4;stroke:#58595B;stroke-width:0.4;stroke-miterlimit:10;}
	.st74{fill:#FFFFFF;stroke:#58595B;stroke-width:0.4;stroke-miterlimit:10;}
	.st75{fill:none;stroke:#ED1C24;stroke-width:0.5;stroke-miterlimit:10;}
	.st76{fill:none;stroke:#000000;stroke-width:0.6786;stroke-miterlimit:10;}
	.st77{font-family:'MyriadPro-Regular';}
	.st78{fill:#EDE7BB;stroke:#000000;stroke-width:0.8263;stroke-miterlimit:10;}
	.st79{fill:#FFFFFF;stroke:#58595B;stroke-width:0.75;stroke-miterlimit:10;}
</style>
<text transform="matrix(1 0 0 1 -321.0361 451.6472)" class="st57 st39" style="font-size:10.7242px;">Conserved uORFs</text>
<text transform="matrix(1 0 0 1 -145.2603 451.5183)" class="st57 st39" style="font-size:10.7242px;">MSAs</text>
<text transform="matrix(1 0 0 1 -229.0957 451.4324)" class="st57 st39" style="font-size:10.7242px;">Logos</text>
<g>
	<text transform="matrix(1 0 0 1 -199.4514 194.4719)"><tspan x="0" y="0" class="st57 st39" style="font-size:10.7242px;">RefSeq database search</tspan><tspan x="19" y="12.9" class="st57 st39" style="font-size:10.7242px;">for homologues</tspan></text>
</g>
<path class="st0" d="M-81.6,217.4h-124.2c-3.1,0-5.7-2.5-5.7-5.7V182c0-3.1,2.5-5.7,5.7-5.7h124.2c3.1,0,5.7,2.5,5.7,5.7v29.7
	C-75.9,214.8-78.5,217.4-81.6,217.4z"/>
<g>
	<path class="st1" d="M-229.2,267.4"/>
</g>
<g>
	<path class="st1" d="M-163.3,223.3"/>
</g>
<g class="st2">
	<g>
		<line class="st3" x1="-216.6" y1="217.4" x2="-240.8" y2="226.8"/>
		<g>
			<polygon class="st4" points="-240.2,224.2 -247,229.2 -238.6,228.3 			"/>
		</g>
	</g>
</g>
<text transform="matrix(1 0 0 1 -190.3181 255.8338)"><tspan x="0" y="0" class="st57 st39" style="font-size:10.7242px;">Upstream sequence </tspan><tspan x="26.4" y="12.9" class="st57 st39" style="font-size:10.7242px;">retrieval</tspan></text>
<path class="st0" d="M-81.6,278.7h-124.2c-3.1,0-5.7-2.5-5.7-5.7v-29.7c0-3.1,2.5-5.7,5.7-5.7h124.2c3.1,0,5.7,2.5,5.7,5.7v29.7
	C-75.9,276.2-78.5,278.7-81.6,278.7z"/>
<g>
	<path class="st1" d="M-161.3,293.2"/>
</g>
<g class="st5">
	<g>
		<line class="st6" x1="-247" y1="259.9" x2="-223.2" y2="259.9"/>
		<g>
			<polygon class="st7" points="-224.7,262.1 -216.6,259.9 -224.7,257.7 			"/>
		</g>
	</g>
</g>
<g class="st5">
	<g>
		<line class="st6" x1="-247" y1="196.9" x2="-223.2" y2="196.9"/>
		<g>
			<polygon class="st7" points="-224.7,199 -216.6,196.9 -224.7,194.7 			"/>
		</g>
	</g>
</g>
<text transform="matrix(1 0 0 1 -330.9768 335.3733)" class="st57 st39" style="font-size:10.7242px;">Sequences</text>
<line class="st8" x1="-270.6" y1="303.6" x2="-330" y2="303.6"/>
<polyline class="st9" points="-257.7,306.5 -270.2,306.5 -270.2,300.7 -257.7,300.7 "/>
<line class="st8" x1="-270.6" y1="312.6" x2="-325.7" y2="312.6"/>
<polyline class="st9" points="-257.9,315.5 -270.2,315.5 -270.2,309.7 -257.9,309.7 "/>
<line class="st8" x1="-270.6" y1="321.6" x2="-329" y2="321.6"/>
<polyline class="st9" points="-257.9,324.5 -270.2,324.5 -270.2,318.7 -257.9,318.7 "/>
<text transform="matrix(1 0 0 1 -183.449 315.2327)" class="st57 st39" style="font-size:10.7242px;">ORF annotation</text>
<path class="st0" d="M-81.6,323.4h-124.2c-3.1,0-5.7-2.5-5.7-5.7v-13c0-3.1,2.5-5.7,5.7-5.7h124.2c3.1,0,5.7,2.5,5.7,5.7v13
	C-75.9,320.8-78.5,323.4-81.6,323.4z"/>
<text transform="matrix(1 0 0 1 -199.6775 361.7034)"><tspan x="0" y="0" class="st57 st39" style="font-size:10.7242px;">Conserved ORF searc</tspan><tspan x="101.7" y="0" class="st57 st39" style="font-size:10.7242px;">h</tspan><tspan x="0" y="12.9" class="st57 st39" style="font-size:10.7242px;">and results visualisation </tspan></text>
<path class="st0" d="M-81.6,384.7h-124.2c-3.1,0-5.7-2.5-5.7-5.7v-29.7c0-3.1,2.5-5.7,5.7-5.7h124.2c3.1,0,5.7,2.5,5.7,5.7v29.7
	C-75.9,382.2-78.5,384.7-81.6,384.7z"/>
<rect x="-186.5" y="188.8" class="st1" width="31.7" height="0"/>
<g class="st5">
	<g>
		<line class="st6" x1="-247" y1="312" x2="-223.2" y2="312"/>
		<g>
			<polygon class="st7" points="-224.7,314.1 -216.6,312 -224.7,309.8 			"/>
		</g>
	</g>
</g>
<g class="st5">
	<g>
		<line class="st10" x1="-143.5" y1="386.6" x2="-143.5" y2="397.9"/>
		<g>
			<polygon class="st11" points="-145.7,396.4 -143.5,404.5 -141.3,396.4 			"/>
		</g>
	</g>
</g>
<g class="st5">
	<g>
		<line class="st10" x1="-143.7" y1="218.6" x2="-143.7" y2="229.8"/>
		<g>
			<polygon class="st11" points="-145.9,228.3 -143.7,236.5 -141.5,228.3 			"/>
		</g>
	</g>
</g>
<g class="st5">
	<g>
		<line class="st10" x1="-143.5" y1="280" x2="-143.5" y2="291.2"/>
		<g>
			<polygon class="st11" points="-145.7,289.7 -143.5,297.8 -141.3,289.7 			"/>
		</g>
	</g>
</g>
<g class="st5">
	<g>
		<line class="st10" x1="-143.7" y1="324.6" x2="-143.7" y2="335.8"/>
		<g>
			<polygon class="st11" points="-145.9,334.3 -143.7,342.5 -141.5,334.3 			"/>
		</g>
	</g>
</g>
<g class="st2">
	<g>
		<line class="st3" x1="-216.6" y1="282.2" x2="-240.8" y2="291.6"/>
		<g>
			<polygon class="st4" points="-240.2,289 -247,294 -238.6,293.1 			"/>
		</g>
	</g>
</g>
<text transform="matrix(1 0 0 1 -331.7791 207.5764)" class="st57 st39" style="font-size:10.7242px;">RefSeq protein</text>
<text transform="matrix(1.0303 0 0 1 -330.9695 277.0403)" class="st57 st39" style="font-size:10.7242px;">Homologues</text>
<path class="st12" d="M-321.2,428.3"/>
<line class="st8" x1="-261.1" y1="434.1" x2="-319.5" y2="434.1"/>
<line class="st8" x1="-261.1" y1="416.1" x2="-321.2" y2="416.1"/>
<polyline class="st9" points="-248.2,419 -260.7,419 -260.7,413.3 -248.2,413.3 "/>
<line class="st8" x1="-261.1" y1="425.1" x2="-316.3" y2="425.1"/>
<polyline class="st9" points="-248.4,428 -260.7,428 -260.7,422.2 -248.4,422.2 "/>
<polyline class="st9" points="-248.4,437 -260.7,437 -260.7,431.2 -248.4,431.2 "/>
<polygon class="st13" points="-295.8,434.1 -301,431.2 -312.5,431.2 -312.5,437 -301,437 "/>
<polygon class="st13" points="-292.5,425.1 -297.6,422.2 -309.1,422.2 -309.1,428 -297.6,428 "/>
<polygon class="st13" points="-299.3,416.1 -304.4,413.3 -316,413.3 -316,419 -304.4,419 "/>
<polygon class="st14" points="-268.6,416.1 -273.7,413.3 -279,413.3 -279,419 -273.7,419 "/>
<polygon class="st14" points="-268.6,425.1 -273.7,422.2 -277,422.2 -277,428 -273.7,428 "/>
<polygon class="st14" points="-270.3,434.1 -275.5,431.2 -278.8,431.2 -278.8,437 -275.5,437 "/>
<path class="st15" d="M-81.6,457.4h-243.5c-3.1,0-5.7-2.5-5.7-5.7v-40c0-3.1,2.5-5.7,5.7-5.7h243.5c3.1,0,5.7,2.5,5.7,5.7v40
	C-75.9,454.9-78.5,457.4-81.6,457.4z"/>
<g>
	
		<text transform="matrix(1.0845 0 0 1 -330.739 194.8743)" class="st57" style="font-family:'Lato-BoldItalic'; font-size:8.0404px;">WP_XXXXXX.X</text>
</g>
<g>
	<g>
		
			<text transform="matrix(1.0845 0 0 1 -330.3 265.3552)" class="st57" style="font-family:'Lato-BoldItalic'; font-size:8.0404px;">......</text>
	</g>
</g>
<g>
	<g>
		
			<text transform="matrix(1.0845 0 0 1 -330.969 249.4915)" class="st57" style="font-family:'Lato-BoldItalic'; font-size:8.0404px;">WP_XXXXXX.X</text>
	</g>
</g>
<g>
	<g>
		
			<text transform="matrix(1.0845 0 0 1 -330.969 259.2444)" class="st57" style="font-family:'Lato-BoldItalic'; font-size:8.0404px;">WP_XXXXXX.X</text>
	</g>
</g>
<g>
	<path class="st16" d="M-241.8,384.7h-82.7c-3.2,0-5.7-2.6-5.7-5.7v-28.7c0-3.2,2.6-5.7,5.7-5.7h82.7c3.2,0,5.7,2.6,5.7,5.7V379
		C-236.1,382.2-238.6,384.7-241.8,384.7z"/>
</g>
<g class="st5">
	<g>
		<line class="st6" x1="-323.4" y1="354.8" x2="-299.6" y2="354.8"/>
		<g>
			<polygon class="st7" points="-301.1,357 -293,354.8 -301.1,352.7 			"/>
		</g>
	</g>
</g>
<text transform="matrix(1 0 0 1 -288.1783 357.8645)" style="opacity:0.7;fill:#45A367; font-family:'Lato-Italic'; font-size:9px;">input</text>
<g class="st2">
	<g>
		<line class="st17" x1="-323.4" y1="369.1" x2="-299.4" y2="369.1"/>
		<g>
			<polygon class="st4" points="-300.8,371.2 -293,369.1 -300.8,367 			"/>
		</g>
	</g>
</g>
<text transform="matrix(1 0 0 1 -288.1782 370.2946)" class="st2"><tspan x="0" y="0" style="fill:#8EC1D2; font-family:'Lato-Italic'; font-size:9px;">intermediate</tspan><tspan x="0" y="9" style="fill:#8EC1D2; font-family:'Lato-Italic'; font-size:9px;"> result</tspan><tspan x="22.5" y="9" style="fill:#8EC1D2; font-family:'Lato-Italic'; font-size:9px;">s</tspan></text>
<g>
	<g>
		<polygon class="st18" points="-228.8,412.9 -227.4,412.9 -226.4,425.6 -225.4,412.9 -223.9,412.9 -223.9,436.7 -225,436.7 
			-225,419.3 -226,432.1 -226.7,432.1 -227.7,419.3 -227.7,436.7 -228.8,436.7 		"/>
		<path class="st19" d="M-218.8,436.4c-0.3,0.1-0.6,0.2-0.9,0.2c-0.3,0.1-0.6,0.1-0.9,0.1c-1,0-1.7-0.2-2.3-0.6s-0.8-1-0.8-1.7
			c0-0.7,0.3-1.2,0.8-1.7c0.6-0.4,1.3-0.6,2.3-0.6c0.3,0,0.6,0,0.9,0.1c0.3,0.1,0.6,0.1,0.9,0.2v0.9c-0.3-0.1-0.5-0.2-0.8-0.3
			c-0.3-0.1-0.5-0.1-0.8-0.1c-0.5,0-0.9,0.1-1.3,0.4c-0.3,0.3-0.5,0.6-0.5,1.1c0,0.4,0.2,0.8,0.5,1.1c0.3,0.3,0.7,0.4,1.3,0.4
			c0.3,0,0.6,0,0.8-0.1c0.3-0.1,0.5-0.2,0.8-0.3V436.4z"/>
		<path class="st20" d="M-218.8,430.9c-0.3,0.4-0.7,0.7-1,0.9c-0.4,0.2-0.7,0.3-1.1,0.3c-0.9,0-1.5-0.6-2-1.8
			c-0.5-1.2-0.7-2.9-0.7-5c0-2.1,0.3-3.8,0.8-5c0.5-1.2,1.2-1.8,2.1-1.8c0.3,0,0.7,0.1,1,0.2c0.3,0.2,0.6,0.4,0.9,0.7v2.7
			c-0.3-0.4-0.6-0.7-0.9-0.9c-0.3-0.2-0.6-0.3-0.9-0.3c-0.5,0-0.9,0.4-1.2,1.1c-0.3,0.7-0.4,1.8-0.4,3.2c0,1.4,0.1,2.5,0.4,3.2
			c0.3,0.8,0.7,1.1,1.2,1.1c0.1,0,0.3,0,0.4-0.1c0.1,0,0.2-0.1,0.3-0.2v-2.5h-0.8v-2.3h2.1V430.9z"/>
		<polygon class="st21" points="-218.5,434.1 -216.9,434.1 -214.9,435.9 -214.9,434.1 -213.6,434.1 -213.6,436.7 -215.2,436.7 
			-217.2,434.9 -217.2,436.7 -218.5,436.7 		"/>
		<rect x="-216.9" y="415.8" class="st18" width="1.8" height="18.2"/>
		<path class="st19" d="M-208.4,436.5c-0.3,0.1-0.6,0.1-0.9,0.1c-0.3,0-0.6,0-0.9,0c-1,0-1.7-0.1-2.3-0.4c-0.6-0.2-0.8-0.6-0.8-1
			c0-0.4,0.3-0.7,0.8-1c0.6-0.2,1.3-0.4,2.3-0.4c0.3,0,0.6,0,0.9,0c0.3,0,0.6,0.1,0.9,0.1v0.5c-0.3-0.1-0.5-0.1-0.8-0.2
			c-0.3,0-0.5-0.1-0.8-0.1c-0.5,0-0.9,0.1-1.3,0.2c-0.3,0.1-0.5,0.4-0.5,0.6c0,0.3,0.2,0.5,0.5,0.6c0.3,0.1,0.7,0.2,1.3,0.2
			c0.3,0,0.6,0,0.8-0.1c0.3,0,0.5-0.1,0.8-0.2V436.5z"/>
		<polygon class="st22" points="-213.3,415.8 -208.5,415.8 -208.5,419.4 -211.5,419.4 -211.5,422.8 -208.7,422.8 -208.7,426.3 
			-211.5,426.3 -211.5,434.1 -213.3,434.1 		"/>
		<path class="st19" d="M-203.3,436.5c-0.3,0.1-0.6,0.1-0.9,0.1c-0.3,0-0.6,0-0.9,0c-1,0-1.7-0.1-2.3-0.4c-0.6-0.2-0.8-0.6-0.8-1
			c0-0.4,0.3-0.7,0.8-1c0.6-0.2,1.3-0.4,2.3-0.4c0.3,0,0.6,0,0.9,0c0.3,0,0.6,0.1,0.9,0.1v0.5c-0.3-0.1-0.5-0.1-0.8-0.2
			c-0.3,0-0.5-0.1-0.8-0.1c-0.5,0-0.9,0.1-1.3,0.2c-0.3,0.1-0.5,0.4-0.5,0.6c0,0.3,0.2,0.5,0.5,0.6c0.3,0.1,0.7,0.2,1.3,0.2
			c0.3,0,0.6,0,0.8-0.1c0.3,0,0.5-0.1,0.8-0.2V436.5z"/>
		<path class="st21" d="M-203.7,416.7v3.7c-0.3-0.4-0.7-0.8-1-1c-0.3-0.2-0.6-0.3-0.9-0.3c-0.4,0-0.7,0.1-0.8,0.4
			c-0.2,0.3-0.3,0.8-0.3,1.4c0,0.5,0.1,0.8,0.2,1.1c0.1,0.3,0.3,0.5,0.7,0.7l0.7,0.4c0.7,0.4,1.2,1,1.5,1.8c0.3,0.8,0.4,1.9,0.4,3.4
			c0,1.9-0.2,3.4-0.6,4.3c-0.4,0.9-1,1.4-1.9,1.4c-0.4,0-0.8-0.1-1.2-0.3c-0.4-0.2-0.8-0.5-1.2-0.9V429c0.4,0.6,0.8,1,1.2,1.3
			c0.4,0.3,0.7,0.5,1.1,0.5c0.3,0,0.6-0.2,0.8-0.5c0.2-0.3,0.3-0.8,0.3-1.4c0-0.5-0.1-1-0.2-1.3s-0.4-0.6-0.8-0.8l-0.6-0.4
			c-0.6-0.4-1.1-1-1.4-1.8c-0.3-0.8-0.4-1.9-0.4-3.3c0-1.8,0.2-3.1,0.6-4c0.4-0.9,1-1.4,1.7-1.4c0.3,0,0.7,0.1,1.1,0.2
			C-204.4,416.2-204.1,416.4-203.7,416.7z"/>
		<polygon class="st18" points="-203,434.1 -201.2,434.1 -201.2,436.2 -198.1,436.2 -198.1,436.7 -203,436.7 		"/>
		<rect x="-201.5" y="415.8" class="st18" width="1.8" height="18.2"/>
		<polygon class="st22" points="-197.8,412.9 -193,412.9 -193,417.6 -196,417.6 -196,422 -193.2,422 -193.2,426.6 -196,426.6 
			-196,436.7 -197.8,436.7 		"/>
		<polygon class="st18" points="-192.7,412.9 -191.5,412.9 -190.3,430.5 -189,412.9 -187.8,412.9 -189.5,436.7 -191,436.7 		"/>
		<path class="st23" d="M-182.4,434.7h1.4c0.8,0,1.4,0,1.8,0.1c0.4,0,0.7,0.1,1,0.2c0.2,0.1,0.4,0.2,0.5,0.3
			c0.1,0.1,0.2,0.3,0.2,0.4c0,0.2-0.1,0.3-0.2,0.4c-0.1,0.1-0.3,0.2-0.5,0.3c-0.3,0.1-0.6,0.2-1,0.2c-0.4,0-1,0.1-1.8,0.1h-1.4
			V434.7z M-181,435v1.2h0.5c0.5,0,1-0.1,1.3-0.2c0.3-0.1,0.4-0.3,0.4-0.5c0-0.2-0.1-0.4-0.4-0.5c-0.3-0.1-0.7-0.2-1.3-0.2H-181z"/>
		<path class="st21" d="M-177.9,428.8v1.2c-0.3-0.1-0.7-0.3-1-0.3c-0.3-0.1-0.6-0.1-0.9-0.1c-0.4,0-0.7,0-0.8,0.1
			c-0.2,0.1-0.3,0.3-0.3,0.5c0,0.2,0.1,0.3,0.2,0.4c0.1,0.1,0.3,0.2,0.7,0.2l0.7,0.1c0.7,0.1,1.2,0.3,1.5,0.6
			c0.3,0.3,0.4,0.6,0.4,1.1c0,0.6-0.2,1.1-0.6,1.4c-0.4,0.3-1,0.5-1.9,0.5c-0.4,0-0.8,0-1.2-0.1c-0.4-0.1-0.8-0.2-1.2-0.3V433
			c0.4,0.2,0.8,0.3,1.2,0.5c0.4,0.1,0.7,0.2,1.1,0.2c0.3,0,0.6-0.1,0.8-0.2c0.2-0.1,0.3-0.3,0.3-0.5c0-0.2-0.1-0.3-0.2-0.4
			c-0.1-0.1-0.4-0.2-0.8-0.3l-0.6-0.1c-0.6-0.1-1.1-0.3-1.4-0.6c-0.3-0.3-0.4-0.6-0.4-1.1c0-0.6,0.2-1,0.6-1.3s1-0.5,1.7-0.5
			c0.3,0,0.7,0,1.1,0.1C-178.7,428.7-178.3,428.7-177.9,428.8z"/>
		<polygon class="st21" points="-182.4,420.4 -180.8,420.4 -178.8,426 -178.8,420.4 -177.5,420.4 -177.5,428.6 -179.1,428.6 
			-181,423 -181,428.6 -182.4,428.6 		"/>
		<rect x="-186" y="412.9" class="st18" width="1.8" height="23.7"/>
	</g>
	<g>
		<polygon class="st21" points="-167.4,413.3 -165.7,413.3 -163.6,429.6 -163.6,413.3 -162.1,413.3 -162.1,437 -163.8,437 
			-166,420.7 -166,437 -167.4,437 		"/>
		<polygon class="st23" points="-161.8,432.2 -156.7,432.2 -156.7,433.1 -159.9,433.1 -159.9,434 -156.9,434 -156.9,435 -159.9,435 
			-159.9,436.1 -156.6,436.1 -156.6,437 -161.8,437 		"/>
		<polygon class="st24" points="-161.8,417.6 -160.5,417.6 -160.5,422.9 -158.5,417.6 -156.9,417.6 -159.4,424.5 -156.6,432.2 
			-158.3,432.2 -160.5,426.4 -160.5,432.2 -161.8,432.2 		"/>
		<polygon class="st18" points="-173.2,413.3 -171.6,413.3 -170.6,426 -169.5,413.3 -167.9,413.3 -167.9,437 -169.1,437 
			-169.1,419.7 -170.2,432.5 -170.9,432.5 -172,419.7 -172,437 -173.2,437 		"/>
	</g>
</g>
<g>
	<g>
		<rect x="-145" y="413.3" class="st25" width="4" height="4"/>
		<rect x="-145" y="413.3" class="st26" width="4" height="4"/>
	</g>
	<g>
		<rect x="-141" y="413.3" class="st27" width="4" height="4"/>
		<rect x="-141" y="413.3" class="st26" width="4" height="4"/>
	</g>
	<g>
		<rect x="-137.1" y="413.3" class="st25" width="4" height="4"/>
		<rect x="-137.1" y="413.3" class="st26" width="4" height="4"/>
	</g>
	<g>
		<rect x="-133.1" y="413.3" class="st28" width="4" height="4"/>
		<rect x="-133.1" y="413.3" class="st26" width="4" height="4"/>
	</g>
	<g>
		<rect x="-129.2" y="413.3" class="st29" width="4" height="4"/>
		<rect x="-129.2" y="413.3" class="st26" width="4" height="4"/>
	</g>
	<g>
		<rect x="-125.2" y="413.3" class="st25" width="4" height="4"/>
		<rect x="-125.2" y="413.3" class="st26" width="4" height="4"/>
	</g>
	<g>
		<rect x="-121.2" y="413.3" class="st28" width="4" height="4"/>
		<rect x="-121.2" y="413.3" class="st26" width="4" height="4"/>
	</g>
	<g>
		<rect x="-117.3" y="413.3" class="st25" width="4" height="4"/>
		<rect x="-117.3" y="413.3" class="st26" width="4" height="4"/>
	</g>
	<g>
		<rect x="-113.3" y="413.3" class="st25" width="4" height="4"/>
		<rect x="-113.3" y="413.3" class="st26" width="4" height="4"/>
	</g>
	<g>
		<rect x="-109.4" y="413.3" class="st29" width="4" height="4"/>
		<rect x="-109.4" y="413.3" class="st26" width="4" height="4"/>
	</g>
	<g>
		<rect x="-145" y="417.2" class="st25" width="4" height="4"/>
		<rect x="-145" y="417.2" class="st26" width="4" height="4"/>
	</g>
	<g>
		<rect x="-141" y="417.2" class="st30" width="4" height="4"/>
		<rect x="-141" y="417.2" class="st26" width="4" height="4"/>
	</g>
	<g>
		<rect x="-137.1" y="417.2" class="st25" width="4" height="4"/>
		<rect x="-137.1" y="417.2" class="st26" width="4" height="4"/>
	</g>
	<g>
		<rect x="-133.1" y="417.2" class="st28" width="4" height="4"/>
		<rect x="-133.1" y="417.2" class="st26" width="4" height="4"/>
	</g>
	<g>
		<rect x="-129.2" y="417.2" class="st30" width="4" height="4"/>
		<rect x="-129.2" y="417.2" class="st26" width="4" height="4"/>
	</g>
	<g>
		<rect x="-125.2" y="417.2" class="st25" width="4" height="4"/>
		<rect x="-125.2" y="417.2" class="st26" width="4" height="4"/>
	</g>
	<g>
		<rect x="-121.2" y="417.2" class="st28" width="4" height="4"/>
		<rect x="-121.2" y="417.2" class="st26" width="4" height="4"/>
	</g>
	<g>
		<rect x="-117.3" y="417.2" class="st25" width="4" height="4"/>
		<rect x="-117.3" y="417.2" class="st26" width="4" height="4"/>
	</g>
	<g>
		<rect x="-113.3" y="417.2" class="st25" width="4" height="4"/>
		<rect x="-113.3" y="417.2" class="st26" width="4" height="4"/>
	</g>
	<g>
		<rect x="-109.4" y="417.2" class="st31" width="4" height="4"/>
		<rect x="-109.4" y="417.2" class="st26" width="4" height="4"/>
	</g>
	<g>
		<rect x="-145" y="421.2" class="st25" width="4" height="4"/>
		<rect x="-145" y="421.2" class="st26" width="4" height="4"/>
	</g>
	<g>
		<rect x="-141" y="421.2" class="st27" width="4" height="4"/>
		<rect x="-141" y="421.2" class="st26" width="4" height="4"/>
	</g>
	<g>
		<rect x="-137.1" y="421.2" class="st25" width="4" height="4"/>
		<rect x="-137.1" y="421.2" class="st26" width="4" height="4"/>
	</g>
	<g>
		<rect x="-133.1" y="421.2" class="st28" width="4" height="4"/>
		<rect x="-133.1" y="421.2" class="st26" width="4" height="4"/>
	</g>
	<g>
		<rect x="-129.2" y="421.2" class="st29" width="4" height="4"/>
		<rect x="-129.2" y="421.2" class="st26" width="4" height="4"/>
	</g>
	<g>
		<rect x="-125.2" y="421.2" class="st25" width="4" height="4"/>
		<rect x="-125.2" y="421.2" class="st26" width="4" height="4"/>
	</g>
	<g>
		<rect x="-121.2" y="421.2" class="st28" width="4" height="4"/>
		<rect x="-121.2" y="421.2" class="st26" width="4" height="4"/>
	</g>
	<g>
		<rect x="-117.3" y="421.2" class="st25" width="4" height="4"/>
		<rect x="-117.3" y="421.2" class="st26" width="4" height="4"/>
	</g>
	<g>
		<rect x="-113.3" y="421.2" class="st25" width="4" height="4"/>
		<rect x="-113.3" y="421.2" class="st26" width="4" height="4"/>
	</g>
	<g>
		<rect x="-109.4" y="421.2" class="st29" width="4" height="4"/>
		<rect x="-109.4" y="421.2" class="st26" width="4" height="4"/>
	</g>
	<g>
		<rect x="-145" y="425.1" class="st25" width="4" height="4"/>
		<rect x="-145" y="425.1" class="st26" width="4" height="4"/>
	</g>
	<g>
		<rect x="-141" y="425.1" class="st27" width="4" height="4"/>
		<rect x="-141" y="425.1" class="st26" width="4" height="4"/>
	</g>
	<g>
		<rect x="-137.1" y="425.1" class="st29" width="4" height="4"/>
		<rect x="-137.1" y="425.1" class="st26" width="4" height="4"/>
	</g>
	<g>
		<rect x="-133.1" y="425.1" class="st30" width="4" height="4"/>
		<rect x="-133.1" y="425.1" class="st26" width="4" height="4"/>
	</g>
	<g>
		<rect x="-129.2" y="425.1" class="st29" width="4" height="4"/>
		<rect x="-129.2" y="425.1" class="st26" width="4" height="4"/>
	</g>
	<g>
		<rect x="-125.2" y="425.1" class="st25" width="4" height="4"/>
		<rect x="-125.2" y="425.1" class="st26" width="4" height="4"/>
	</g>
	<g>
		<rect x="-121.2" y="425.1" class="st28" width="4" height="4"/>
		<rect x="-121.2" y="425.1" class="st26" width="4" height="4"/>
	</g>
	<g>
		<rect x="-117.3" y="425.1" class="st25" width="4" height="4"/>
		<rect x="-117.3" y="425.1" class="st26" width="4" height="4"/>
	</g>
	<g>
		<rect x="-113.3" y="425.1" class="st25" width="4" height="4"/>
		<rect x="-113.3" y="425.1" class="st26" width="4" height="4"/>
	</g>
	<g>
		<rect x="-109.4" y="425.1" class="st29" width="4" height="4"/>
		<rect x="-109.4" y="425.1" class="st26" width="4" height="4"/>
	</g>
	<g>
		<rect x="-145" y="429.1" class="st25" width="4" height="4"/>
		<rect x="-145" y="429.1" class="st26" width="4" height="4"/>
	</g>
	<g>
		<rect x="-137.1" y="429.1" class="st25" width="4" height="4"/>
		<rect x="-137.1" y="429.1" class="st26" width="4" height="4"/>
	</g>
	<g>
		<rect x="-133.1" y="429.1" class="st28" width="4" height="4"/>
		<rect x="-133.1" y="429.1" class="st26" width="4" height="4"/>
	</g>
	<g>
		<rect x="-129.2" y="429.1" class="st29" width="4" height="4"/>
		<rect x="-129.2" y="429.1" class="st26" width="4" height="4"/>
	</g>
	<g>
		<rect x="-125.2" y="429.1" class="st25" width="4" height="4"/>
		<rect x="-125.2" y="429.1" class="st26" width="4" height="4"/>
	</g>
	<g>
		<rect x="-121.2" y="429.1" class="st28" width="4" height="4"/>
		<rect x="-121.2" y="429.1" class="st26" width="4" height="4"/>
	</g>
	<g>
		<rect x="-117.3" y="429.1" class="st25" width="4" height="4"/>
		<rect x="-117.3" y="429.1" class="st26" width="4" height="4"/>
	</g>
	<g>
		<rect x="-113.3" y="429.1" class="st25" width="4" height="4"/>
		<rect x="-113.3" y="429.1" class="st26" width="4" height="4"/>
	</g>
	<g>
		<rect x="-109.4" y="429.1" class="st29" width="4" height="4"/>
		<rect x="-109.4" y="429.1" class="st26" width="4" height="4"/>
	</g>
	<g>
		<rect x="-145" y="433" class="st25" width="4" height="4"/>
		<rect x="-145" y="433" class="st26" width="4" height="4"/>
	</g>
	<g>
		<rect x="-141" y="433" class="st27" width="4" height="4"/>
		<rect x="-141" y="433" class="st26" width="4" height="4"/>
	</g>
	<g>
		<rect x="-137.1" y="433" class="st25" width="4" height="4"/>
		<rect x="-137.1" y="433" class="st26" width="4" height="4"/>
	</g>
	<g>
		<rect x="-133.1" y="433" class="st28" width="4" height="4"/>
		<rect x="-133.1" y="433" class="st26" width="4" height="4"/>
	</g>
	<g>
		<rect x="-129.2" y="433" class="st29" width="4" height="4"/>
		<rect x="-129.2" y="433" class="st26" width="4" height="4"/>
	</g>
	<g>
		<rect x="-125.2" y="433" class="st25" width="4" height="4"/>
		<rect x="-125.2" y="433" class="st26" width="4" height="4"/>
	</g>
	<g>
		<rect x="-121.2" y="433" class="st28" width="4" height="4"/>
		<rect x="-121.2" y="433" class="st26" width="4" height="4"/>
	</g>
	<g>
		<rect x="-117.3" y="433" class="st25" width="4" height="4"/>
		<rect x="-117.3" y="433" class="st26" width="4" height="4"/>
	</g>
	<g>
		<rect x="-113.3" y="433" class="st25" width="4" height="4"/>
		<rect x="-113.3" y="433" class="st26" width="4" height="4"/>
	</g>
	<g class="st32">
		<rect x="-99.8" y="413.3" class="st25" width="4" height="4"/>
		<rect x="-99.8" y="413.3" class="st33" width="4" height="4"/>
	</g>
	<g>
		<rect x="-95.8" y="413.3" class="st29" width="4" height="4"/>
		<rect x="-95.8" y="413.3" class="st26" width="4" height="4"/>
	</g>
	<g>
		<rect x="-91.9" y="413.3" class="st34" width="4" height="4"/>
		<rect x="-91.9" y="413.3" class="st26" width="4" height="4"/>
	</g>
	<g class="st32">
		<rect x="-99.8" y="417.2" class="st25" width="4" height="4"/>
		<rect x="-99.8" y="417.2" class="st33" width="4" height="4"/>
	</g>
	<g>
		<rect x="-95.8" y="417.2" class="st29" width="4" height="4"/>
		<rect x="-95.8" y="417.2" class="st26" width="4" height="4"/>
	</g>
	<g>
		<rect x="-91.9" y="417.2" class="st31" width="4" height="4"/>
		<rect x="-91.9" y="417.2" class="st26" width="4" height="4"/>
	</g>
	<g class="st32">
		<rect x="-99.8" y="421.2" class="st25" width="4" height="4"/>
		<rect x="-99.8" y="421.2" class="st33" width="4" height="4"/>
	</g>
	<g>
		<rect x="-95.8" y="421.2" class="st29" width="4" height="4"/>
		<rect x="-95.8" y="421.2" class="st26" width="4" height="4"/>
	</g>
	<g>
		<rect x="-91.9" y="421.2" class="st34" width="4" height="4"/>
		<rect x="-91.9" y="421.2" class="st26" width="4" height="4"/>
	</g>
	<g class="st32">
		<rect x="-99.8" y="425.1" class="st25" width="4" height="4"/>
		<rect x="-99.8" y="425.1" class="st33" width="4" height="4"/>
	</g>
	<g>
		<rect x="-95.8" y="425.1" class="st29" width="4" height="4"/>
		<rect x="-95.8" y="425.1" class="st26" width="4" height="4"/>
	</g>
	<g>
		<rect x="-91.9" y="425.1" class="st31" width="4" height="4"/>
		<rect x="-91.9" y="425.1" class="st26" width="4" height="4"/>
	</g>
	<g class="st32">
		<rect x="-99.8" y="429.1" class="st25" width="4" height="4"/>
		<rect x="-99.8" y="429.1" class="st33" width="4" height="4"/>
	</g>
	<g>
		<rect x="-95.8" y="429.1" class="st29" width="4" height="4"/>
		<rect x="-95.8" y="429.1" class="st26" width="4" height="4"/>
	</g>
	<g>
		<rect x="-91.9" y="429.1" class="st34" width="4" height="4"/>
		<rect x="-91.9" y="429.1" class="st26" width="4" height="4"/>
	</g>
	<g class="st32">
		<rect x="-99.8" y="433" class="st25" width="4" height="4"/>
		<rect x="-99.8" y="433" class="st33" width="4" height="4"/>
	</g>
	<g>
		<rect x="-95.8" y="433" class="st29" width="4" height="4"/>
		<rect x="-95.8" y="433" class="st26" width="4" height="4"/>
	</g>
	<g>
		<rect x="-91.9" y="433" class="st34" width="4" height="4"/>
		<rect x="-91.9" y="433" class="st26" width="4" height="4"/>
	</g>
	<g>
		<rect x="-141" y="429.1" class="st30" width="4" height="4"/>
		<rect x="-141" y="429.1" class="st26" width="4" height="4"/>
	</g>
	<g>
		<rect x="-109.4" y="433" class="st29" width="4" height="4"/>
		<rect x="-109.4" y="433" class="st26" width="4" height="4"/>
	</g>
</g>
<text transform="matrix(1 0 0 1 -319.2275 -6.2357)" style="fill:#010101; font-family:'Lato-Bold'; font-size:16px;">Conservation analysis algorithm</text>
<line class="st35" x1="-289.5" y1="14.9" x2="-91" y2="14.9"/>
<line class="st36" x1="96.1" y1="35.1" x2="12.6" y2="35.1"/>
<polyline class="st9" points="109,38 96.5,38 96.5,32.2 109,32.2 "/>
<line class="st36" x1="96.1" y1="44.1" x2="16.9" y2="44.1"/>
<polyline class="st9" points="108.8,47 96.5,47 96.5,41.2 108.8,41.2 "/>
<line class="st36" x1="96.1" y1="53.1" x2="13.7" y2="53.1"/>
<polyline class="st9" points="108.8,56 96.5,56 96.5,50.2 108.8,50.2 "/>
<text transform="matrix(1 0 0 1 -175.1564 96.5604)" class="st57 st39" style="font-size:10.7242px;">ORF annotation</text>
<path class="st0" d="M-73.3,104.7h-124.2c-3.1,0-5.7-2.5-5.7-5.7v-13c0-3.1,2.5-5.7,5.7-5.7h124.2c3.1,0,5.7,2.5,5.7,5.7v13
	C-67.6,102.2-70.2,104.7-73.3,104.7z"/>
<g class="st5">
	<g>
		<line class="st10" x1="114.4" y1="56.6" x2="138.1" y2="56.6"/>
		<g>
			<polygon class="st11" points="136.6,58.8 144.8,56.6 136.6,54.5 			"/>
		</g>
	</g>
</g>
<g class="st5">
	<g>
		<line class="st10" x1="-135.4" y1="105.9" x2="-135.4" y2="117.2"/>
		<g>
			<polygon class="st11" points="-137.6,115.7 -135.4,123.8 -133.2,115.7 			"/>
		</g>
	</g>
</g>
<line class="st36" x1="95.9" y1="62.1" x2="12.4" y2="62.1"/>
<polyline class="st9" points="108.8,64.9 96.3,64.9 96.3,59.2 108.8,59.2 "/>
<line class="st36" x1="95.9" y1="71.1" x2="16.7" y2="71.1"/>
<polyline class="st9" points="108.6,73.9 96.3,73.9 96.3,68.2 108.6,68.2 "/>
<line class="st36" x1="95.9" y1="80" x2="13.5" y2="80"/>
<polyline class="st9" points="108.6,82.9 96.3,82.9 96.3,77.2 108.6,77.2 "/>
<polygon class="st37" points="38.9,35.1 33.8,32.2 18.6,32.2 18.6,38 33.8,38 "/>
<polygon class="st37" points="42.3,44.1 37.2,41.2 22,41.2 22,47 37.2,47 "/>
<polygon class="st37" points="38.9,53.1 33.8,50.2 18.6,50.2 18.6,56 33.8,56 "/>
<polygon class="st37" points="37.3,80 32.1,77.2 16.9,77.2 16.9,82.9 32.1,82.9 "/>
<polygon class="st37" points="75.4,35.1 70.3,32.2 65.3,32.2 65.3,38 70.3,38 "/>
<polygon class="st37" points="92,35.1 86.9,32.2 81.8,32.2 81.8,38 86.9,38 "/>
<polygon class="st37" points="79.9,44.1 74.7,41.2 69.7,41.2 69.7,47 74.7,47 "/>
<polygon class="st37" points="16.7,53.1 11.6,50.2 6.5,50.2 6.5,56 11.6,56 "/>
<polygon class="st37" points="75.4,53.1 70.3,50.2 65.3,50.2 65.3,56 70.3,56 "/>
<polygon class="st37" points="81.8,62.1 76.7,59.2 71.7,59.2 71.7,64.9 76.7,64.9 "/>
<polygon class="st37" points="86.1,71 80.9,68.1 75.9,68.1 75.9,73.9 80.9,73.9 "/>
<polygon class="st37" points="52.5,62.1 47.4,59.2 42.3,59.2 42.3,64.9 47.4,64.9 "/>
<text transform="matrix(1 0 0 1 101.7182 36.8771)" class="st38 st39 st40">1</text>
<text transform="matrix(1 0 0 1 101.718 45.8786)" class="st38 st39 st40">2</text>
<text transform="matrix(1 0 0 1 101.718 54.8623)" class="st38 st39 st40">3</text>
<text transform="matrix(1 0 0 1 101.718 63.8943)" class="st38 st39 st40">4</text>
<text transform="matrix(1 0 0 1 101.7182 72.9218)" class="st38 st39 st40">5</text>
<text transform="matrix(1 0 0 1 101.718 81.9636)" class="st38 st39 st40">6</text>
<polygon class="st37" points="59.2,71 54.1,68.1 49.1,68.1 49.1,73.9 54.1,73.9 "/>
<line class="st41" x1="234.5" y1="36.2" x2="166.9" y2="36.2"/>
<polyline class="st42" points="244.9,38.5 234.8,38.5 234.8,33.9 244.9,33.9 "/>
<line class="st41" x1="234.5" y1="43.5" x2="170.4" y2="43.5"/>
<polyline class="st42" points="244.8,45.8 234.8,45.8 234.8,41.1 244.8,41.1 "/>
<line class="st41" x1="234.5" y1="50.7" x2="167.7" y2="50.7"/>
<polyline class="st42" points="244.8,53.1 234.8,53.1 234.8,48.4 244.8,48.4 "/>
<line class="st41" x1="234.5" y1="58" x2="167.7" y2="58"/>
<polyline class="st42" points="244.8,60.4 234.8,60.4 234.8,55.7 244.8,55.7 "/>
<polygon class="st43" points="188.2,36.2 184,33.9 171.7,33.9 171.7,38.5 184,38.5 "/>
<polygon class="st43" points="190.9,43.5 186.7,41.1 174.4,41.1 174.5,45.8 186.7,45.8 "/>
<polygon class="st43" points="188.2,50.7 184,48.4 171.7,48.4 171.7,53.1 184,53.1 "/>
<polygon class="st43" points="187,58 182.9,55.7 170.6,55.7 170.6,60.4 182.9,60.4 "/>
<polygon class="st44" points="217.7,36.2 213.5,33.9 209.5,33.9 209.5,38.5 213.5,38.5 "/>
<polygon class="st44" points="231.1,36.2 227,33.9 222.9,33.9 222.9,38.5 227,38.5 "/>
<polygon class="st44" points="221.3,43.5 217.1,41.1 213.1,41.1 213.1,45.8 217.1,45.8 "/>
<polygon class="st44" points="170.2,50.7 166,48.4 161.9,48.4 161.9,53.1 166,53.1 "/>
<polygon class="st44" points="217.7,50.7 213.5,48.4 209.5,48.4 209.5,53.1 213.5,53.1 "/>
<text transform="matrix(1 0 0 1 238.995 37.6254)" class="st38 st39 st45">1</text>
<text transform="matrix(1 0 0 1 238.995 44.9134)" class="st38 st39 st45">2</text>
<text transform="matrix(1 0 0 1 238.995 52.1859)" class="st38 st39 st45">3</text>
<text transform="matrix(1 0 0 1 239.1844 59.5785)" class="st38 st39 st45">6</text>
<polygon class="st46" points="215.8,22.8 210.1,19.6 193.4,19.6 193.4,26 210.1,26 "/>
<path class="st47" d="M166.6,65.9h76.1c6.5,0,11.7-5.3,11.7-11.7V40c0-6.5-5.3-11.7-11.7-11.7h-76.1c-6.5,0-11.7,5.3-11.7,11.7v14.1
	C154.8,60.7,160.1,65.9,166.6,65.9z"/>
<polygon class="st43" points="209.3,43.5 205.2,41.1 192.9,41.1 192.9,45.8 205.2,45.8 "/>
<rect x="4.5" y="100.3" class="st1" width="356" height="57.6"/>
<text transform="matrix(1 0 0 1 4.4804 107.3161)"><tspan x="0" y="0" class="st39 st48">2. Select a cluster, select a sequenc</tspan><tspan x="143.1" y="0" class="st39 st48">e</tspan><tspan x="148" y="0" class="st39 st48"> and start building a conserved set. </tspan><tspan x="0" y="11.4" class="st39 st48">On each step we add a new ORF to the set if its average pairwise alignment score to </tspan><tspan x="0" y="22.8" class="st39 st48">the already presented ORFs is more than the set cutoff. If there are several candi</tspan><tspan x="331.4" y="22.8" class="st39 st48">-</tspan><tspan x="0" y="34.2" class="st39 st48">dates, the one with the highest score will be added.</tspan></text>
<polygon class="st37" points="66.7,44.1 61.6,41.2 46.4,41.2 46.4,47 61.6,47 "/>
<g>
	<line class="st49" x1="95.8" y1="166.5" x2="20.3" y2="166.5"/>
	<polyline class="st50" points="107.5,169.1 96.1,169.1 96.1,163.9 107.5,163.9 	"/>
	<line class="st49" x1="95.8" y1="174.6" x2="24.1" y2="174.6"/>
	<polyline class="st50" points="107.3,177.2 96.1,177.2 96.1,172 107.3,172 	"/>
	<line class="st49" x1="95.8" y1="182.8" x2="21.2" y2="182.8"/>
	<polyline class="st50" points="107.3,185.4 96.1,185.4 96.1,180.2 107.3,180.2 	"/>
	<line class="st49" x1="95.6" y1="190.9" x2="20" y2="190.9"/>
	<polyline class="st50" points="107.2,193.5 95.9,193.5 95.9,188.3 107.2,188.3 	"/>
	<line class="st49" x1="95.6" y1="199" x2="23.9" y2="199"/>
	<polyline class="st50" points="107.1,201.6 95.9,201.6 95.9,196.4 107.1,196.4 	"/>
	<polygon class="st51" points="44,166.5 39.4,163.9 25.6,163.9 25.6,169.1 39.4,169.1 	"/>
	<polygon class="st51" points="47.1,174.6 42.5,172 28.7,172 28.7,177.2 42.5,177.2 	"/>
	<polygon class="st51" points="44,182.8 39.4,180.2 25.6,180.2 25.6,185.4 39.4,185.4 	"/>
	<polygon class="st52" points="77.1,166.5 72.4,163.9 67.9,163.9 67.9,169.1 72.4,169.1 	"/>
	<polygon class="st52" points="92.1,166.5 87.4,163.9 82.9,163.9 82.9,169.1 87.4,169.1 	"/>
	<polygon class="st52" points="81.1,174.6 76.4,172 71.9,172 71.9,177.2 76.4,177.2 	"/>
	<polygon class="st53" points="72.7,154.2 65.2,150 57.9,150 57.9,158.4 65.2,158.4 	"/>
	<polygon class="st52" points="77.1,182.8 72.4,180.2 67.9,180.2 67.9,185.4 72.4,185.4 	"/>
	<polygon class="st52" points="82.9,190.9 78.2,188.3 73.7,188.3 73.7,193.5 78.2,193.5 	"/>
	<polygon class="st52" points="86.7,199 82,196.4 77.5,196.4 77.5,201.6 82,201.6 	"/>
	<polygon class="st52" points="56.3,190.9 51.7,188.3 47.1,188.3 47.1,193.5 51.7,193.5 	"/>
	<text transform="matrix(1 0 0 1 100.8509 168.1028)" class="st38 st39 st54">1</text>
	<text transform="matrix(1 0 0 1 100.8509 176.2473)" class="st38 st39 st54">2</text>
	<text transform="matrix(1 0 0 1 100.8509 184.3762)" class="st38 st39 st54">3</text>
	<text transform="matrix(1 0 0 1 100.8509 192.549)" class="st38 st39 st54">4</text>
	<text transform="matrix(1 0 0 1 100.8509 200.717)" class="st38 st39 st54">5</text>
	<polygon class="st52" points="62.4,199 57.8,196.4 53.2,196.4 53.2,201.6 57.8,201.6 	"/>
	<path class="st55" d="M21.7,205.2h87.1c7.6,0,13.8-6.2,13.8-13.8V174c0-7.6-6.2-13.8-13.8-13.8H21.7c-7.6,0-13.8,6.2-13.8,13.8
		v17.4C7.9,199.1,14.1,205.2,21.7,205.2z"/>
</g>
<line class="st49" x1="214.5" y1="170.3" x2="142.8" y2="170.3"/>
<polyline class="st50" points="225.9,172.9 214.8,172.9 214.8,167.7 225.9,167.7 "/>
<polygon class="st51" points="165.8,170.3 161.1,167.7 147.4,167.7 147.4,172.9 161.1,172.9 "/>
<polygon class="st56" points="199.7,170.3 195.1,167.7 190.5,167.7 190.5,172.9 195.1,172.9 "/>
<text transform="matrix(1 0 0 1 219.5035 171.8971)" class="st38 st39 st54">2</text>
<line class="st49" x1="214.4" y1="192.4" x2="138.9" y2="192.4"/>
<polyline class="st50" points="226.1,195 214.8,195 214.8,189.8 226.1,189.8 "/>
<polygon class="st51" points="162.7,192.4 158,189.8 144.3,189.8 144.3,195 158,195 "/>
<polygon class="st52" points="195.7,192.4 191,189.8 186.5,189.8 186.5,195 191,195 "/>
<polygon class="st52" points="210.7,192.4 206,189.8 201.5,189.8 201.5,195 206,195 "/>
<text transform="matrix(1 0 0 1 219.4781 193.9896)" class="st38 st39 st54">1</text>
<text transform="matrix(1 0 0 1 147.3663 156.8434)" class="st57 st39 st58">Step 1</text>
<g>
	<line class="st59" x1="206.1" y1="189.8" x2="198" y2="172.9"/>
	<g>
		<line class="st49" x1="206.1" y1="189.8" x2="199.6" y2="176.2"/>
		<g>
			<polygon class="st60" points="201,176.5 198,172.9 198.8,177.5 			"/>
		</g>
	</g>
</g>
<g>
	<line class="st59" x1="190.7" y1="189.5" x2="192.9" y2="174.3"/>
	<g>
		<line class="st49" x1="190.7" y1="189.5" x2="192.4" y2="177.9"/>
		<g>
			<polygon class="st60" points="193.4,178.9 192.9,174.3 191,178.6 			"/>
		</g>
	</g>
</g>
<line class="st49" x1="340.4" y1="169.9" x2="268.7" y2="169.9"/>
<polyline class="st50" points="351.9,172.6 340.7,172.6 340.7,167.3 351.9,167.3 "/>
<polygon class="st51" points="291.7,169.9 287,167.3 273.3,167.3 273.3,172.5 287,172.5 "/>
<polygon class="st56" points="325.7,169.9 321,167.3 316.5,167.3 316.5,172.5 321,172.5 "/>
<text transform="matrix(1 0 0 1 345.429 171.5626)" class="st38 st39 st54">2</text>
<line class="st49" x1="340.7" y1="178.4" x2="265.1" y2="178.4"/>
<polyline class="st50" points="352.3,181 341,181 341,175.8 352.3,175.8 "/>
<polygon class="st51" points="288.9,178.4 284.2,175.8 270.5,175.8 270.5,181 284.2,181 "/>
<polygon class="st52" points="321.9,178.4 317.3,175.8 312.7,175.8 312.7,181 317.3,181 "/>
<polygon class="st56" points="336.9,178.4 332.3,175.8 327.7,175.8 327.7,181 332.3,181 "/>
<text transform="matrix(1 0 0 1 345.715 179.9755)" class="st38 st39 st54">1</text>
<text transform="matrix(1 0 0 1 254.4339 156.8434)" class="st57 st39 st58">Step N</text>
<line class="st56" x1="323.1" y1="171.4" x2="327.7" y2="175.8"/>
<line class="st49" x1="340.7" y1="186.8" x2="266.1" y2="186.8"/>
<polyline class="st50" points="352.2,189.4 341,189.4 341,184.2 352.2,184.2 "/>
<polygon class="st51" points="288.9,186.8 284.3,184.2 270.5,184.2 270.5,189.4 284.3,189.4 "/>
<polygon class="st52" points="268.8,186.8 264.2,184.2 259.6,184.2 259.6,189.4 264.2,189.4 "/>
<polygon class="st56" points="322,186.8 317.3,184.2 312.8,184.2 312.8,189.4 317.3,189.4 "/>
<text transform="matrix(1 0 0 1 345.7369 188.4095)" class="st38 st39 st54">3</text>
<line class="st56" x1="327.7" y1="181" x2="319.8" y2="185.6"/>
<g>
	<line class="st61" x1="340.8" y1="56" x2="274.2" y2="56"/>
	<polyline class="st62" points="351,58.3 341.1,58.3 341.1,53.7 351,53.7 	"/>
	<line class="st61" x1="340.8" y1="63.1" x2="277.6" y2="63.1"/>
	<polyline class="st62" points="350.9,65.4 341.1,65.4 341.1,60.8 350.9,60.8 	"/>
	<line class="st61" x1="340.8" y1="70.3" x2="275" y2="70.3"/>
	<polyline class="st62" points="350.9,72.6 341.1,72.6 341.1,68 350.9,68 	"/>
	<line class="st61" x1="340.6" y1="77.5" x2="274" y2="77.5"/>
	<polyline class="st62" points="350.9,79.8 340.9,79.8 340.9,75.2 350.9,75.2 	"/>
	<line class="st61" x1="340.6" y1="84.6" x2="277.4" y2="84.6"/>
	<polyline class="st62" points="350.7,86.9 340.9,86.9 340.9,82.3 350.7,82.3 	"/>
	<polygon class="st63" points="295.1,56 291,53.7 278.9,53.7 278.9,58.3 291,58.3 	"/>
	<polygon class="st63" points="297.9,63.1 293.7,60.8 281.6,60.8 281.6,65.4 293.7,65.4 	"/>
	<polygon class="st63" points="295.1,70.3 291,68 278.9,68 278.9,72.6 291,72.6 	"/>
	<polygon class="st64" points="324.3,56 320.1,53.7 316.1,53.7 316.1,58.3 320.1,58.3 	"/>
	<polygon class="st64" points="337.5,56 333.4,53.7 329.4,53.7 329.4,58.3 333.4,58.3 	"/>
	<polygon class="st64" points="327.8,63.1 323.7,60.8 319.7,60.8 319.7,65.4 323.7,65.4 	"/>
	<polygon class="st63" points="277.4,70.3 273.3,68 269.3,68 269.3,72.6 273.3,72.6 	"/>
	<polygon class="st64" points="324.3,70.3 320.1,68 316.1,68 316.1,72.6 320.1,72.6 	"/>
	<polygon class="st64" points="329.4,77.5 325.3,75.2 321.3,75.2 321.3,79.8 325.3,79.8 	"/>
	<polygon class="st64" points="332.7,84.6 328.6,82.3 324.6,82.3 324.6,86.9 328.6,86.9 	"/>
	<polygon class="st64" points="306,77.5 301.9,75.2 297.9,75.2 297.9,79.8 301.9,79.8 	"/>
	<text transform="matrix(1 0 0 1 345.2172 57.3881)" class="st38 st39 st65">1</text>
	<text transform="matrix(1 0 0 1 345.2172 64.5677)" class="st38 st39 st65">2</text>
	<text transform="matrix(1 0 0 1 345.2172 71.7338)" class="st38 st39 st65">3</text>
	<text transform="matrix(1 0 0 1 345.2172 78.9388)" class="st38 st39 st65">4</text>
	<text transform="matrix(1 0 0 1 345.2172 86.139)" class="st38 st39 st65">5</text>
	<polygon class="st64" points="311.3,84.6 307.2,82.3 303.2,82.3 303.2,86.9 307.2,86.9 	"/>
	<path class="st66" d="M275.3,90.1h74c6.6,0,12-5.4,12-12V62.4c0-6.6-5.4-12-12-12h-74c-6.6,0-12,5.4-12,12v15.8
		C263.3,84.8,268.6,90.1,275.3,90.1z"/>
	<polygon class="st67" points="319.5,44.9 313.8,41.7 308.2,41.7 308.2,48.1 313.8,48.1 	"/>
	<path class="st68" d="M362.2,81.4"/>
</g>
<line class="st49" x1="340.7" y1="203.6" x2="265.1" y2="203.6"/>
<polyline class="st50" points="352.3,206.3 341,206.3 341,201 352.3,201 "/>
<polygon class="st52" points="327.9,203.6 323.3,201 318.7,201 318.7,206.3 323.3,206.3 "/>
<polygon class="st52" points="301.4,203.6 296.7,201 292.2,201 292.2,206.3 296.7,206.3 "/>
<text transform="matrix(1 0 0 1 345.9264 205.3004)" class="st38 st39 st54">4</text>
<text transform="matrix(1 0 0 1 204.8166 183.0188)" class="st39 st58">?</text>
<text transform="matrix(1 0 0 1 186.7549 184.2406)" class="st39 st58">?</text>
<g>
	<line class="st59" x1="322" y1="201" x2="319.5" y2="189.4"/>
	<g>
		<line class="st49" x1="322" y1="201" x2="320.2" y2="193"/>
		<g>
			<polygon class="st60" points="321.6,193.6 319.5,189.4 319.2,194.1 			"/>
		</g>
	</g>
</g>
<g>
	<line class="st59" x1="297.5" y1="201.5" x2="314.6" y2="190.2"/>
	<g>
		<line class="st49" x1="297.5" y1="201.5" x2="311.5" y2="192.3"/>
		<g>
			<polygon class="st60" points="311.4,193.8 314.6,190.2 310.1,191.7 			"/>
		</g>
	</g>
</g>
<text transform="matrix(1 0 0 1 321.9599 194.9341)" class="st39 st58">?</text>
<g>
	<rect x="-52.3" y="252.2" class="st69" width="5.2" height="5.2"/>
	<rect x="-46.3" y="258.2" class="st69" width="5.2" height="5.2"/>
	<rect x="-46.3" y="252.2" class="st70" width="5.2" height="5.2"/>
	<rect x="-40.3" y="252.2" class="st71" width="5.2" height="5.2"/>
	<rect x="-40.3" y="258.2" class="st72" width="5.2" height="5.2"/>
	<rect x="-40.3" y="264.2" class="st69" width="5.2" height="5.2"/>
	<rect x="-34.1" y="264.4" class="st73" width="5.2" height="5.2"/>
	<rect x="-34.1" y="258.2" class="st73" width="5.2" height="5.2"/>
	<rect x="-34.1" y="252.2" class="st73" width="5.2" height="5.2"/>
	<rect x="-34.1" y="270.7" class="st74" width="5.2" height="5.2"/>
	<rect x="-34.5" y="251.7" class="st75" width="6" height="18.3"/>
	<text transform="matrix(1 0 0 1 -44.8861 251.431)" class="st39" style="font-size:4.2776px;">1</text>
	<text transform="matrix(1 0 0 1 -51.1635 251.4308)" class="st39" style="font-size:4.2776px;">2</text>
	<text transform="matrix(1 0 0 1 -38.8954 251.4266)" class="st39" style="font-size:4.2776px;">3</text>
	<text transform="matrix(1 0 0 1 -33.4181 250.1225)" class="st38 st39" style="font-size:4.2776px;">4</text>
</g>
<text transform="matrix(6.123234e-17 1 -1 6.123234e-17 -24.9688 222.8257)" class="st39" style="font-size:5.8443px;">Pairwise  alignment  scores</text>
<g class="st5">
	<g>
		<line class="st10" x1="126.9" y1="181.4" x2="135.4" y2="181.4"/>
		<g>
			<polygon class="st11" points="133.9,183.6 142.1,181.4 133.9,179.3 			"/>
		</g>
	</g>
</g>
<g>
	<line class="st49" x1="339.5" y1="241" x2="264" y2="241"/>
	<polyline class="st50" points="351.2,243.6 339.9,243.6 339.9,238.4 351.2,238.4 	"/>
	<line class="st49" x1="339.5" y1="249.1" x2="267.9" y2="249.1"/>
	<polyline class="st50" points="351,251.8 339.9,251.8 339.9,246.5 351,246.5 	"/>
	<line class="st49" x1="339.5" y1="257.3" x2="264.9" y2="257.3"/>
	<polyline class="st50" points="351,259.9 339.9,259.9 339.9,254.7 351,254.7 	"/>
	<line class="st49" x1="339.3" y1="265.4" x2="263.8" y2="265.4"/>
	<polyline class="st50" points="351,268 339.7,268 339.7,262.8 351,262.8 	"/>
	<line class="st49" x1="339.3" y1="273.5" x2="267.7" y2="273.5"/>
	<polyline class="st50" points="350.8,276.2 339.7,276.2 339.7,270.9 350.8,270.9 	"/>
	<polygon class="st51" points="287.8,241 283.1,238.4 269.4,238.4 269.4,243.6 283.1,243.6 	"/>
	<polygon class="st51" points="290.9,249.1 286.2,246.5 272.4,246.5 272.4,251.8 286.2,251.8 	"/>
	<polygon class="st51" points="287.8,257.3 283.1,254.7 269.4,254.7 269.4,259.9 283.1,259.9 	"/>
	<polygon class="st52" points="320.8,241 316.1,238.4 311.6,238.4 311.6,243.6 316.1,243.6 	"/>
	<polygon class="st56" points="335.8,241 331.1,238.4 326.6,238.4 326.6,243.6 331.1,243.6 	"/>
	<polygon class="st56" points="324.8,249.1 320.1,246.5 315.6,246.5 315.6,251.8 320.1,251.8 	"/>
	<polygon class="st56" points="320.8,257.3 316.1,254.7 311.6,254.7 311.6,259.9 316.1,259.9 	"/>
	<polygon class="st56" points="326.6,265.4 321.9,262.8 317.4,262.8 317.4,268 321.9,268 	"/>
	<polygon class="st56" points="330.4,273.5 325.7,270.9 321.2,270.9 321.2,276.1 325.7,276.1 	"/>
	<polygon class="st52" points="300.1,265.4 295.4,262.8 290.9,262.8 290.9,268 295.4,268 	"/>
	<text transform="matrix(1 0 0 1 344.579 242.6217)" class="st38 st39 st54">1</text>
	<text transform="matrix(1 0 0 1 344.579 250.7662)" class="st38 st39 st54">2</text>
	<text transform="matrix(1 0 0 1 344.579 258.8951)" class="st38 st39 st54">3</text>
	<text transform="matrix(1 0 0 1 344.579 267.068)" class="st38 st39 st54">4</text>
	<text transform="matrix(1 0 0 1 344.579 275.236)" class="st38 st39 st54">5</text>
	<polygon class="st52" points="306.1,273.5 301.5,270.9 296.9,270.9 296.9,276.1 301.5,276.1 	"/>
	<path class="st55" d="M265.4,279.8h87.1c7.6,0,13.8-6.2,13.8-13.8v-17.4c0-7.6-6.2-13.8-13.8-13.8h-87.1c-7.6,0-13.8,6.2-13.8,13.8
		V266C251.6,273.6,257.8,279.8,265.4,279.8z"/>
	<line class="st76" x1="328.6" y1="243.6" x2="319.4" y2="246.5"/>
	<line class="st76" x1="317.4" y1="251.8" x2="316.1" y2="254.7"/>
	<line class="st76" x1="317.8" y1="258.9" x2="320.2" y2="262.8"/>
	<line class="st76" x1="323.6" y1="267.1" x2="324.8" y2="270.9"/>
</g>
<g class="st5">
	<g>
		<line class="st10" x1="232.8" y1="182.7" x2="241.3" y2="182.7"/>
		<g>
			<polygon class="st11" points="239.9,184.9 248,182.7 239.9,180.5 			"/>
		</g>
	</g>
</g>
<rect x="4.5" y="226.2" class="st1" width="234" height="40.8"/>
<text transform="matrix(1 0 0 1 4.4804 233.2247)"><tspan x="0" y="0" class="st39 st48">After iteration through all sequences, a built set will be </tspan><tspan x="0" y="11.4" class="st39 st48">saved if it’s found in fraction of sequences which is more</tspan><tspan x="230.2" y="11.4" class="st39 st48"> </tspan><tspan x="0" y="22.8" class="st39 st48">that the set cutoff (e.g. 0.6).  </tspan></text>
<g class="st5">
	<g>
		<line class="st10" x1="266.1" y1="211.6" x2="266.1" y2="220.1"/>
		<g>
			<polygon class="st11" points="263.9,218.7 266.1,226.8 268.3,218.7 			"/>
		</g>
	</g>
</g>
<text transform="matrix(1 0 0 1 279.6928 231.4012)" class="st57 st39 st58">5/6  -&gt; Save</text>
<rect x="4.5" y="289.2" class="st1" width="361.9" height="47.9"/>
<text transform="matrix(1 0 0 1 4.4804 296.1564)"><tspan x="0" y="0" class="st39 st48">3. Initiate new set building, but only from an ORF and the corresponding sequence if this </tspan><tspan x="0" y="11.4" class="st39 st48">ORF is not already found conserved.</tspan><tspan x="0" y="34.2" class="st39 st48">4. Repeat for other length clusters.</tspan></text>
<rect x="4.5" y="4.9" class="st1" width="370.5" height="14.6"/>
<text transform="matrix(0.9945 0 0 1 4.4805 11.9004)"><tspan x="0" y="0" class="st39 st48">1. Cluster annotated ORFs with the corresponding upstream sequences based on length</tspan><tspan x="361.5" y="0" class="st77 st48">.</tspan></text>
<g>
	<line class="st8" x1="344.5" y1="313.9" x2="261" y2="313.9"/>
	<polyline class="st9" points="357.4,316.8 344.9,316.8 344.9,311 357.4,311 	"/>
	<line class="st8" x1="344.5" y1="322.9" x2="265.3" y2="322.9"/>
	<polyline class="st9" points="357.2,325.7 344.9,325.7 344.9,320 357.2,320 	"/>
	<line class="st8" x1="344.5" y1="331.9" x2="262.1" y2="331.9"/>
	<polyline class="st9" points="357.2,334.7 344.9,334.7 344.9,329 357.2,329 	"/>
	<line class="st8" x1="344.3" y1="340.8" x2="260.8" y2="340.8"/>
	<polyline class="st9" points="357.2,343.7 344.7,343.7 344.7,338 357.2,338 	"/>
	<line class="st8" x1="344.3" y1="349.8" x2="265.1" y2="349.8"/>
	<polyline class="st9" points="357,352.7 344.7,352.7 344.7,346.9 357,346.9 	"/>
	<line class="st8" x1="344.3" y1="358.8" x2="261.8" y2="358.8"/>
	<polyline class="st9" points="357,361.7 344.7,361.7 344.7,355.9 357,355.9 	"/>
	<polygon class="st78" points="287.3,313.9 282.1,311 266.9,311 266.9,316.8 282.1,316.8 	"/>
	<polygon class="st78" points="290.7,322.9 285.6,320 270.4,320 270.4,325.7 285.6,325.7 	"/>
	<polygon class="st78" points="287.3,331.9 282.1,329 266.9,329 266.9,334.7 282.1,334.7 	"/>
	<polygon class="st78" points="285.7,358.8 280.5,355.9 265.3,355.9 265.3,361.7 280.5,361.7 	"/>
	<polygon class="st79" points="323.8,313.9 318.7,311 313.6,311 313.6,316.8 318.7,316.8 	"/>
	<polygon class="st56" points="340.4,313.9 335.2,311 330.2,311 330.2,316.8 335.2,316.8 	"/>
	<polygon class="st56" points="328.2,322.9 323.1,320 318.1,320 318.1,325.7 323.1,325.7 	"/>
	<polygon class="st79" points="265.1,331.9 259.9,329 254.9,329 254.9,334.7 259.9,334.7 	"/>
	<polygon class="st56" points="323.8,331.9 318.7,329 313.6,329 313.6,334.7 318.7,334.7 	"/>
	<polygon class="st56" points="330.2,340.8 325.1,338 320,338 320,343.7 325.1,343.7 	"/>
	<polygon class="st56" points="334.4,349.8 329.3,346.9 324.3,346.9 324.3,352.7 329.3,352.7 	"/>
	<polygon class="st79" points="300.9,340.8 295.7,338 290.7,338 290.7,343.7 295.7,343.7 	"/>
	<text transform="matrix(1 0 0 1 350.0881 315.656)" class="st38 st39 st40">1</text>
	<text transform="matrix(1 0 0 1 350.0879 324.6575)" class="st38 st39 st40">2</text>
	<text transform="matrix(1 0 0 1 350.0879 333.6411)" class="st38 st39 st40">3</text>
	<text transform="matrix(1 0 0 1 350.0879 342.6732)" class="st38 st39 st40">4</text>
	<text transform="matrix(1 0 0 1 350.0881 351.7006)" class="st38 st39 st40">5</text>
	<text transform="matrix(1 0 0 1 350.0879 360.7425)" class="st38 st39 st40">6</text>
	<polygon class="st79" points="307.6,349.8 302.5,346.9 297.4,346.9 297.4,352.7 302.5,352.7 	"/>
	<polygon class="st79" points="315.1,322.9 309.9,320 294.7,320 294.7,325.7 309.9,325.7 	"/>
	<line class="st78" x1="331.2" y1="316.8" x2="323.1" y2="320"/>
	<line class="st78" x1="320.9" y1="325.7" x2="318.7" y2="329"/>
	<line class="st78" x1="320" y1="334" x2="323.8" y2="338"/>
	<line class="st78" x1="325.1" y1="343.7" x2="329.3" y2="346.9"/>
	<line class="st78" x1="277.4" y1="316.8" x2="277.9" y2="320"/>
	<line class="st78" x1="279.2" y1="325.7" x2="277.1" y2="329"/>
	<line class="st78" x1="276.3" y1="334.7" x2="274.7" y2="355.9"/>
</g>
<text transform="matrix(1 0 0 1 300.129 194.8742)" class="st39 st58">?</text>
</svg>
