<?xml version="1.0" encoding="UTF-8"?><svg id="Layer_1" xmlns="http://www.w3.org/2000/svg" viewBox="0 0 357.26 178.69"><defs><style>.cls-1{fill:#6d6e71;font-family:Laca-SemiBold, Laca;font-size:40px;}.cls-2{stroke-linecap:square;}.cls-2,.cls-3,.cls-4,.cls-5{stroke-linejoin:round;}.cls-2,.cls-3,.cls-4,.cls-5,.cls-6{stroke:#6d6e71;}.cls-2,.cls-3,.cls-6{fill:none;stroke-width:8px;}.cls-3,.cls-4,.cls-5{stroke-linecap:round;}.cls-4{fill:#9fdcf3;}.cls-4,.cls-5{stroke-width:6px;}.cls-5{fill:#feeb7c;}.cls-6{stroke-miterlimit:11.34;}</style></defs><g><path class="cls-6" d="M156.12,139.4c-19.5,9.6-36.03,18.54-58.43,21.76-22.1,3.18-41.09,.87-92.93,1.38"/><path class="cls-2" d="M237.8,33.35c-.02-.06-.04,.24-.06,.18-5.34-17.02-21.17-29.53-39.86-29.53-10.68,0-20.44,3.76-27.83,10.4-2.17,1.74-9.53,7.92-13.82,15.34-4.71-7.78-13.82-14.9-14.4-15.34,0,0-.02-.01-.02-.02h0c-7.35-6.47-16.97-10.39-27.51-10.39-18.69,0-34.52,12.33-39.86,29.35-.02,.06-.04,.11-.06,.18-17.33,51.23,81.73,105.87,81.73,105.87,0,0,99.01-54.82,81.68-106.05Zm-81.7-3.42"/><path class="cls-3" d="M156.09,139.4c19.5,9.6,36.03,18.54,58.43,21.76s83.76,.87,135.6,1.38"/><polygon class="cls-5" points="18.05 175.69 69.35 175.69 91.98 162.88 69.35 150.06 18.05 150.06 18.05 175.69"/><polygon class="cls-4" points="221.34 175.69 331.63 175.69 354.26 162.88 331.63 150.06 221.34 150.06 221.34 175.69"/></g><text class="cls-1" transform="translate(0 139.88)"><tspan x="0" y="0">uORF</tspan></text><text class="cls-1" transform="translate(162.8 53.64)"><tspan x="0" y="0">4U</tspan></text></svg>