<?xml version="1.0" encoding="UTF-8"?><svg id="Layer_1" xmlns="http://www.w3.org/2000/svg" xmlns:xlink="http://www.w3.org/1999/xlink" viewBox="0 0 270.83 507.25"><defs><style>.cls-1,.cls-2,.cls-3,.cls-4,.cls-5,.cls-6,.cls-7,.cls-8,.cls-9{fill:none;}.cls-10{fill:#3d3d3d;font-family:Lato-Regular, Lato;font-size:5.69px;}.cls-11{fill:#9ee19b;opacity:.03;}.cls-11,.cls-12{fill-rule:evenodd;}.cls-13{clip-path:url(#clippath);}.cls-2{stroke-width:.7px;}.cls-2,.cls-3,.cls-5,.cls-7,.cls-8,.cls-9{stroke-miterlimit:10;}.cls-2,.cls-4,.cls-6{stroke:#000;}.cls-2,.cls-5,.cls-6{stroke-linecap:square;}.cls-3{opacity:.8;stroke:#489143;}.cls-3,.cls-6,.cls-8,.cls-9{stroke-width:.5px;}.cls-14{fill:#f26c6e;}.cls-15{fill:#fff;}.cls-16{fill:#f2be3c;}.cls-17{fill:#e78ac3;}.cls-18{fill:#74ce98;}.cls-19{fill:#769dcc;}.cls-4{stroke-width:.8px;}.cls-4,.cls-6{stroke-linejoin:round;}.cls-5{stroke:#3d3d3d;stroke-width:.3px;}.cls-20{clip-path:url(#clippath-1);}.cls-21{clip-path:url(#clippath-4);}.cls-22{clip-path:url(#clippath-3);}.cls-23{clip-path:url(#clippath-2);}.cls-24{clip-path:url(#clippath-7);}.cls-25{clip-path:url(#clippath-8);}.cls-26{clip-path:url(#clippath-6);}.cls-27{clip-path:url(#clippath-5);}.cls-28{clip-path:url(#clippath-9);}.cls-29{clip-path:url(#clippath-10);}.cls-30{clip-path:url(#clippath-11);}.cls-12{fill:#ee8fb1;}.cls-12,.cls-7{opacity:.6;}.cls-7{stroke:#9e9e9e;}.cls-31{fill:#7c7c7c;font-family:MyriadPro-Regular, 'Myriad Pro';font-size:14px;}.cls-8{stroke:#cecece;}.cls-9{stroke:#4e4e4e;}</style><clipPath id="clippath"><rect class="cls-1" x="10.35" y="1.67" width="258.59" height="66.43"/></clipPath><clipPath id="clippath-1"><rect class="cls-1" x="10.35" y="1.67" width="258.59" height="66.43"/></clipPath><clipPath id="clippath-2"><rect class="cls-1" x="10.35" y="1.67" width="258.59" height="66.43"/></clipPath><clipPath id="clippath-3"><rect class="cls-1" x="10.35" y="1.67" width="258.59" height="66.43"/></clipPath><clipPath id="clippath-4"><rect class="cls-1" x="10.35" y="1.67" width="258.59" height="66.43"/></clipPath><clipPath id="clippath-5"><rect class="cls-1" x="10.35" y="1.67" width="258.59" height="66.43"/></clipPath><clipPath id="clippath-6"><rect class="cls-1" x="10.35" y="1.67" width="258.59" height="66.43"/></clipPath><clipPath id="clippath-7"><rect class="cls-1" x="10.35" y="1.67" width="258.59" height="66.43"/></clipPath><clipPath id="clippath-8"><rect class="cls-1" x="10.35" y="1.67" width="258.59" height="66.43"/></clipPath><clipPath id="clippath-9"><rect class="cls-1" x="10.35" y="1.67" width="258.59" height="66.43"/></clipPath><clipPath id="clippath-10"><rect class="cls-1" x="10.35" y="1.67" width="258.59" height="66.43"/></clipPath><clipPath id="clippath-11"><rect class="cls-1" x="10.35" y="1.67" width="258.59" height="66.43"/></clipPath></defs><g><rect class="cls-15" x="10.35" y="1.67" width="258.59" height="66.43"/><g class="cls-13"><line class="cls-6" x1="10.35" y1="68.1" x2="268.94" y2="68.1"/></g><g class="cls-20"><polygon class="cls-19" points="10.35 1.67 34.91 1.67 51.95 37.22 69.11 1.67 93.62 1.67 93.62 68.1 75.38 68.1 75.38 19.51 58.13 55.33 45.89 55.33 28.64 19.51 28.64 68.1 10.35 68.1 10.35 1.67"/></g><g class="cls-23"><polygon class="cls-19" points="98.01 67.8 128.22 67.8 128.22 68.04 181.28 68.04 181.28 68.1 98.01 68.1 98.01 67.8"/></g><g class="cls-22"><polygon class="cls-16" points="98.01 67.21 119.95 67.21 119.95 67.43 151.58 67.21 177.06 67.21 136.08 67.49 181.28 67.8 153.81 67.8 119.95 67.57 119.95 67.8 98.01 67.8 98.01 67.21"/></g><g class="cls-21"><path class="cls-14" d="M98.01,64.7h24.05c13.44,0,23.45,.03,30.03,.08,6.58,.05,12.22,.15,16.92,.28,4.15,.11,7.23,.24,9.24,.39,2.02,.15,3.04,.31,3.04,.5s-1.01,.36-3.04,.51c-2.01,.15-5.09,.28-9.24,.39-4.74,.13-10.43,.22-17.07,.28-6.64,.05-16.6,.08-29.88,.08h-24.05v-2.51Zm22.82,.49v1.53h8.18c9.32,0,16.44-.07,21.36-.2,4.93-.13,7.4-.32,7.4-.57s-2.45-.44-7.36-.57c-4.89-.13-12.03-.2-21.4-.2h-8.18Z"/></g><g class="cls-27"><rect class="cls-19" x="124.53" y="1.67" width="30.22" height="63.03"/></g><g class="cls-26"><polygon class="cls-17" points="185.66 67.95 208.68 67.95 227.28 68 245.86 67.95 268.94 67.95 237.83 68.04 237.83 68.1 216.78 68.1 216.78 68.04 185.66 67.95"/></g><g class="cls-24"><rect class="cls-19" x="212.19" y="67.8" width="30.22" height=".15"/></g><g class="cls-25"><path class="cls-14" d="M185.66,67.51h24.05c13.44,0,23.45,0,30.03,0,6.58,0,12.22,.02,16.92,.03,4.15,.01,7.23,.03,9.24,.05,2.02,.02,3.04,.04,3.04,.06s-1.01,.04-3.04,.06c-2.01,.02-5.09,.03-9.24,.05-4.74,.02-10.43,.03-17.07,.03-6.64,0-16.6,0-29.88,0h-24.05v-.3Zm22.82,.06v.18h8.18c9.32,0,16.44,0,21.36-.02,4.93-.02,7.4-.04,7.4-.07s-2.45-.05-7.36-.07c-4.89-.02-12.03-.02-21.4-.02h-8.18Z"/></g><g class="cls-28"><polygon class="cls-16" points="185.66 66.77 209.62 66.77 209.62 67.05 244.97 67.05 244.97 66.77 268.94 66.77 268.94 67.51 244.97 67.51 244.97 67.2 209.62 67.2 209.62 67.51 185.66 67.51 185.66 66.77"/></g><g class="cls-29"><polygon class="cls-16" points="185.66 65.89 207.61 65.89 207.61 66.21 239.24 65.89 264.72 65.89 223.73 66.3 268.94 66.77 241.46 66.77 207.61 66.42 207.61 66.77 185.66 66.77 185.66 65.89"/></g><g class="cls-30"><polygon class="cls-18" points="185.66 1.67 212.41 1.67 246.21 45.71 246.21 1.67 268.94 1.67 268.94 65.89 242.17 65.89 208.37 21.85 208.37 65.89 185.66 65.89 185.66 1.67"/></g><line class="cls-4" x1="10.35" y1="68.1" x2="8.73" y2="68.1"/><path d="M5.63,66.36c.38,0,.66,.16,.87,.46,.2,.31,.3,.76,.3,1.35s-.1,1.04-.3,1.35c-.2,.31-.49,.46-.87,.46s-.67-.15-.87-.46-.3-.76-.3-1.35,.1-1.04,.3-1.35c.2-.31,.49-.46,.87-.46Zm0,.37c-.24,0-.41,.12-.53,.36s-.18,.6-.18,1.08,.06,.84,.18,1.08,.3,.36,.53,.36,.41-.12,.53-.36c.12-.24,.18-.6,.18-1.08s-.06-.84-.18-1.08c-.12-.24-.3-.36-.53-.36Z"/><line class="cls-4" x1="10.35" y1="1.67" x2="8.73" y2="1.67"/><polygon points="4.73 3.1 5.48 3.1 5.48 .43 4.67 .6 4.67 .17 5.47 0 5.93 0 5.93 3.1 6.68 3.1 6.68 3.49 4.73 3.49 4.73 3.1"/><line class="cls-2" x1="10.35" y1="68.1" x2="10.35" y2="1.67"/></g><g><line class="cls-8" x1="203.06" y1="106" x2="253.77" y2="106"/><rect class="cls-15" x="204.58" y="102.83" width="6.59" height="6.34"/><rect class="cls-15" x="205.77" y="102.83" width="9.13" height="6.34"/><rect class="cls-15" x="206.44" y="102.83" width="9.13" height="6.34"/><rect class="cls-15" x="218.27" y="102.83" width="2.54" height="6.34"/><rect class="cls-15" x="220.64" y="102.83" width="1.52" height="6.34"/><text class="cls-10" transform="translate(41.94 108.07)"><tspan x="0" y="0">Domibacillus indicus [MSL 225.1.2]|NZ_JAMBOO010000020.1</tspan></text><g><polyline class="cls-11" points="270.68 109.17 253.77 109.17 253.77 102.83 270.68 102.83"/><polyline class="cls-3" points="270.68 109.17 253.77 109.17 253.77 102.83 270.68 102.83"/></g><polyline class="cls-8" points="204.58 106 204.58 102.83 204.84 102.83 211.18 106 204.84 109.17 204.58 109.17 204.58 106"/><polyline class="cls-8" points="205.77 106 205.77 102.83 208.55 102.83 214.89 106 208.55 109.17 205.77 109.17 205.77 106"/><polyline class="cls-8" points="206.44 106 206.44 102.83 209.23 102.83 215.57 106 209.23 109.17 206.44 109.17 206.44 106"/><polyline class="cls-8" points="218.27 106 218.27 102.83 220.81 106 218.27 109.17 218.27 106"/><g><polyline class="cls-12" points="220.64 106 220.64 102.83 222.16 106 220.64 109.17 220.64 106"/><polyline class="cls-9" points="220.64 106 220.64 102.83 222.16 106 220.64 109.17 220.64 106"/></g><line class="cls-8" x1="203.06" y1="113.61" x2="253.77" y2="113.61"/><rect class="cls-15" x="204.58" y="110.44" width="5.58" height="6.34"/><rect class="cls-15" x="205.77" y="110.44" width="8.11" height="6.34"/><rect class="cls-15" x="206.44" y="110.44" width="9.13" height="6.34"/><rect class="cls-15" x="218.27" y="110.44" width="2.54" height="6.34"/><rect class="cls-15" x="220.64" y="110.44" width="1.52" height="6.34"/><text class="cls-10" transform="translate(61.84 115.67)"><tspan x="0" y="0">Domibacillus sp. [PGB-M46]|NZ_JAKGCR010000025.1</tspan></text><g><polyline class="cls-11" points="270.68 116.78 253.77 116.78 253.77 110.44 270.68 110.44"/><polyline class="cls-3" points="270.68 116.78 253.77 116.78 253.77 110.44 270.68 110.44"/></g><polyline class="cls-8" points="204.58 113.61 204.58 110.44 210.16 113.61 204.58 116.78 204.58 113.61"/><polyline class="cls-8" points="205.77 113.61 205.77 110.44 207.54 110.44 213.88 113.61 207.54 116.78 205.77 116.78 205.77 113.61"/><polyline class="cls-8" points="206.44 113.61 206.44 110.44 209.23 110.44 215.57 113.61 209.23 116.78 206.44 116.78 206.44 113.61"/><polyline class="cls-8" points="218.27 113.61 218.27 110.44 220.81 113.61 218.27 116.78 218.27 113.61"/><g><polyline class="cls-12" points="220.64 113.61 220.64 110.44 222.16 113.61 220.64 116.78 220.64 113.61"/><polyline class="cls-9" points="220.64 113.61 220.64 110.44 222.16 113.61 220.64 116.78 220.64 113.61"/></g><line class="cls-8" x1="203.06" y1="121.22" x2="253.77" y2="121.22"/><rect class="cls-15" x="220.13" y="118.05" width="1.52" height="6.34"/><text class="cls-10" transform="translate(40.18 123.28)"><tspan x="0" y="0">Paenisporosarcina antarctica [CGMCC 1.6503]|NZ_CP038015.1</tspan></text><g><polyline class="cls-11" points="270.68 124.39 253.77 124.39 253.77 118.05 270.68 118.05"/><polyline class="cls-3" points="270.68 124.39 253.77 124.39 253.77 118.05 270.68 118.05"/></g><g><polyline class="cls-12" points="220.13 121.22 220.13 118.05 221.66 121.22 220.13 124.39 220.13 121.22"/><polyline class="cls-9" points="220.13 121.22 220.13 118.05 221.66 121.22 220.13 124.39 220.13 121.22"/></g><line class="cls-8" x1="203.06" y1="128.82" x2="253.77" y2="128.82"/><rect class="cls-15" x="218.11" y="125.65" width="7.1" height="6.34"/><rect class="cls-15" x="218.61" y="125.65" width="6.59" height="6.34"/><rect class="cls-15" x="219.29" y="125.65" width="2.03" height="6.34"/><rect class="cls-15" x="220.47" y="125.65" width="1.52" height="6.34"/><text class="cls-10" transform="translate(32.42 130.88)"><tspan x="0" y="0">Peribacillus alkalitolerans [KCTC 33631]|NZ_JAAGVZ010000036.1</tspan></text><g><polyline class="cls-11" points="270.68 131.99 253.77 131.99 253.77 125.65 270.68 125.65"/><polyline class="cls-3" points="270.68 131.99 253.77 131.99 253.77 125.65 270.68 125.65"/></g><polyline class="cls-8" points="218.11 128.82 218.11 125.65 218.87 125.65 225.21 128.82 218.87 131.99 218.11 131.99 218.11 128.82"/><polyline class="cls-8" points="218.61 128.82 218.61 125.65 218.87 125.65 225.21 128.82 218.87 131.99 218.61 131.99 218.61 128.82"/><polyline class="cls-8" points="219.29 128.82 219.29 125.65 221.32 128.82 219.29 131.99 219.29 128.82"/><g><polyline class="cls-12" points="220.47 128.82 220.47 125.65 221.99 128.82 220.47 131.99 220.47 128.82"/><polyline class="cls-9" points="220.47 128.82 220.47 125.65 221.99 128.82 220.47 131.99 220.47 128.82"/></g><line class="cls-8" x1="203.06" y1="136.43" x2="253.77" y2="136.43"/><rect class="cls-15" x="217.94" y="133.26" width="2.54" height="6.34"/><rect class="cls-15" x="218.44" y="133.26" width="2.03" height="6.34"/><rect class="cls-15" x="220.3" y="133.26" width="1.52" height="6.34"/><text class="cls-10" transform="translate(97.14 138.49)"><tspan x="0" y="0">Peribacillus asahii [CK1]|NZ_CP085714.1</tspan></text><g><polyline class="cls-11" points="270.68 139.6 253.77 139.6 253.77 133.26 270.68 133.26"/><polyline class="cls-3" points="270.68 139.6 253.77 139.6 253.77 133.26 270.68 133.26"/></g><polyline class="cls-8" points="217.94 136.43 217.94 133.26 220.47 136.43 217.94 139.6 217.94 136.43"/><polyline class="cls-8" points="218.44 136.43 218.44 133.26 220.47 136.43 218.44 139.6 218.44 136.43"/><g><polyline class="cls-12" points="220.3 136.43 220.3 133.26 221.82 136.43 220.3 139.6 220.3 136.43"/><polyline class="cls-9" points="220.3 136.43 220.3 133.26 221.82 136.43 220.3 139.6 220.3 136.43"/></g><line class="cls-8" x1="203.06" y1="144.04" x2="253.77" y2="144.04"/><rect class="cls-15" x="218.11" y="140.87" width="2.54" height="6.34"/><rect class="cls-15" x="218.61" y="140.87" width="2.03" height="6.34"/><rect class="cls-15" x="220.47" y="140.87" width="1.52" height="6.34"/><text class="cls-10" transform="translate(92.41 146.1)"><tspan x="0" y="0">Peribacillus asahii [CMF4]|NZ_CP085717.1</tspan></text><g><polyline class="cls-11" points="270.68 147.21 253.77 147.21 253.77 140.87 270.68 140.87"/><polyline class="cls-3" points="270.68 147.21 253.77 147.21 253.77 140.87 270.68 140.87"/></g><polyline class="cls-8" points="218.11 144.04 218.11 140.87 220.64 144.04 218.11 147.21 218.11 144.04"/><polyline class="cls-8" points="218.61 144.04 218.61 140.87 220.64 144.04 218.61 147.21 218.61 144.04"/><g><polyline class="cls-12" points="220.47 144.04 220.47 140.87 221.99 144.04 220.47 147.21 220.47 144.04"/><polyline class="cls-9" points="220.47 144.04 220.47 140.87 221.99 144.04 220.47 147.21 220.47 144.04"/></g><line class="cls-8" x1="203.06" y1="151.64" x2="253.77" y2="151.64"/><rect class="cls-15" x="217.77" y="148.47" width="2.54" height="6.34"/><rect class="cls-15" x="218.27" y="148.47" width="2.03" height="6.34"/><rect class="cls-15" x="220.13" y="148.47" width="1.52" height="6.34"/><text class="cls-10" transform="translate(97.72 153.71)"><tspan x="0" y="0">Peribacillus asahii [KF4]|NZ_CP085720.1</tspan></text><g><polyline class="cls-11" points="270.68 154.81 253.77 154.81 253.77 148.47 270.68 148.47"/><polyline class="cls-3" points="270.68 154.81 253.77 154.81 253.77 148.47 270.68 148.47"/></g><polyline class="cls-8" points="217.77 151.64 217.77 148.47 220.3 151.64 217.77 154.81 217.77 151.64"/><polyline class="cls-8" points="218.27 151.64 218.27 148.47 220.3 151.64 218.27 154.81 218.27 151.64"/><g><polyline class="cls-12" points="220.13 151.64 220.13 148.47 221.66 151.64 220.13 154.81 220.13 151.64"/><polyline class="cls-9" points="220.13 151.64 220.13 148.47 221.66 151.64 220.13 154.81 220.13 151.64"/></g><line class="cls-8" x1="203.06" y1="159.25" x2="253.77" y2="159.25"/><rect class="cls-15" x="218.27" y="156.08" width="2.54" height="6.34"/><rect class="cls-15" x="218.78" y="156.08" width="2.03" height="6.34"/><rect class="cls-15" x="220.64" y="156.08" width="1.52" height="6.34"/><text class="cls-10" transform="translate(72.22 161.31)"><tspan x="0" y="0">Peribacillus asahii [MA001]|NZ_QWVS01000041.1</tspan></text><g><polyline class="cls-11" points="270.68 162.42 253.77 162.42 253.77 156.08 270.68 156.08"/><polyline class="cls-3" points="270.68 162.42 253.77 162.42 253.77 156.08 270.68 156.08"/></g><polyline class="cls-8" points="218.27 159.25 218.27 156.08 220.81 159.25 218.27 162.42 218.27 159.25"/><polyline class="cls-8" points="218.78 159.25 218.78 156.08 220.81 159.25 218.78 162.42 218.78 159.25"/><g><polyline class="cls-12" points="220.64 159.25 220.64 156.08 222.16 159.25 220.64 162.42 220.64 159.25"/><polyline class="cls-9" points="220.64 159.25 220.64 156.08 222.16 159.25 220.64 162.42 220.64 159.25"/></g><line class="cls-8" x1="203.06" y1="166.86" x2="253.77" y2="166.86"/><rect class="cls-15" x="217.94" y="163.69" width="2.54" height="6.34"/><rect class="cls-15" x="218.44" y="163.69" width="2.03" height="6.34"/><rect class="cls-15" x="220.3" y="163.69" width="1.52" height="6.34"/><text class="cls-10" transform="translate(41.66 168.92)"><tspan x="0" y="0">Peribacillus frigoritolerans [2RO30]|NZ_JAOAQM010000001.1</tspan></text><g><polyline class="cls-11" points="270.68 170.03 253.77 170.03 253.77 163.69 270.68 163.69"/><polyline class="cls-3" points="270.68 170.03 253.77 170.03 253.77 163.69 270.68 163.69"/></g><polyline class="cls-8" points="217.94 166.86 217.94 163.69 220.47 166.86 217.94 170.03 217.94 166.86"/><polyline class="cls-8" points="218.44 166.86 218.44 163.69 220.47 166.86 218.44 170.03 218.44 166.86"/><g><polyline class="cls-12" points="220.3 166.86 220.3 163.69 221.82 166.86 220.3 170.03 220.3 166.86"/><polyline class="cls-9" points="220.3 166.86 220.3 163.69 221.82 166.86 220.3 170.03 220.3 166.86"/></g><line class="cls-8" x1="203.06" y1="174.46" x2="253.77" y2="174.46"/><rect class="cls-15" x="217.77" y="171.29" width="2.54" height="6.34"/><rect class="cls-15" x="218.27" y="171.29" width="2.03" height="6.34"/><rect class="cls-15" x="220.13" y="171.29" width="1.52" height="6.34"/><text class="cls-10" transform="translate(60.42 176.52)"><tspan x="0" y="0">Peribacillus frigoritolerans [3612]|NZ_VIVO01000008.1</tspan></text><g><polyline class="cls-11" points="270.68 177.63 253.77 177.63 253.77 171.29 270.68 171.29"/><polyline class="cls-3" points="270.68 177.63 253.77 177.63 253.77 171.29 270.68 171.29"/></g><polyline class="cls-8" points="217.77 174.46 217.77 171.29 220.3 174.46 217.77 177.63 217.77 174.46"/><polyline class="cls-8" points="218.27 174.46 218.27 171.29 220.3 174.46 218.27 177.63 218.27 174.46"/><g><polyline class="cls-12" points="220.13 174.46 220.13 171.29 221.66 174.46 220.13 177.63 220.13 174.46"/><polyline class="cls-9" points="220.13 174.46 220.13 171.29 221.66 174.46 220.13 177.63 220.13 174.46"/></g><line class="cls-8" x1="203.06" y1="182.07" x2="253.77" y2="182.07"/><rect class="cls-15" x="217.94" y="178.9" width="2.54" height="6.34"/><rect class="cls-15" x="218.44" y="178.9" width="2.03" height="6.34"/><rect class="cls-15" x="220.3" y="178.9" width="1.52" height="6.34"/><text class="cls-10" transform="translate(56.53 184.13)"><tspan x="0" y="0">Peribacillus frigoritolerans [44]|NZ_JADALX010000003.1</tspan></text><g><polyline class="cls-11" points="270.68 185.24 253.77 185.24 253.77 178.9 270.68 178.9"/><polyline class="cls-3" points="270.68 185.24 253.77 185.24 253.77 178.9 270.68 178.9"/></g><polyline class="cls-8" points="217.94 182.07 217.94 178.9 220.47 182.07 217.94 185.24 217.94 182.07"/><polyline class="cls-8" points="218.44 182.07 218.44 178.9 220.47 182.07 218.44 185.24 218.44 182.07"/><g><polyline class="cls-12" points="220.3 182.07 220.3 178.9 221.82 182.07 220.3 185.24 220.3 182.07"/><polyline class="cls-9" points="220.3 182.07 220.3 178.9 221.82 182.07 220.3 185.24 220.3 182.07"/></g><line class="cls-8" x1="203.06" y1="189.68" x2="253.77" y2="189.68"/><rect class="cls-15" x="217.94" y="186.51" width="2.54" height="6.34"/><rect class="cls-15" x="220.3" y="186.51" width="1.52" height="6.34"/><text class="cls-10" transform="translate(26.42 191.74)"><tspan x="0" y="0">Peribacillus frigoritolerans [A3E1WT_S3]|NZ_JAMBMM010000013.1</tspan></text><g><polyline class="cls-11" points="270.68 192.85 253.77 192.85 253.77 186.51 270.68 186.51"/><polyline class="cls-3" points="270.68 192.85 253.77 192.85 253.77 186.51 270.68 186.51"/></g><polyline class="cls-8" points="217.94 189.68 217.94 186.51 220.47 189.68 217.94 192.85 217.94 189.68"/><g><polyline class="cls-12" points="220.3 189.68 220.3 186.51 221.82 189.68 220.3 192.85 220.3 189.68"/><polyline class="cls-9" points="220.3 189.68 220.3 186.51 221.82 189.68 220.3 192.85 220.3 189.68"/></g><line class="cls-8" x1="203.06" y1="197.28" x2="253.77" y2="197.28"/><rect class="cls-15" x="217.77" y="194.12" width="2.54" height="6.34"/><rect class="cls-15" x="218.27" y="194.12" width="2.03" height="6.34"/><rect class="cls-15" x="220.13" y="194.12" width="1.52" height="6.34"/><text class="cls-10" transform="translate(40.08 199.35)"><tspan x="0" y="0">Peribacillus frigoritolerans [Aquil_B7]|NZ_JAKXDY010000008.1</tspan></text><g><polyline class="cls-11" points="270.68 200.45 253.77 200.45 253.77 194.11 270.68 194.11"/><polyline class="cls-3" points="270.68 200.45 253.77 200.45 253.77 194.11 270.68 194.11"/></g><polyline class="cls-8" points="217.77 197.28 217.77 194.11 220.3 197.28 217.77 200.45 217.77 197.28"/><polyline class="cls-8" points="218.27 197.28 218.27 194.11 220.3 197.28 218.27 200.45 218.27 197.28"/><g><polyline class="cls-12" points="220.13 197.28 220.13 194.11 221.66 197.28 220.13 200.45 220.13 197.28"/><polyline class="cls-9" points="220.13 197.28 220.13 194.11 221.66 197.28 220.13 200.45 220.13 197.28"/></g><line class="cls-8" x1="203.06" y1="204.89" x2="253.77" y2="204.89"/><rect class="cls-15" x="217.77" y="201.72" width="2.54" height="6.34"/><rect class="cls-15" x="218.27" y="201.72" width="2.03" height="6.34"/><rect class="cls-15" x="220.13" y="201.72" width="1.52" height="6.34"/><text class="cls-10" transform="translate(48.17 206.95)"><tspan x="0" y="0">Peribacillus frigoritolerans [BTU7]|NZ_JAKKDT010000031.1</tspan></text><g><polyline class="cls-11" points="270.68 208.06 253.77 208.06 253.77 201.72 270.68 201.72"/><polyline class="cls-3" points="270.68 208.06 253.77 208.06 253.77 201.72 270.68 201.72"/></g><polyline class="cls-8" points="217.77 204.89 217.77 201.72 220.3 204.89 217.77 208.06 217.77 204.89"/><polyline class="cls-8" points="218.27 204.89 218.27 201.72 220.3 204.89 218.27 208.06 218.27 204.89"/><g><polyline class="cls-12" points="220.13 204.89 220.13 201.72 221.66 204.89 220.13 208.06 220.13 204.89"/><polyline class="cls-9" points="220.13 204.89 220.13 201.72 221.66 204.89 220.13 208.06 220.13 204.89"/></g><line class="cls-8" x1="203.06" y1="212.5" x2="253.77" y2="212.5"/><rect class="cls-15" x="217.77" y="209.33" width="2.54" height="6.34"/><rect class="cls-15" x="218.27" y="209.33" width="2.03" height="6.34"/><rect class="cls-15" x="220.13" y="209.33" width="1.52" height="6.34"/><text class="cls-10" transform="translate(75.97 214.56)"><tspan x="0" y="0">Peribacillus frigoritolerans [CK6]|NZ_CP085395.1</tspan></text><g><polyline class="cls-11" points="270.68 215.67 253.77 215.67 253.77 209.33 270.68 209.33"/><polyline class="cls-3" points="270.68 215.67 253.77 215.67 253.77 209.33 270.68 209.33"/></g><polyline class="cls-8" points="217.77 212.5 217.77 209.33 220.3 212.5 217.77 215.67 217.77 212.5"/><polyline class="cls-8" points="218.27 212.5 218.27 209.33 220.3 212.5 218.27 215.67 218.27 212.5"/><g><polyline class="cls-12" points="220.13 212.5 220.13 209.33 221.66 212.5 220.13 215.67 220.13 212.5"/><polyline class="cls-9" points="220.13 212.5 220.13 209.33 221.66 212.5 220.13 215.67 220.13 212.5"/></g><line class="cls-8" x1="203.06" y1="220.1" x2="253.77" y2="220.1"/><rect class="cls-15" x="217.77" y="216.94" width="2.54" height="6.34"/><rect class="cls-15" x="218.27" y="216.94" width="2.03" height="6.34"/><rect class="cls-15" x="220.13" y="216.94" width="1.52" height="6.34"/><text class="cls-10" transform="translate(36 222.17)"><tspan x="0" y="0">Peribacillus frigoritolerans [DSM 8801]|NZ_JALJWT010000001.1</tspan></text><g><polyline class="cls-11" points="270.68 223.27 253.77 223.27 253.77 216.94 270.68 216.94"/><polyline class="cls-3" points="270.68 223.27 253.77 223.27 253.77 216.94 270.68 216.94"/></g><polyline class="cls-8" points="217.77 220.1 217.77 216.94 220.3 220.1 217.77 223.27 217.77 220.1"/><polyline class="cls-8" points="218.27 220.1 218.27 216.94 220.3 220.1 218.27 223.27 218.27 220.1"/><g><polyline class="cls-12" points="220.13 220.1 220.13 216.94 221.66 220.1 220.13 223.27 220.13 220.1"/><polyline class="cls-9" points="220.13 220.1 220.13 216.94 221.66 220.1 220.13 223.27 220.13 220.1"/></g><line class="cls-8" x1="203.06" y1="227.71" x2="253.77" y2="227.71"/><rect class="cls-15" x="217.94" y="224.54" width="2.54" height="6.34"/><rect class="cls-15" x="218.44" y="224.54" width="2.03" height="6.34"/><rect class="cls-15" x="220.3" y="224.54" width="1.52" height="6.34"/><text class="cls-10" transform="translate(58.31 229.77)"><tspan x="0" y="0">Peribacillus frigoritolerans [FJAT-2396]|NZ_KV440950.1</tspan></text><g><polyline class="cls-11" points="270.68 230.88 253.77 230.88 253.77 224.54 270.68 224.54"/><polyline class="cls-3" points="270.68 230.88 253.77 230.88 253.77 224.54 270.68 224.54"/></g><polyline class="cls-8" points="217.94 227.71 217.94 224.54 220.47 227.71 217.94 230.88 217.94 227.71"/><polyline class="cls-8" points="218.44 227.71 218.44 224.54 220.47 227.71 218.44 230.88 218.44 227.71"/><g><polyline class="cls-12" points="220.3 227.71 220.3 224.54 221.82 227.71 220.3 230.88 220.3 227.71"/><polyline class="cls-9" points="220.3 227.71 220.3 224.54 221.82 227.71 220.3 230.88 220.3 227.71"/></g><line class="cls-8" x1="203.06" y1="235.32" x2="253.77" y2="235.32"/><rect class="cls-15" x="217.94" y="232.15" width="2.54" height="6.34"/><rect class="cls-15" x="218.44" y="232.15" width="2.03" height="6.34"/><rect class="cls-15" x="220.3" y="232.15" width="1.52" height="6.34"/><text class="cls-10" transform="translate(73.26 237.38)"><tspan x="0" y="0">Peribacillus frigoritolerans [KF19]|NZ_CP085514.1</tspan></text><g><polyline class="cls-11" points="270.68 238.49 253.77 238.49 253.77 232.15 270.68 232.15"/><polyline class="cls-3" points="270.68 238.49 253.77 238.49 253.77 232.15 270.68 232.15"/></g><polyline class="cls-8" points="217.94 235.32 217.94 232.15 220.47 235.32 217.94 238.49 217.94 235.32"/><polyline class="cls-8" points="218.44 235.32 218.44 232.15 220.47 235.32 218.44 238.49 218.44 235.32"/><g><polyline class="cls-12" points="220.3 235.32 220.3 232.15 221.82 235.32 220.3 238.49 220.3 235.32"/><polyline class="cls-9" points="220.3 235.32 220.3 232.15 221.82 235.32 220.3 238.49 220.3 235.32"/></g><line class="cls-8" x1="203.06" y1="242.92" x2="253.77" y2="242.92"/><rect class="cls-15" x="217.77" y="239.76" width="2.54" height="6.34"/><rect class="cls-15" x="218.27" y="239.76" width="2.03" height="6.34"/><rect class="cls-15" x="220.13" y="239.76" width="1.52" height="6.34"/><text class="cls-10" transform="translate(76.56 244.99)"><tspan x="0" y="0">Peribacillus frigoritolerans [KF3]|NZ_CP085397.1</tspan></text><g><polyline class="cls-11" points="270.68 246.09 253.77 246.09 253.77 239.76 270.68 239.76"/><polyline class="cls-3" points="270.68 246.09 253.77 246.09 253.77 239.76 270.68 239.76"/></g><polyline class="cls-8" points="217.77 242.92 217.77 239.76 220.3 242.92 217.77 246.09 217.77 242.92"/><polyline class="cls-8" points="218.27 242.92 218.27 239.76 220.3 242.92 218.27 246.09 218.27 242.92"/><g><polyline class="cls-12" points="220.13 242.92 220.13 239.76 221.66 242.92 220.13 246.09 220.13 242.92"/><polyline class="cls-9" points="220.13 242.92 220.13 239.76 221.66 242.92 220.13 246.09 220.13 242.92"/></g><line class="cls-8" x1="203.06" y1="250.53" x2="253.77" y2="250.53"/><rect class="cls-15" x="217.77" y="247.36" width="2.54" height="6.34"/><rect class="cls-15" x="218.27" y="247.36" width="2.03" height="6.34"/><rect class="cls-15" x="220.13" y="247.36" width="1.52" height="6.34"/><text class="cls-10" transform="translate(40.24 252.59)"><tspan x="0" y="0">Peribacillus frigoritolerans [MER 73]|NZ_JAMAUU010000029.1</tspan></text><g><polyline class="cls-11" points="270.68 253.7 253.77 253.7 253.77 247.36 270.68 247.36"/><polyline class="cls-3" points="270.68 253.7 253.77 253.7 253.77 247.36 270.68 247.36"/></g><polyline class="cls-8" points="217.77 250.53 217.77 247.36 220.3 250.53 217.77 253.7 217.77 250.53"/><polyline class="cls-8" points="218.27 250.53 218.27 247.36 220.3 250.53 218.27 253.7 218.27 250.53"/><g><polyline class="cls-12" points="220.13 250.53 220.13 247.36 221.66 250.53 220.13 253.7 220.13 250.53"/><polyline class="cls-9" points="220.13 250.53 220.13 247.36 221.66 250.53 220.13 253.7 220.13 250.53"/></g><line class="cls-8" x1="203.06" y1="258.14" x2="253.77" y2="258.14"/><rect class="cls-15" x="218.11" y="254.97" width="2.54" height="6.34"/><rect class="cls-15" x="218.61" y="254.97" width="2.03" height="6.34"/><rect class="cls-15" x="220.47" y="254.97" width="1.52" height="6.34"/><text class="cls-10" transform="translate(76.11 260.2)"><tspan x="0" y="0">Peribacillus frigoritolerans [NS1]|NZ_CP103291.1</tspan></text><g><polyline class="cls-11" points="270.68 261.31 253.77 261.31 253.77 254.97 270.68 254.97"/><polyline class="cls-3" points="270.68 261.31 253.77 261.31 253.77 254.97 270.68 254.97"/></g><polyline class="cls-8" points="218.11 258.14 218.11 254.97 220.64 258.14 218.11 261.31 218.11 258.14"/><polyline class="cls-8" points="218.61 258.14 218.61 254.97 220.64 258.14 218.61 261.31 218.61 258.14"/><g><polyline class="cls-12" points="220.47 258.14 220.47 254.97 221.99 258.14 220.47 261.31 220.47 258.14"/><polyline class="cls-9" points="220.47 258.14 220.47 254.97 221.99 258.14 220.47 261.31 220.47 258.14"/></g><line class="cls-8" x1="203.06" y1="265.75" x2="253.77" y2="265.75"/><rect class="cls-15" x="217.77" y="262.58" width="2.54" height="6.34"/><rect class="cls-15" x="218.27" y="262.58" width="2.03" height="6.34"/><rect class="cls-15" x="220.13" y="262.58" width="1.52" height="6.34"/><text class="cls-10" transform="translate(46.32 267.81)"><tspan x="0" y="0">Peribacillus frigoritolerans [SC112]|NZ_JANIOD010000012.1</tspan></text><g><polyline class="cls-11" points="270.68 268.91 253.77 268.91 253.77 262.58 270.68 262.58"/><polyline class="cls-3" points="270.68 268.91 253.77 268.91 253.77 262.58 270.68 262.58"/></g><polyline class="cls-8" points="217.77 265.75 217.77 262.58 220.3 265.75 217.77 268.91 217.77 265.75"/><polyline class="cls-8" points="218.27 265.75 218.27 262.58 220.3 265.75 218.27 268.91 218.27 265.75"/><g><polyline class="cls-12" points="220.13 265.75 220.13 262.58 221.66 265.75 220.13 268.91 220.13 265.75"/><polyline class="cls-9" points="220.13 265.75 220.13 262.58 221.66 265.75 220.13 268.91 220.13 265.75"/></g><line class="cls-8" x1="203.06" y1="273.35" x2="253.77" y2="273.35"/><rect class="cls-15" x="217.77" y="270.18" width="2.54" height="6.34"/><rect class="cls-15" x="218.27" y="270.18" width="2.03" height="6.34"/><rect class="cls-15" x="220.13" y="270.18" width="1.52" height="6.34"/><text class="cls-10" transform="translate(59.95 275.41)"><tspan x="0" y="0">Peribacillus frigoritolerans [ZB201705]|NZ_CP030063.1</tspan></text><g><polyline class="cls-11" points="270.68 276.52 253.77 276.52 253.77 270.18 270.68 270.18"/><polyline class="cls-3" points="270.68 276.52 253.77 276.52 253.77 270.18 270.68 270.18"/></g><polyline class="cls-8" points="217.77 273.35 217.77 270.18 220.3 273.35 217.77 276.52 217.77 273.35"/><polyline class="cls-8" points="218.27 273.35 218.27 270.18 220.3 273.35 218.27 276.52 218.27 273.35"/><g><polyline class="cls-12" points="220.13 273.35 220.13 270.18 221.66 273.35 220.13 276.52 220.13 273.35"/><polyline class="cls-9" points="220.13 273.35 220.13 270.18 221.66 273.35 220.13 276.52 220.13 273.35"/></g><line class="cls-8" x1="203.06" y1="280.96" x2="253.77" y2="280.96"/><rect class="cls-15" x="217.77" y="277.79" width="2.54" height="6.34"/><rect class="cls-15" x="218.27" y="277.79" width="2.03" height="6.34"/><rect class="cls-15" x="220.13" y="277.79" width="1.52" height="6.34"/><text class="cls-10" transform="translate(32.79 283.02)"><tspan x="0" y="0">Peribacillus frigoritolerans [p3-SID801]|NZ_JAMBDN010000050.1</tspan></text><g><polyline class="cls-11" points="270.68 284.13 253.77 284.13 253.77 277.79 270.68 277.79"/><polyline class="cls-3" points="270.68 284.13 253.77 284.13 253.77 277.79 270.68 277.79"/></g><polyline class="cls-8" points="217.77 280.96 217.77 277.79 220.3 280.96 217.77 284.13 217.77 280.96"/><polyline class="cls-8" points="218.27 280.96 218.27 277.79 220.3 280.96 218.27 284.13 218.27 280.96"/><g><polyline class="cls-12" points="220.13 280.96 220.13 277.79 221.66 280.96 220.13 284.13 220.13 280.96"/><polyline class="cls-9" points="220.13 280.96 220.13 277.79 221.66 280.96 220.13 284.13 220.13 280.96"/></g><line class="cls-8" x1="203.06" y1="288.57" x2="253.77" y2="288.57"/><rect class="cls-15" x="217.77" y="285.4" width="6.09" height="6.34"/><rect class="cls-15" x="218.27" y="285.4" width="5.58" height="6.34"/><rect class="cls-15" x="220.13" y="285.4" width="1.52" height="6.34"/><text class="cls-10" transform="translate(32.61 290.63)"><tspan x="0" y="0">Peribacillus huizhouensis [DSM 105481]|NZ_JACJHX010000003.1</tspan></text><g><polyline class="cls-11" points="270.68 291.73 253.77 291.73 253.77 285.4 270.68 285.4"/><polyline class="cls-3" points="270.68 291.73 253.77 291.73 253.77 285.4 270.68 285.4"/></g><polyline class="cls-8" points="217.77 288.57 217.77 285.4 223.85 288.57 217.77 291.73 217.77 288.57"/><polyline class="cls-8" points="218.27 288.57 218.27 285.4 223.85 288.57 218.27 291.73 218.27 288.57"/><g><polyline class="cls-12" points="220.13 288.57 220.13 285.4 221.66 288.57 220.13 291.73 220.13 288.57"/><polyline class="cls-9" points="220.13 288.57 220.13 285.4 221.66 288.57 220.13 291.73 220.13 288.57"/></g><line class="cls-8" x1="203.06" y1="296.17" x2="253.77" y2="296.17"/><rect class="cls-15" x="217.6" y="293" width="6.09" height="6.34"/><rect class="cls-15" x="218.11" y="293" width="5.58" height="6.34"/><rect class="cls-15" x="219.97" y="293" width="1.52" height="6.34"/><text class="cls-10" transform="translate(47.59 298.23)"><tspan x="0" y="0">Peribacillus loiseleuriae [FJAT-27997]|NZ_LFZW01000001.1</tspan></text><g><polyline class="cls-11" points="270.68 299.34 253.77 299.34 253.77 293 270.68 293"/><polyline class="cls-3" points="270.68 299.34 253.77 299.34 253.77 293 270.68 293"/></g><polyline class="cls-8" points="217.6 296.17 217.6 293 223.68 296.17 217.6 299.34 217.6 296.17"/><polyline class="cls-8" points="218.11 296.17 218.11 293 223.68 296.17 218.11 299.34 218.11 296.17"/><g><polyline class="cls-12" points="219.97 296.17 219.97 293 221.49 296.17 219.97 299.34 219.97 296.17"/><polyline class="cls-9" points="219.97 296.17 219.97 293 221.49 296.17 219.97 299.34 219.97 296.17"/></g><line class="cls-8" x1="203.06" y1="303.78" x2="253.77" y2="303.78"/><rect class="cls-15" x="215.74" y="300.61" width="6.09" height="6.34"/><rect class="cls-15" x="216.25" y="300.61" width="5.58" height="6.34"/><rect class="cls-15" x="218.11" y="300.61" width="1.52" height="6.34"/><text class="cls-10" transform="translate(58.09 305.84)"><tspan x="0" y="0">Peribacillus muralis [Aquil_B5]|NZ_JAKXEA010000002.1</tspan></text><g><polyline class="cls-11" points="270.68 306.95 253.77 306.95 253.77 300.61 270.68 300.61"/><polyline class="cls-3" points="270.68 306.95 253.77 306.95 253.77 300.61 270.68 300.61"/></g><polyline class="cls-8" points="215.74 303.78 215.74 300.61 221.82 303.78 215.74 306.95 215.74 303.78"/><polyline class="cls-8" points="216.25 303.78 216.25 300.61 221.82 303.78 216.25 306.95 216.25 303.78"/><g><polyline class="cls-12" points="218.11 303.78 218.11 300.61 219.63 303.78 218.11 306.95 218.11 303.78"/><polyline class="cls-9" points="218.11 303.78 218.11 300.61 219.63 303.78 218.11 306.95 218.11 303.78"/></g><line class="cls-8" x1="203.06" y1="311.39" x2="253.77" y2="311.39"/><rect class="cls-15" x="215.74" y="308.22" width="6.09" height="6.34"/><rect class="cls-15" x="216.25" y="308.22" width="5.58" height="6.34"/><rect class="cls-15" x="218.11" y="308.22" width="1.52" height="6.34"/><text class="cls-10" transform="translate(58.37 313.45)"><tspan x="0" y="0">Peribacillus muralis [DSM 16288]|NZ_LMBV01000018.1</tspan></text><g><polyline class="cls-11" points="270.68 314.56 253.77 314.56 253.77 308.22 270.68 308.22"/><polyline class="cls-3" points="270.68 314.56 253.77 314.56 253.77 308.22 270.68 308.22"/></g><polyline class="cls-8" points="215.74 311.39 215.74 308.22 221.82 311.39 215.74 314.56 215.74 311.39"/><polyline class="cls-8" points="216.25 311.39 216.25 308.22 221.82 311.39 216.25 314.56 216.25 311.39"/><g><polyline class="cls-12" points="218.11 311.39 218.11 308.22 219.63 311.39 218.11 314.56 218.11 311.39"/><polyline class="cls-9" points="218.11 311.39 218.11 308.22 219.63 311.39 218.11 314.56 218.11 311.39"/></g><line class="cls-8" x1="203.06" y1="318.99" x2="253.77" y2="318.99"/><rect class="cls-15" x="216.08" y="315.82" width="6.09" height="6.34"/><rect class="cls-15" x="216.58" y="315.82" width="5.58" height="6.34"/><rect class="cls-15" x="218.44" y="315.82" width="1.52" height="6.34"/><text class="cls-10" transform="translate(84.65 321.05)"><tspan x="0" y="0">Peribacillus muralis [G25-68]|NZ_CP017080.1</tspan></text><g><polyline class="cls-11" points="270.68 322.16 253.77 322.16 253.77 315.82 270.68 315.82"/><polyline class="cls-3" points="270.68 322.16 253.77 322.16 253.77 315.82 270.68 315.82"/></g><polyline class="cls-8" points="216.08 318.99 216.08 315.82 222.16 318.99 216.08 322.16 216.08 318.99"/><polyline class="cls-8" points="216.58 318.99 216.58 315.82 222.16 318.99 216.58 322.16 216.58 318.99"/><g><polyline class="cls-12" points="218.44 318.99 218.44 315.82 219.97 318.99 218.44 322.16 218.44 318.99"/><polyline class="cls-9" points="218.44 318.99 218.44 315.82 219.97 318.99 218.44 322.16 218.44 318.99"/></g><line class="cls-8" x1="203.06" y1="326.6" x2="253.77" y2="326.6"/><rect class="cls-15" x="217.6" y="323.43" width="2.54" height="6.34"/><rect class="cls-15" x="218.11" y="323.43" width="2.03" height="6.34"/><rect class="cls-15" x="219.97" y="323.43" width="1.52" height="6.34"/><text class="cls-10" transform="translate(21.02 328.66)"><tspan x="0" y="0" xml:space="preserve">Peribacillus simplex  = DSM 1321[NBRC 15720]|NZ_BCVO01000016.1</tspan></text><g><polyline class="cls-11" points="270.68 329.77 253.77 329.77 253.77 323.43 270.68 323.43"/><polyline class="cls-3" points="270.68 329.77 253.77 329.77 253.77 323.43 270.68 323.43"/></g><polyline class="cls-8" points="217.6 326.6 217.6 323.43 220.13 326.6 217.6 329.77 217.6 326.6"/><polyline class="cls-8" points="218.11 326.6 218.11 323.43 220.13 326.6 218.11 329.77 218.11 326.6"/><g><polyline class="cls-12" points="219.97 326.6 219.97 323.43 221.49 326.6 219.97 329.77 219.97 326.6"/><polyline class="cls-9" points="219.97 326.6 219.97 323.43 221.49 326.6 219.97 329.77 219.97 326.6"/></g><line class="cls-8" x1="203.06" y1="334.21" x2="253.77" y2="334.21"/><rect class="cls-15" x="206.61" y="331.04" width="4.56" height="6.34"/><rect class="cls-15" x="217.6" y="331.04" width="2.54" height="6.34"/><rect class="cls-15" x="218.11" y="331.04" width="2.03" height="6.34"/><rect class="cls-15" x="219.97" y="331.04" width="1.52" height="6.34"/><text class="cls-10" transform="translate(0 336.27)"><tspan x="0" y="0">Peribacillus simplex NBRC 15720 = DSM 1321 [DE0084]|NZ_VEGT01000018.1</tspan></text><g><polyline class="cls-11" points="270.68 337.38 253.77 337.38 253.77 331.04 270.68 331.04"/><polyline class="cls-3" points="270.68 337.38 253.77 337.38 253.77 331.04 270.68 331.04"/></g><polyline class="cls-8" points="206.61 334.21 206.61 331.04 211.18 334.21 206.61 337.38 206.61 334.21"/><polyline class="cls-8" points="217.6 334.21 217.6 331.04 220.13 334.21 217.6 337.38 217.6 334.21"/><polyline class="cls-8" points="218.11 334.21 218.11 331.04 220.13 334.21 218.11 337.38 218.11 334.21"/><g><polyline class="cls-12" points="219.97 334.21 219.97 331.04 221.49 334.21 219.97 337.38 219.97 334.21"/><polyline class="cls-9" points="219.97 334.21 219.97 331.04 221.49 334.21 219.97 337.38 219.97 334.21"/></g><line class="cls-8" x1="203.06" y1="341.81" x2="253.77" y2="341.81"/><rect class="cls-15" x="217.94" y="338.64" width="2.54" height="6.34"/><rect class="cls-15" x="218.44" y="338.64" width="2.03" height="6.34"/><rect class="cls-15" x="220.3" y="338.64" width="1.52" height="6.34"/><text class="cls-10" transform="translate(57.7 343.87)"><tspan x="0" y="0">Peribacillus simplex [Aquil_B1]|NZ_JAKXEE010000001.1</tspan></text><g><polyline class="cls-11" points="270.68 344.98 253.77 344.98 253.77 338.64 270.68 338.64"/><polyline class="cls-3" points="270.68 344.98 253.77 344.98 253.77 338.64 270.68 338.64"/></g><polyline class="cls-8" points="217.94 341.81 217.94 338.64 220.47 341.81 217.94 344.98 217.94 341.81"/><polyline class="cls-8" points="218.44 341.81 218.44 338.64 220.47 341.81 218.44 344.98 218.44 341.81"/><g><polyline class="cls-12" points="220.3 341.81 220.3 338.64 221.82 341.81 220.3 344.98 220.3 341.81"/><polyline class="cls-9" points="220.3 341.81 220.3 338.64 221.82 341.81 220.3 344.98 220.3 341.81"/></g><line class="cls-8" x1="203.06" y1="349.42" x2="253.77" y2="349.42"/><rect class="cls-15" x="204.08" y="346.25" width="16.23" height="6.34"/><rect class="cls-15" x="206.78" y="346.25" width="4.56" height="6.34"/><rect class="cls-15" x="217.77" y="346.25" width="2.54" height="6.34"/><rect class="cls-15" x="218.27" y="346.25" width="2.03" height="6.34"/><rect class="cls-15" x="220.13" y="346.25" width="1.52" height="6.34"/><text class="cls-10" transform="translate(69.58 351.48)"><tspan x="0" y="0">Peribacillus simplex [DE0003]|NZ_VEJA01000010.1</tspan></text><g><polyline class="cls-11" points="270.68 352.59 253.77 352.59 253.77 346.25 270.68 346.25"/><polyline class="cls-3" points="270.68 352.59 253.77 352.59 253.77 346.25 270.68 346.25"/></g><polyline class="cls-8" points="204.08 349.42 204.08 346.25 213.96 346.25 220.3 349.42 213.96 352.59 204.08 352.59 204.08 349.42"/><polyline class="cls-8" points="206.78 349.42 206.78 346.25 211.34 349.42 206.78 352.59 206.78 349.42"/><polyline class="cls-8" points="217.77 349.42 217.77 346.25 220.3 349.42 217.77 352.59 217.77 349.42"/><polyline class="cls-8" points="218.27 349.42 218.27 346.25 220.3 349.42 218.27 352.59 218.27 349.42"/><g><polyline class="cls-12" points="220.13 349.42 220.13 346.25 221.66 349.42 220.13 352.59 220.13 349.42"/><polyline class="cls-9" points="220.13 349.42 220.13 346.25 221.66 349.42 220.13 352.59 220.13 349.42"/></g><line class="cls-8" x1="203.06" y1="357.03" x2="253.77" y2="357.03"/><rect class="cls-15" x="217.77" y="353.86" width="2.54" height="6.34"/><rect class="cls-15" x="218.27" y="353.86" width="2.03" height="6.34"/><rect class="cls-15" x="220.13" y="353.86" width="1.52" height="6.34"/><text class="cls-10" transform="translate(65.44 359.09)"><tspan x="0" y="0">Peribacillus simplex [GGC-P6A]|NZ_VNKI01000009.1</tspan></text><g><polyline class="cls-11" points="270.68 360.2 253.77 360.2 253.77 353.86 270.68 353.86"/><polyline class="cls-3" points="270.68 360.2 253.77 360.2 253.77 353.86 270.68 353.86"/></g><polyline class="cls-8" points="217.77 357.03 217.77 353.86 220.3 357.03 217.77 360.2 217.77 357.03"/><polyline class="cls-8" points="218.27 357.03 218.27 353.86 220.3 357.03 218.27 360.2 218.27 357.03"/><g><polyline class="cls-12" points="220.13 357.03 220.13 353.86 221.66 357.03 220.13 360.2 220.13 357.03"/><polyline class="cls-9" points="220.13 357.03 220.13 353.86 221.66 357.03 220.13 360.2 220.13 357.03"/></g><line class="cls-8" x1="203.06" y1="364.63" x2="253.77" y2="364.63"/><rect class="cls-15" x="217.77" y="361.46" width="2.54" height="6.34"/><rect class="cls-15" x="218.27" y="361.46" width="2.03" height="6.34"/><rect class="cls-15" x="220.13" y="361.46" width="1.52" height="6.34"/><text class="cls-10" transform="translate(84.94 366.69)"><tspan x="0" y="0">Peribacillus simplex [I6]|NZ_SZNS01000125.1</tspan></text><g><polyline class="cls-11" points="270.68 367.8 253.77 367.8 253.77 361.46 270.68 361.46"/><polyline class="cls-3" points="270.68 367.8 253.77 367.8 253.77 361.46 270.68 361.46"/></g><polyline class="cls-8" points="217.77 364.63 217.77 361.46 220.3 364.63 217.77 367.8 217.77 364.63"/><polyline class="cls-8" points="218.27 364.63 218.27 361.46 220.3 364.63 218.27 367.8 218.27 364.63"/><g><polyline class="cls-12" points="220.13 364.63 220.13 361.46 221.66 364.63 220.13 367.8 220.13 364.63"/><polyline class="cls-9" points="220.13 364.63 220.13 361.46 221.66 364.63 220.13 367.8 220.13 364.63"/></g><line class="cls-8" x1="203.06" y1="372.24" x2="253.77" y2="372.24"/><rect class="cls-15" x="217.77" y="369.07" width="2.54" height="6.34"/><rect class="cls-15" x="218.27" y="369.07" width="2.03" height="6.34"/><rect class="cls-15" x="220.13" y="369.07" width="1.52" height="6.34"/><text class="cls-10" transform="translate(45.72 374.3)"><tspan x="0" y="0">Peribacillus simplex [MSL 173.2.2]|NZ_JAMAXK010000002.1</tspan></text><g><polyline class="cls-11" points="270.68 375.41 253.77 375.41 253.77 369.07 270.68 369.07"/><polyline class="cls-3" points="270.68 375.41 253.77 375.41 253.77 369.07 270.68 369.07"/></g><polyline class="cls-8" points="217.77 372.24 217.77 369.07 220.3 372.24 217.77 375.41 217.77 372.24"/><polyline class="cls-8" points="218.27 372.24 218.27 369.07 220.3 372.24 218.27 375.41 218.27 372.24"/><g><polyline class="cls-12" points="220.13 372.24 220.13 369.07 221.66 372.24 220.13 375.41 220.13 372.24"/><polyline class="cls-9" points="220.13 372.24 220.13 369.07 221.66 372.24 220.13 375.41 220.13 372.24"/></g><line class="cls-8" x1="203.06" y1="379.85" x2="253.77" y2="379.85"/><rect class="cls-15" x="206.78" y="376.68" width="7.1" height="6.34"/><rect class="cls-15" x="217.77" y="376.68" width="2.54" height="6.34"/><rect class="cls-15" x="218.27" y="376.68" width="2.03" height="6.34"/><rect class="cls-15" x="220.13" y="376.68" width="1.52" height="6.34"/><text class="cls-10" transform="translate(67.62 381.91)"><tspan x="0" y="0">Peribacillus simplex [RUG2-6]|NZ_FTMX01000004.1</tspan></text><g><polyline class="cls-11" points="270.68 383.02 253.77 383.02 253.77 376.68 270.68 376.68"/><polyline class="cls-3" points="270.68 383.02 253.77 383.02 253.77 376.68 270.68 376.68"/></g><polyline class="cls-8" points="206.78 379.85 206.78 376.68 207.54 376.68 213.88 379.85 207.54 383.02 206.78 383.02 206.78 379.85"/><polyline class="cls-8" points="217.77 379.85 217.77 376.68 220.3 379.85 217.77 383.02 217.77 379.85"/><polyline class="cls-8" points="218.27 379.85 218.27 376.68 220.3 379.85 218.27 383.02 218.27 379.85"/><g><polyline class="cls-12" points="220.13 379.85 220.13 376.68 221.66 379.85 220.13 383.02 220.13 379.85"/><polyline class="cls-9" points="220.13 379.85 220.13 376.68 221.66 379.85 220.13 383.02 220.13 379.85"/></g><line class="cls-8" x1="203.06" y1="387.45" x2="253.77" y2="387.45"/><rect class="cls-15" x="216.42" y="384.28" width="7.1" height="6.34"/><rect class="cls-15" x="216.92" y="384.28" width="6.59" height="6.34"/><rect class="cls-15" x="218.78" y="384.28" width="1.52" height="6.34"/><text class="cls-10" transform="translate(43.42 389.51)"><tspan x="0" y="0">Peribacillus simplex [VanAntwerpen02]|NZ_LNNH01000002.1</tspan></text><g><polyline class="cls-11" points="270.68 390.62 253.77 390.62 253.77 384.28 270.68 384.28"/><polyline class="cls-3" points="270.68 390.62 253.77 390.62 253.77 384.28 270.68 384.28"/></g><polyline class="cls-8" points="216.42 387.45 216.42 384.28 217.18 384.28 223.51 387.45 217.18 390.62 216.42 390.62 216.42 387.45"/><polyline class="cls-8" points="216.92 387.45 216.92 384.28 217.18 384.28 223.51 387.45 217.18 390.62 216.92 390.62 216.92 387.45"/><g><polyline class="cls-12" points="218.78 387.45 218.78 384.28 220.3 387.45 218.78 390.62 218.78 387.45"/><polyline class="cls-9" points="218.78 387.45 218.78 384.28 220.3 387.45 218.78 390.62 218.78 387.45"/></g><line class="cls-8" x1="203.06" y1="395.06" x2="253.77" y2="395.06"/><rect class="cls-15" x="217.77" y="391.89" width="2.54" height="6.34"/><rect class="cls-15" x="218.27" y="391.89" width="2.03" height="6.34"/><rect class="cls-15" x="220.13" y="391.89" width="1.52" height="6.34"/><text class="cls-10" transform="translate(85.86 397.12)"><tspan x="0" y="0">Peribacillus simplex|NZ_CABIYS010000001.1</tspan></text><g><polyline class="cls-11" points="270.68 398.23 253.77 398.23 253.77 391.89 270.68 391.89"/><polyline class="cls-3" points="270.68 398.23 253.77 398.23 253.77 391.89 270.68 391.89"/></g><polyline class="cls-8" points="217.77 395.06 217.77 391.89 220.3 395.06 217.77 398.23 217.77 395.06"/><polyline class="cls-8" points="218.27 395.06 218.27 391.89 220.3 395.06 218.27 398.23 218.27 395.06"/><g><polyline class="cls-12" points="220.13 395.06 220.13 391.89 221.66 395.06 220.13 398.23 220.13 395.06"/><polyline class="cls-9" points="220.13 395.06 220.13 391.89 221.66 395.06 220.13 398.23 220.13 395.06"/></g><line class="cls-8" x1="203.06" y1="402.67" x2="253.77" y2="402.67"/><rect class="cls-15" x="217.77" y="399.5" width="2.54" height="6.34"/><rect class="cls-15" x="218.27" y="399.5" width="2.03" height="6.34"/><rect class="cls-15" x="220.13" y="399.5" width="1.52" height="6.34"/><text class="cls-10" transform="translate(80.79 404.73)"><tspan x="0" y="0">Peribacillus simplex|NZ_CAKKMG010000025.1</tspan></text><g><polyline class="cls-11" points="270.68 405.84 253.77 405.84 253.77 399.5 270.68 399.5"/><polyline class="cls-3" points="270.68 405.84 253.77 405.84 253.77 399.5 270.68 399.5"/></g><polyline class="cls-8" points="217.77 402.67 217.77 399.5 220.3 402.67 217.77 405.84 217.77 402.67"/><polyline class="cls-8" points="218.27 402.67 218.27 399.5 220.3 402.67 218.27 405.84 218.27 402.67"/><g><polyline class="cls-12" points="220.13 402.67 220.13 399.5 221.66 402.67 220.13 405.84 220.13 402.67"/><polyline class="cls-9" points="220.13 402.67 220.13 399.5 221.66 402.67 220.13 405.84 220.13 402.67"/></g><line class="cls-8" x1="203.06" y1="410.27" x2="253.77" y2="410.27"/><rect class="cls-15" x="217.6" y="407.1" width="2.54" height="6.34"/><rect class="cls-15" x="218.11" y="407.1" width="2.03" height="6.34"/><rect class="cls-15" x="219.97" y="407.1" width="1.52" height="6.34"/><text class="cls-10" transform="translate(81.18 412.33)"><tspan x="0" y="0">Peribacillus simplex|NZ_CAKKMK010000275.1</tspan></text><g><polyline class="cls-11" points="270.68 413.44 253.77 413.44 253.77 407.1 270.68 407.1"/><polyline class="cls-3" points="270.68 413.44 253.77 413.44 253.77 407.1 270.68 407.1"/></g><polyline class="cls-8" points="217.6 410.27 217.6 407.1 220.13 410.27 217.6 413.44 217.6 410.27"/><polyline class="cls-8" points="218.11 410.27 218.11 407.1 220.13 410.27 218.11 413.44 218.11 410.27"/><g><polyline class="cls-12" points="219.97 410.27 219.97 407.1 221.49 410.27 219.97 413.44 219.97 410.27"/><polyline class="cls-9" points="219.97 410.27 219.97 407.1 221.49 410.27 219.97 413.44 219.97 410.27"/></g><line class="cls-8" x1="203.06" y1="417.88" x2="253.77" y2="417.88"/><rect class="cls-15" x="217.94" y="414.71" width="2.54" height="6.34"/><rect class="cls-15" x="218.44" y="414.71" width="2.03" height="6.34"/><rect class="cls-15" x="220.3" y="414.71" width="1.52" height="6.34"/><text class="cls-10" transform="translate(78.45 419.94)"><tspan x="0" y="0">Peribacillus sp. Bi134|NZ_CAKKLN010000010.1</tspan></text><g><polyline class="cls-11" points="270.68 421.05 253.77 421.05 253.77 414.71 270.68 414.71"/><polyline class="cls-3" points="270.68 421.05 253.77 421.05 253.77 414.71 270.68 414.71"/></g><polyline class="cls-8" points="217.94 417.88 217.94 414.71 220.47 417.88 217.94 421.05 217.94 417.88"/><polyline class="cls-8" points="218.44 417.88 218.44 414.71 220.47 417.88 218.44 421.05 218.44 417.88"/><g><polyline class="cls-12" points="220.3 417.88 220.3 414.71 221.82 417.88 220.3 421.05 220.3 417.88"/><polyline class="cls-9" points="220.3 417.88 220.3 414.71 221.82 417.88 220.3 421.05 220.3 417.88"/></g><line class="cls-8" x1="203.06" y1="425.49" x2="253.77" y2="425.49"/><rect class="cls-15" x="217.43" y="422.32" width="2.54" height="6.34"/><rect class="cls-15" x="217.94" y="422.32" width="2.03" height="6.34"/><rect class="cls-15" x="219.8" y="422.32" width="1.52" height="6.34"/><text class="cls-10" transform="translate(69.73 427.55)"><tspan x="0" y="0">Peribacillus sp. [BBB004]|NZ_JANZMJ010000020.1</tspan></text><g><polyline class="cls-11" points="270.68 428.66 253.77 428.66 253.77 422.32 270.68 422.32"/><polyline class="cls-3" points="270.68 428.66 253.77 428.66 253.77 422.32 270.68 422.32"/></g><polyline class="cls-8" points="217.43 425.49 217.43 422.32 219.97 425.49 217.43 428.66 217.43 425.49"/><polyline class="cls-8" points="217.94 425.49 217.94 422.32 219.97 425.49 217.94 428.66 217.94 425.49"/><g><polyline class="cls-12" points="219.8 425.49 219.8 422.32 221.32 425.49 219.8 428.66 219.8 425.49"/><polyline class="cls-9" points="219.8 425.49 219.8 422.32 221.32 425.49 219.8 428.66 219.8 425.49"/></g><line class="cls-8" x1="203.06" y1="433.09" x2="253.77" y2="433.09"/><rect class="cls-15" x="218.27" y="429.92" width="2.03" height="6.34"/><rect class="cls-15" x="220.13" y="429.92" width="1.52" height="6.34"/><text class="cls-10" transform="translate(66.24 435.15)"><tspan x="0" y="0">Rossellomorea aquimaris [JM7]|NZ_JXZC01000003.1</tspan></text><g><polyline class="cls-11" points="270.68 436.26 253.77 436.26 253.77 429.92 270.68 429.92"/><polyline class="cls-3" points="270.68 436.26 253.77 436.26 253.77 429.92 270.68 429.92"/></g><polyline class="cls-8" points="218.27 433.09 218.27 429.92 220.3 433.09 218.27 436.26 218.27 433.09"/><g><polyline class="cls-12" points="220.13 433.09 220.13 429.92 221.66 433.09 220.13 436.26 220.13 433.09"/><polyline class="cls-9" points="220.13 433.09 220.13 429.92 221.66 433.09 220.13 436.26 220.13 433.09"/></g><line class="cls-8" x1="203.06" y1="440.7" x2="253.77" y2="440.7"/><rect class="cls-15" x="218.61" y="437.53" width="2.03" height="6.34"/><rect class="cls-15" x="220.47" y="437.53" width="1.52" height="6.34"/><text class="cls-10" transform="translate(45.75 442.76)"><tspan x="0" y="0">Rossellomorea arthrocnemi [EAR8]|NZ_CAJGBF010000012.1</tspan></text><g><polyline class="cls-11" points="270.68 443.87 253.77 443.87 253.77 437.53 270.68 437.53"/><polyline class="cls-3" points="270.68 443.87 253.77 443.87 253.77 437.53 270.68 437.53"/></g><polyline class="cls-8" points="218.61 440.7 218.61 437.53 220.64 440.7 218.61 443.87 218.61 440.7"/><g><polyline class="cls-12" points="220.47 440.7 220.47 437.53 221.99 440.7 220.47 443.87 220.47 440.7"/><polyline class="cls-9" points="220.47 440.7 220.47 437.53 221.99 440.7 220.47 443.87 220.47 440.7"/></g><line class="cls-8" x1="203.06" y1="448.31" x2="253.77" y2="448.31"/><rect class="cls-15" x="213.37" y="445.14" width="3.04" height="6.34"/><rect class="cls-15" x="213.88" y="445.14" width="2.54" height="6.34"/><rect class="cls-15" x="215.74" y="445.14" width="1.52" height="6.34"/><text class="cls-10" transform="translate(56.26 450.37)"><tspan x="0" y="0">Schinkia azotoformans [LMG 9581]|NZ_AJLR01000041.1</tspan></text><g><polyline class="cls-11" points="270.68 451.48 253.77 451.48 253.77 445.14 270.68 445.14"/><polyline class="cls-3" points="270.68 451.48 253.77 451.48 253.77 445.14 270.68 445.14"/></g><polyline class="cls-8" points="213.37 448.31 213.37 445.14 216.42 448.31 213.37 451.48 213.37 448.31"/><polyline class="cls-8" points="213.88 448.31 213.88 445.14 216.42 448.31 213.88 451.48 213.88 448.31"/><g><polyline class="cls-12" points="215.74 448.31 215.74 445.14 217.26 448.31 215.74 451.48 215.74 448.31"/><polyline class="cls-9" points="215.74 448.31 215.74 445.14 217.26 448.31 215.74 451.48 215.74 448.31"/></g><line class="cls-8" x1="203.06" y1="455.91" x2="253.77" y2="455.91"/><rect class="cls-15" x="213.54" y="452.74" width="3.04" height="6.34"/><rect class="cls-15" x="214.05" y="452.74" width="2.54" height="6.34"/><rect class="cls-15" x="215.91" y="452.74" width="1.52" height="6.34"/><text class="cls-10" transform="translate(58.48 457.97)"><tspan x="0" y="0">Schinkia azotoformans [MEV2011]|NZ_JJRY01000012.1</tspan></text><g><polyline class="cls-11" points="270.68 459.08 253.77 459.08 253.77 452.74 270.68 452.74"/><polyline class="cls-3" points="270.68 459.08 253.77 459.08 253.77 452.74 270.68 452.74"/></g><polyline class="cls-8" points="213.54 455.91 213.54 452.74 216.58 455.91 213.54 459.08 213.54 455.91"/><polyline class="cls-8" points="214.05 455.91 214.05 452.74 216.58 455.91 214.05 459.08 214.05 455.91"/><g><polyline class="cls-12" points="215.91 455.91 215.91 452.74 217.43 455.91 215.91 459.08 215.91 455.91"/><polyline class="cls-9" points="215.91 455.91 215.91 452.74 217.43 455.91 215.91 459.08 215.91 455.91"/></g><line class="cls-8" x1="203.06" y1="463.52" x2="253.77" y2="463.52"/><rect class="cls-15" x="218.61" y="460.35" width="2.03" height="6.34"/><rect class="cls-15" x="220.47" y="460.35" width="1.52" height="6.34"/><text class="cls-10" transform="translate(43.81 465.58)"><tspan x="0" y="0">Terrilactibacillus tamarindi [BCM23-1]|NZ_WNHB01000009.1</tspan></text><g><polyline class="cls-11" points="270.68 466.69 253.77 466.69 253.77 460.35 270.68 460.35"/><polyline class="cls-3" points="270.68 466.69 253.77 466.69 253.77 460.35 270.68 460.35"/></g><polyline class="cls-8" points="218.61 463.52 218.61 460.35 220.64 463.52 218.61 466.69 218.61 463.52"/><g><polyline class="cls-12" points="220.47 463.52 220.47 460.35 221.99 463.52 220.47 466.69 220.47 463.52"/><polyline class="cls-9" points="220.47 463.52 220.47 460.35 221.99 463.52 220.47 466.69 220.47 463.52"/></g><line class="cls-8" x1="203.06" y1="471.13" x2="253.77" y2="471.13"/><rect class="cls-15" x="213.03" y="467.96" width="9.64" height="6.34"/><rect class="cls-15" x="221.15" y="467.96" width="1.52" height="6.34"/><text class="cls-10" transform="translate(63.87 473.19)"><tspan x="0" y="0">Weizmannia ginsengihum [J57]|NZ_JAGM01000002.1</tspan></text><g><polyline class="cls-11" points="270.68 474.3 253.77 474.3 253.77 467.96 270.68 467.96"/><polyline class="cls-3" points="270.68 474.3 253.77 474.3 253.77 467.96 270.68 467.96"/></g><polyline class="cls-8" points="213.03 471.13 213.03 467.96 216.33 467.96 222.67 471.13 216.33 474.3 213.03 474.3 213.03 471.13"/><g><polyline class="cls-12" points="221.15 471.13 221.15 467.96 222.67 471.13 221.15 474.3 221.15 471.13"/><polyline class="cls-9" points="221.15 471.13 221.15 467.96 222.67 471.13 221.15 474.3 221.15 471.13"/></g><line class="cls-8" x1="203.06" y1="478.73" x2="253.77" y2="478.73"/><rect class="cls-15" x="213.03" y="475.56" width="9.64" height="6.34"/><rect class="cls-15" x="219.29" y="475.56" width="2.03" height="6.34"/><rect class="cls-15" x="221.15" y="475.56" width="1.52" height="6.34"/><text class="cls-10" transform="translate(38.65 480.8)"><tspan x="0" y="0">Weizmannia ginsengihumi [Gsoil 114]|NZ_JAAIWK010000014.1</tspan></text><g><polyline class="cls-11" points="270.68 481.9 253.77 481.9 253.77 475.56 270.68 475.56"/><polyline class="cls-3" points="270.68 481.9 253.77 481.9 253.77 475.56 270.68 475.56"/></g><polyline class="cls-8" points="213.03 478.73 213.03 475.56 216.33 475.56 222.67 478.73 216.33 481.9 213.03 481.9 213.03 478.73"/><polyline class="cls-8" points="219.29 478.73 219.29 475.56 221.32 478.73 219.29 481.9 219.29 478.73"/><g><polyline class="cls-12" points="221.15 478.73 221.15 475.56 222.67 478.73 221.15 481.9 221.15 478.73"/><polyline class="cls-9" points="221.15 478.73 221.15 475.56 222.67 478.73 221.15 481.9 221.15 478.73"/></g><line class="cls-8" x1="203.06" y1="486.34" x2="253.77" y2="486.34"/><rect class="cls-15" x="213.03" y="483.17" width="9.64" height="6.34"/><rect class="cls-15" x="219.29" y="483.17" width="2.03" height="6.34"/><rect class="cls-15" x="221.15" y="483.17" width="1.52" height="6.34"/><text class="cls-10" transform="translate(38.17 488.4)"><tspan x="0" y="0">Weizmannia ginsengihumi [KSC 432]|NZ_JAMAUG010000026.1</tspan></text><g><polyline class="cls-11" points="270.68 489.51 253.77 489.51 253.77 483.17 270.68 483.17"/><polyline class="cls-3" points="270.68 489.51 253.77 489.51 253.77 483.17 270.68 483.17"/></g><polyline class="cls-8" points="213.03 486.34 213.03 483.17 216.33 483.17 222.67 486.34 216.33 489.51 213.03 489.51 213.03 486.34"/><polyline class="cls-8" points="219.29 486.34 219.29 483.17 221.32 486.34 219.29 489.51 219.29 486.34"/><g><polyline class="cls-12" points="221.15 486.34 221.15 483.17 222.67 486.34 221.15 489.51 221.15 486.34"/><polyline class="cls-9" points="221.15 486.34 221.15 483.17 222.67 486.34 221.15 489.51 221.15 486.34"/></g><line class="cls-8" x1="203.06" y1="493.95" x2="253.77" y2="493.95"/><rect class="cls-15" x="213.03" y="490.78" width="9.64" height="6.34"/><rect class="cls-15" x="219.29" y="490.78" width="2.03" height="6.34"/><rect class="cls-15" x="221.15" y="490.78" width="1.52" height="6.34"/><text class="cls-10" transform="translate(56.19 496.01)"><tspan x="0" y="0">Weizmannia ginsengihumi [M2.11]|NZ_JRUN01000008.1</tspan></text><g><polyline class="cls-11" points="270.68 497.12 253.77 497.12 253.77 490.78 270.68 490.78"/><polyline class="cls-3" points="270.68 497.12 253.77 497.12 253.77 490.78 270.68 490.78"/></g><polyline class="cls-8" points="213.03 493.95 213.03 490.78 216.33 490.78 222.67 493.95 216.33 497.12 213.03 497.12 213.03 493.95"/><polyline class="cls-8" points="219.29 493.95 219.29 490.78 221.32 493.95 219.29 497.12 219.29 493.95"/><g><polyline class="cls-12" points="221.15 493.95 221.15 490.78 222.67 493.95 221.15 497.12 221.15 493.95"/><polyline class="cls-9" points="221.15 493.95 221.15 490.78 222.67 493.95 221.15 497.12 221.15 493.95"/></g><line class="cls-5" x1="203.06" y1="498.38" x2="270.68" y2="498.38"/><line class="cls-5" x1="203.06" y1="498.38" x2="203.06" y2="501.27"/><text class="cls-10" transform="translate(203.06 506.21)"><tspan x="0" y="0">-300</tspan></text><line class="cls-5" x1="253.77" y1="498.38" x2="253.77" y2="501.27"/><text class="cls-10" transform="translate(252.12 506.21)"><tspan x="0" y="0">0</tspan></text><line class="cls-5" x1="270.68" y1="498.38" x2="270.68" y2="501.27"/><text class="cls-10" transform="translate(260.78 506.21)"><tspan x="0" y="0">100</tspan></text></g><line class="cls-7" x1="10.35" y1="71.74" x2="219.8" y2="101.12"/><line class="cls-7" x1="222.74" y1="101.12" x2="268.94" y2="71.74"/><text class="cls-31" transform="translate(219.8 83.27) rotate(90)"><tspan x="0" y="0">....</tspan></text></svg>