<?xml version="1.0" encoding="UTF-8"?><svg id="Layer_1" xmlns="http://www.w3.org/2000/svg" viewBox="0 0 238.87 262.69"><defs><style>.cls-1{fill:#414042;font-family:Lato-Regular, Lato;font-size:10px;}.cls-2,.cls-3,.cls-4,.cls-5,.cls-6{stroke:#fff;stroke-linecap:square;stroke-miterlimit:10.74;stroke-width:.08px;}.cls-2,.cls-7{fill:#f1be3a;}.cls-3,.cls-8{fill:#f26c6e;}.cls-9{fill:#bcbec0;}.cls-10,.cls-11{fill:#a9d6e7;}.cls-12,.cls-13{fill:#adb1d9;}.cls-14,.cls-5{fill:#769dcc;}.cls-15{fill:#60b980;}.cls-16,.cls-4{fill:#79c797;}.cls-17{letter-spacing:0em;}.cls-18{fill:#f6a5b1;stroke:#f6a5b1;}.cls-18,.cls-19,.cls-13,.cls-11{stroke-width:.25px;}.cls-18,.cls-19,.cls-13,.cls-11,.cls-20,.cls-21,.cls-22,.cls-23,.cls-24,.cls-25,.cls-26,.cls-27,.cls-28,.cls-29{stroke-miterlimit:10;}.cls-19{fill:#ffd059;stroke:#ffd059;}.cls-30{letter-spacing:-.02em;}.cls-13,.cls-22,.cls-26{stroke:#adb1d9;}.cls-11,.cls-24{stroke:#a9d6e7;}.cls-6{fill:#f9f06d;}.cls-20{stroke:#60b980;}.cls-20,.cls-21,.cls-22,.cls-23,.cls-24,.cls-25,.cls-26{fill:none;}.cls-20,.cls-21,.cls-22,.cls-23,.cls-24,.cls-27,.cls-28,.cls-29{stroke-width:.75px;}.cls-21,.cls-27,.cls-28,.cls-29{stroke:#a7a9ac;}.cls-23{stroke:#bcbec0;}.cls-31{letter-spacing:-.01em;}.cls-25{stroke:#d1d3d4;}.cls-25,.cls-26{stroke-width:.6px;}.cls-32{opacity:.7;}.cls-33{opacity:.93;}.cls-34{letter-spacing:-.02em;}.cls-35{letter-spacing:-.02em;}.cls-27{fill:#efe9bb;}.cls-28{fill:#eaced4;}.cls-29{fill:#bee0ba;}.cls-36{letter-spacing:-.01em;}</style></defs><text class="cls-1" transform="translate(123.39 17.2)"><tspan x="0" y="0">RefSeq database search</tspan><tspan x="23.15" y="12">for homologs</tspan></text><rect class="cls-25" x="112.21" y=".3" width="126.36" height="38.27" rx="5.67" ry="5.67"/><g class="cls-33"><g><line class="cls-24" x1="109.82" y1="38.54" x2="87.67" y2="47.16"/><polygon class="cls-10" points="88.27 44.59 81.48 49.57 89.85 48.65 88.27 44.59"/></g></g><text class="cls-1" transform="translate(119.39 74.42)"><tspan x="0" y="0">Upstream t</tspan><tspan class="cls-34" x="49.1" y="0">r</tspan><tspan class="cls-17" x="52.94" y="0">anscripts/loci</tspan><tspan x="10.54" y="12">sequences retri</tspan><tspan class="cls-36" x="77.84" y="12">e</tspan><tspan x="82.95" y="12">ving</tspan></text><rect class="cls-25" x="112.21" y="57.52" width="126.36" height="38.27" rx="5.67" ry="5.67"/><g class="cls-32"><g><line class="cls-20" x1="77.71" y1="78.21" x2="99.41" y2="78.21"/><polygon class="cls-15" points="97.92 80.39 106.05 78.21 97.92 76.03 97.92 80.39"/></g></g><g class="cls-32"><g><line class="cls-20" x1="76.93" y1="19.43" x2="98.63" y2="19.43"/><polygon class="cls-15" points="97.15 21.61 105.28 19.43 97.15 17.25 97.15 21.61"/></g></g><g><text class="cls-1" transform="translate(.75 148.59)"><tspan x="0" y="0">Sequences</tspan></text><g><g><line class="cls-21" x1="59.37" y1="118.99" x2="1.07" y2="118.99"/><polyline class="cls-29" points="69.1 121.67 57.44 121.67 57.44 116.3 69.1 116.3"/></g><g><line class="cls-21" x1="57.61" y1="127.37" x2="5.66" y2="127.37"/><polyline class="cls-29" points="69.1 130.06 57.61 130.06 57.61 124.68 69.1 124.68"/></g><g><line class="cls-21" x1="60.45" y1="135.75" x2="2.62" y2="135.75"/><polyline class="cls-29" points="69.1 138.44 57.61 138.44 57.61 133.06 69.1 133.06"/></g></g></g><text class="cls-1" transform="translate(138.31 129.81)"><tspan x="0" y="0">ORFs annotating</tspan></text><rect class="cls-25" x="112.21" y="114.74" width="126.36" height="22.68" rx="5.67" ry="5.67"/><text class="cls-1" transform="translate(123.18 173.14)"><tspan x="0" y="0">Conser</tspan><tspan class="cls-31" x="31.58" y="0">v</tspan><tspan x="36.57" y="0">ed ORFs searc</tspan><tspan class="cls-35" x="99.03" y="0">h</tspan><tspan x="0" y="12">and results visualisation </tspan></text><rect class="cls-25" x="112.21" y="156.36" width="126.36" height="38.27" rx="5.67" ry="5.67"/><text/><g class="cls-32"><g><line class="cls-20" x1="77.71" y1="126.75" x2="99.41" y2="126.75"/><polygon class="cls-15" points="97.92 128.93 106.05 126.75 97.92 124.57 97.92 128.93"/></g></g><g class="cls-32"><g><line class="cls-22" x1="175.59" y1="196.4" x2="175.59" y2="206.4"/><polygon class="cls-12" points="173.41 204.91 175.59 213.04 177.77 204.91 173.41 204.91"/></g></g><g class="cls-32"><g><line class="cls-23" x1="175.39" y1="39.72" x2="175.39" y2="49.72"/><polygon class="cls-9" points="173.21 48.24 175.39 56.37 177.57 48.24 173.21 48.24"/></g></g><g class="cls-32"><g><line class="cls-23" x1="175.59" y1="96.94" x2="175.59" y2="106.94"/><polygon class="cls-9" points="173.41 105.45 175.59 113.59 177.77 105.45 173.41 105.45"/></g></g><g class="cls-32"><g><line class="cls-23" x1="175.39" y1="138.56" x2="175.39" y2="148.57"/><polygon class="cls-9" points="173.21 147.08 175.39 155.21 177.57 147.08 173.21 147.08"/></g></g><g class="cls-33"><g><line class="cls-24" x1="109.82" y1="99" x2="87.67" y2="107.62"/><polygon class="cls-10" points="88.27 105.05 81.48 110.02 89.85 109.11 88.27 105.05"/></g></g><g><text class="cls-1" transform="translate(0 29.42)"><tspan x="0" y="0">RefSeq protein</tspan></text><g><g><polygon class="cls-13" points="3.9 8.16 1.07 13.06 6.72 13.06 3.9 8.16"/><line class="cls-13" x1="3.9" y1="18.65" x2="3.9" y2="12.83"/></g><g><line class="cls-19" x1="11.1" y1="18.65" x2="11.1" y2="12.83"/><circle class="cls-19" cx="11.1" cy="10.61" r="2.66"/></g><g><line class="cls-18" x1="17.7" y1="18.65" x2="17.7" y2="12.91"/><rect class="cls-18" x="15.48" y="8.42" width="4.45" height="4.45"/></g><g><rect class="cls-11" x="22.49" y="8.59" width="4.11" height="4.11" transform="translate(-.34 20.48) rotate(-45)"/><line class="cls-11" x1="24.55" y1="18.65" x2="24.55" y2="12.91"/></g><g><line class="cls-18" x1="31.4" y1="18.65" x2="31.4" y2="12.91"/><rect class="cls-18" x="29.17" y="8.42" width="4.45" height="4.45"/></g><g><line class="cls-19" x1="45.37" y1="18.65" x2="45.37" y2="12.83"/><circle class="cls-19" cx="45.37" cy="10.61" r="2.66"/></g><g><polygon class="cls-13" points="38.16 8.16 35.34 13.06 40.99 13.06 38.16 8.16"/><line class="cls-13" x1="38.16" y1="18.65" x2="38.16" y2="12.83"/></g><g><line class="cls-18" x1="51.97" y1="18.65" x2="51.97" y2="12.91"/><rect class="cls-18" x="49.74" y="8.42" width="4.45" height="4.45"/></g><g><rect class="cls-11" x="56.76" y="8.59" width="4.11" height="4.11" transform="translate(9.7 44.71) rotate(-45)"/><line class="cls-11" x1="58.82" y1="18.65" x2="58.82" y2="12.91"/></g><g><polygon class="cls-13" points="66.27 8.16 63.44 13.06 69.1 13.06 66.27 8.16"/><line class="cls-13" x1="66.27" y1="18.65" x2="66.27" y2="12.83"/></g></g></g><g><text class="cls-1" transform="translate(.08 103.09) scale(1.03 1)"><tspan x="0" y="0">Homologs</tspan></text><g><g><polygon class="cls-13" points="3.9 57.8 1.07 62.7 6.72 62.7 3.9 57.8"/><line class="cls-13" x1="3.9" y1="68.29" x2="3.9" y2="62.48"/></g><g><line class="cls-19" x1="11.1" y1="68.29" x2="11.1" y2="62.48"/><circle class="cls-19" cx="11.1" cy="60.25" r="2.66"/></g><g><line class="cls-18" x1="17.7" y1="68.29" x2="17.7" y2="62.55"/><rect class="cls-18" x="15.48" y="58.07" width="4.45" height="4.45"/></g><g><rect class="cls-11" x="22.49" y="58.23" width="4.11" height="4.11" transform="translate(-35.44 35.02) rotate(-45)"/><line class="cls-11" x1="24.55" y1="68.29" x2="24.55" y2="62.55"/></g><g><line class="cls-18" x1="31.4" y1="68.29" x2="31.4" y2="62.55"/><rect class="cls-18" x="29.17" y="58.07" width="4.45" height="4.45"/></g><g><line class="cls-19" x1="45.37" y1="68.29" x2="45.37" y2="62.48"/><circle class="cls-19" cx="45.37" cy="60.25" r="2.66"/></g><g><polygon class="cls-13" points="38.16 57.8 35.34 62.7 40.99 62.7 38.16 57.8"/><line class="cls-13" x1="38.16" y1="68.29" x2="38.16" y2="62.48"/></g><g><line class="cls-18" x1="51.97" y1="68.29" x2="51.97" y2="62.55"/><rect class="cls-18" x="49.74" y="58.07" width="4.45" height="4.45"/></g><g><rect class="cls-11" x="56.76" y="58.23" width="4.11" height="4.11" transform="translate(-25.4 59.25) rotate(-45)"/><line class="cls-11" x1="58.82" y1="68.29" x2="58.82" y2="62.55"/></g><g><polygon class="cls-13" points="66.27 57.8 63.44 62.7 69.1 62.7 66.27 57.8"/><line class="cls-13" x1="66.27" y1="68.29" x2="66.27" y2="62.48"/></g><g><polygon class="cls-13" points="4.15 69.83 1.32 74.73 6.98 74.73 4.15 69.83"/><line class="cls-13" x1="4.15" y1="80.31" x2="4.15" y2="74.5"/></g><g><line class="cls-19" x1="11.35" y1="80.31" x2="11.35" y2="74.5"/><circle class="cls-19" cx="11.35" cy="72.28" r="2.66"/></g><g><line class="cls-18" x1="17.95" y1="80.31" x2="17.95" y2="74.57"/><rect class="cls-18" x="15.73" y="70.09" width="4.45" height="4.45"/></g><g><rect class="cls-11" x="22.74" y="70.26" width="4.11" height="4.11" transform="translate(-43.87 38.72) rotate(-45)"/><line class="cls-11" x1="24.8" y1="80.31" x2="24.8" y2="74.57"/></g><g><line class="cls-18" x1="31.65" y1="80.31" x2="31.65" y2="74.57"/><rect class="cls-18" x="29.43" y="70.09" width="4.45" height="4.45"/></g><g><line class="cls-19" x1="45.62" y1="80.31" x2="45.62" y2="74.5"/><circle class="cls-19" cx="45.62" cy="72.28" r="2.66"/></g><g><line class="cls-18" x1="52.22" y1="80.31" x2="52.22" y2="74.57"/><rect class="cls-18" x="50" y="70.09" width="4.45" height="4.45"/></g><g><polygon class="cls-13" points="66.52 69.83 63.69 74.73 69.35 74.73 66.52 69.83"/><line class="cls-13" x1="66.52" y1="80.31" x2="66.52" y2="74.5"/></g><g><polygon class="cls-13" points="4.15 81.85 1.32 86.75 6.98 86.75 4.15 81.85"/><line class="cls-13" x1="4.15" y1="92.34" x2="4.15" y2="86.53"/></g><g><line class="cls-19" x1="11.35" y1="92.34" x2="11.35" y2="86.53"/><circle class="cls-19" cx="11.35" cy="84.3" r="2.66"/></g><g><rect class="cls-11" x="22.74" y="82.28" width="4.11" height="4.11" transform="translate(-52.37 42.24) rotate(-45)"/><line class="cls-11" x1="24.8" y1="92.34" x2="24.8" y2="86.6"/></g><g><line class="cls-19" x1="45.62" y1="92.34" x2="45.62" y2="86.53"/><circle class="cls-19" cx="45.62" cy="84.3" r="2.66"/></g><g><line class="cls-18" x1="52.22" y1="92.34" x2="52.22" y2="86.6"/><rect class="cls-18" x="50" y="82.12" width="4.45" height="4.45"/></g><g><rect class="cls-11" x="57.01" y="82.28" width="4.11" height="4.11" transform="translate(-42.34 66.47) rotate(-45)"/><line class="cls-11" x1="59.07" y1="92.34" x2="59.07" y2="86.6"/></g><g><polygon class="cls-13" points="66.52 81.85 63.69 86.75 69.35 86.75 66.52 81.85"/><line class="cls-13" x1="66.52" y1="92.34" x2="66.52" y2="86.53"/></g><g><line class="cls-19" x1="38.42" y1="80.42" x2="38.42" y2="74.61"/><circle class="cls-19" cx="38.42" cy="72.38" r="2.66"/></g><g><rect class="cls-11" x="36.36" y="82.15" width="4.11" height="4.11" transform="translate(-48.29 51.83) rotate(-45)"/><line class="cls-11" x1="38.42" y1="92.21" x2="38.42" y2="86.47"/></g><g><line class="cls-19" x1="17.95" y1="92.31" x2="17.95" y2="86.5"/><circle class="cls-19" cx="17.95" cy="84.28" r="2.66"/></g><g><polygon class="cls-13" points="58.82 69.62 55.99 74.52 61.64 74.52 58.82 69.62"/><line class="cls-13" x1="58.82" y1="80.1" x2="58.82" y2="74.29"/></g><g><polygon class="cls-13" points="31.61 82.12 28.78 87.02 34.44 87.02 31.61 82.12"/><line class="cls-13" x1="31.61" y1="92.6" x2="31.61" y2="86.79"/></g></g></g><g><line class="cls-21" x1="66.44" y1="240.66" x2="8.61" y2="240.66"/><g><g><line class="cls-21" x1="65.36" y1="223.9" x2="7.06" y2="223.9"/><polyline class="cls-29" points="75.09 226.59 63.44 226.59 63.44 221.21 75.09 221.21"/></g><line class="cls-21" x1="63.6" y1="232.28" x2="11.66" y2="232.28"/><polyline class="cls-29" points="75.09 234.97 63.6 234.97 63.6 229.59 75.09 229.59"/><polyline class="cls-29" points="75.09 243.35 63.6 243.35 63.6 237.97 75.09 237.97"/><polygon class="cls-27" points="30.71 240.66 25.9 237.97 15.15 237.97 15.15 243.35 25.9 243.35 30.71 240.66"/><polygon class="cls-27" points="33.87 232.28 29.06 229.59 18.31 229.59 18.31 234.97 29.06 234.97 33.87 232.28"/><polygon class="cls-27" points="27.51 223.9 22.7 221.21 11.95 221.21 11.95 226.59 22.7 226.59 27.51 223.9"/><polygon class="cls-28" points="56.15 223.9 51.34 221.21 46.38 221.21 46.38 226.59 51.34 226.59 56.15 223.9"/><polygon class="cls-28" points="56.15 232.28 51.34 229.59 48.27 229.59 48.27 234.97 51.34 234.97 56.15 232.28"/><polygon class="cls-28" points="54.49 240.66 49.68 237.97 46.61 237.97 46.61 243.35 49.68 243.35 54.49 240.66"/></g><text class="cls-1" transform="translate(7.06 255.98)"><tspan x="0" y="0">Conser</tspan><tspan class="cls-36" x="31.58" y="0">v</tspan><tspan x="36.57" y="0">ed uORFs</tspan></text></g><g><text class="cls-1" transform="translate(168.79 255.85)"><tspan x="0" y="0">MSAs</tspan></text><g><g class="cls-32"><path id="path82275" class="cls-5" d="M186.74,224.85h4.26v-3.62h-4.26v3.62Z"/><path id="path94101" class="cls-2" d="M169.75,224.85h4.26v-3.62h-4.26v3.62Z"/><path id="path94931" class="cls-6" d="M174,224.85h4.26v-3.62h-4.26v3.62Z"/><path id="path95641" class="cls-2" d="M178.26,224.85h4.26v-3.62h-4.26v3.62Z"/><path id="path96335" class="cls-4" d="M182.52,224.85h4.26v-3.62h-4.26v3.62Z"/><path id="path82275-9" class="cls-5" d="M208.01,224.85h4.26v-3.62h-4.26v3.62Z"/><path id="path94101-9" class="cls-3" d="M191.01,224.85h4.26v-3.62h-4.26v3.62Z"/><path id="path94931-6" class="cls-4" d="M195.27,224.85h4.26v-3.62h-4.26v3.62Z"/><path id="path95641-0" class="cls-3" d="M199.53,224.85h4.26v-3.62h-4.26v3.62Z"/><path id="path96335-1" class="cls-4" d="M203.78,224.85h4.26v-3.62h-4.26v3.62Z"/><path id="path82275-9-4" class="cls-5" d="M208.01,228.55h4.26v-3.62h-4.26v3.62Z"/><path id="path94101-9-2" class="cls-6" d="M191.01,228.55h4.26v-3.62h-4.26v3.62Z"/><path id="path94931-6-1" class="cls-4" d="M195.27,228.55h4.26v-3.62h-4.26v3.62Z"/><path id="path95641-0-0" class="cls-3" d="M199.53,228.55h4.26v-3.62h-4.26v3.62Z"/><path id="path96335-1-6" class="cls-2" d="M203.78,228.55h4.26v-3.62h-4.26v3.62Z"/><path id="path82275-7" class="cls-5" d="M186.74,228.55h4.26v-3.62h-4.26v3.62Z"/><path id="path94101-1" class="cls-2" d="M169.75,228.55h4.26v-3.62h-4.26v3.62Z"/><path id="path94931-2" class="cls-6" d="M174,228.55h4.26v-3.62h-4.26v3.62Z"/><path id="path95641-2" class="cls-5" d="M178.26,228.55h4.26v-3.62h-4.26v3.62Z"/><path id="path96335-7" class="cls-4" d="M182.52,228.55h4.26v-3.62h-4.26v3.62Z"/><path id="path82275-7-9" class="cls-5" d="M186.74,232.24h4.26v-3.62h-4.26v3.62Z"/><path id="path94101-1-3" class="cls-2" d="M169.75,232.24h4.26v-3.62h-4.26v3.62Z"/><path id="path94931-2-7" class="cls-3" d="M174,232.24h4.26v-3.62h-4.26v3.62Z"/><path id="path95641-2-1" class="cls-2" d="M178.26,232.24h4.26v-3.62h-4.26v3.62Z"/><path id="path96335-7-5" class="cls-4" d="M182.52,232.24h4.26v-3.62h-4.26v3.62Z"/><path id="path82275-9-4-3" class="cls-5" d="M208.01,232.24h4.26v-3.62h-4.26v3.62Z"/><path id="path94101-9-2-7" class="cls-6" d="M191.01,232.24h4.26v-3.62h-4.26v3.62Z"/><path id="path94931-6-1-8" class="cls-4" d="M195.27,232.24h4.26v-3.62h-4.26v3.62Z"/><path id="path95641-0-0-4" class="cls-3" d="M199.53,232.24h4.26v-3.62h-4.26v3.62Z"/><path id="path96335-1-6-7" class="cls-4" d="M203.78,232.24h4.26v-3.62h-4.26v3.62Z"/><path id="path82275-95" class="cls-5" d="M186.74,235.94h4.26v-3.62h-4.26v3.62Z"/><path id="path94101-0" class="cls-2" d="M169.75,235.94h4.26v-3.62h-4.26v3.62Z"/><path id="path94931-3" class="cls-3" d="M174,235.94h4.26v-3.62h-4.26v3.62Z"/><path id="path95641-02" class="cls-2" d="M178.26,235.94h4.26v-3.62h-4.26v3.62Z"/><path id="path96335-8" class="cls-4" d="M182.52,235.94h4.26v-3.62h-4.26v3.62Z"/><path id="path82275-9-1" class="cls-5" d="M208.01,235.94h4.26v-3.62h-4.26v3.62Z"/><path id="path94101-9-7" class="cls-3" d="M191.01,235.94h4.26v-3.62h-4.26v3.62Z"/><path id="path94931-6-8" class="cls-4" d="M195.27,235.94h4.26v-3.62h-4.26v3.62Z"/><path id="path95641-0-6" class="cls-3" d="M199.53,235.94h4.26v-3.62h-4.26v3.62Z"/><path id="path96335-1-8" class="cls-4" d="M203.78,235.94h4.26v-3.62h-4.26v3.62Z"/><path id="path82275-9-4-7" class="cls-5" d="M208.01,239.63h4.26v-3.62h-4.26v3.62Z"/><path id="path94101-9-2-4" class="cls-3" d="M191.01,239.63h4.26v-3.62h-4.26v3.62Z"/><path id="path94931-6-1-0" class="cls-4" d="M195.27,239.63h4.26v-3.62h-4.26v3.62Z"/><path id="path95641-0-0-0" class="cls-3" d="M199.53,239.63h4.26v-3.62h-4.26v3.62Z"/><path id="path96335-1-6-8" class="cls-2" d="M203.78,239.63h4.26v-3.62h-4.26v3.62Z"/><path id="path82275-7-6" class="cls-5" d="M186.74,239.63h4.26v-3.62h-4.26v3.62Z"/><path id="path94101-1-4" class="cls-2" d="M169.75,239.63h4.26v-3.62h-4.26v3.62Z"/><path id="path94931-2-6" class="cls-6" d="M174,239.63h4.26v-3.62h-4.26v3.62Z"/><path id="path95641-2-3" class="cls-5" d="M178.26,239.63h4.26v-3.62h-4.26v3.62Z"/><path id="path96335-7-7" class="cls-4" d="M182.52,239.63h4.26v-3.62h-4.26v3.62Z"/><path id="path82275-7-9-4" class="cls-5" d="M186.74,243.33h4.26v-3.62h-4.26v3.62Z"/><path id="path94101-1-3-6" class="cls-2" d="M169.75,243.33h4.26v-3.62h-4.26v3.62Z"/><path id="path94931-2-7-8" class="cls-3" d="M174,243.33h4.26v-3.62h-4.26v3.62Z"/><path id="path95641-2-1-2" class="cls-2" d="M178.26,243.33h4.26v-3.62h-4.26v3.62Z"/><path id="path96335-7-5-3" class="cls-4" d="M182.52,243.33h4.26v-3.62h-4.26v3.62Z"/><path id="path82275-9-4-3-4" class="cls-5" d="M208.01,243.33h4.26v-3.62h-4.26v3.62Z"/><path id="path94101-9-2-7-4" class="cls-3" d="M191.01,243.33h4.26v-3.62h-4.26v3.62Z"/><path id="path94931-6-1-8-3" class="cls-4" d="M195.27,243.33h4.26v-3.62h-4.26v3.62Z"/><path id="path95641-0-0-4-3" class="cls-3" d="M199.53,243.33h4.26v-3.62h-4.26v3.62Z"/><path id="path96335-1-6-7-2" class="cls-4" d="M203.78,243.33h4.26v-3.62h-4.26v3.62Z"/></g><g class="cls-32"><path id="path94101-2" class="cls-2" d="M217.7,224.87h4.26v-3.62h-4.26v3.62Z"/><path id="path94101-1-2" class="cls-2" d="M217.7,228.57h4.26v-3.62h-4.26v3.62Z"/><path id="path94101-1-3-2" class="cls-2" d="M217.7,232.26h4.26v-3.62h-4.26v3.62Z"/><path id="path94101-0-2" class="cls-2" d="M217.7,235.96h4.26v-3.62h-4.26v3.62Z"/><path id="path94101-1-4-2" class="cls-2" d="M217.7,239.65h4.26v-3.62h-4.26v3.62Z"/><path id="path94101-1-3-6-2" class="cls-2" d="M217.7,243.35h4.26v-3.62h-4.26v3.62Z"/><path id="path95641-0-2" class="cls-3" d="M222.15,224.83h4.26v-3.62h-4.26v3.62Z"/><path id="path95641-0-0-2" class="cls-3" d="M222.15,228.53h4.26v-3.62h-4.26v3.62Z"/><path id="path95641-0-0-4-2" class="cls-3" d="M222.15,232.22h4.26v-3.62h-4.26v3.62Z"/><path id="path95641-0-6-2" class="cls-3" d="M222.15,235.92h4.26v-3.62h-4.26v3.62Z"/><path id="path95641-0-0-0-2" class="cls-3" d="M222.15,239.61h4.26v-3.62h-4.26v3.62Z"/><path id="path95641-0-0-4-3-2" class="cls-3" d="M222.15,243.31h4.26v-3.62h-4.26v3.62Z"/><path id="path82275-9-2" class="cls-5" d="M226.41,224.83h4.26v-3.62h-4.26v3.62Z"/><path id="path82275-9-4-2" class="cls-3" d="M226.41,228.53h4.26v-3.62h-4.26v3.62Z"/><path id="path82275-9-4-3-2" class="cls-3" d="M226.41,232.22h4.26v-3.62h-4.26v3.62Z"/><path id="path82275-9-1-2" class="cls-3" d="M226.41,235.92h4.26v-3.62h-4.26v3.62Z"/><path id="path82275-9-4-7-2" class="cls-5" d="M226.41,239.61h4.26v-3.62h-4.26v3.62Z"/><path id="path82275-9-4-3-4-2" class="cls-5" d="M226.41,243.31h4.26v-3.62h-4.26v3.62Z"/></g></g></g><rect class="cls-26" x="1.32" y="214.53" width="237.25" height="47.86" rx="5.67" ry="5.67"/><g><g><g class="cls-32"><path id="path331476" class="cls-8" d="M150.78,243.08h-1.35v-21.82h5.5v2.45h-4.15v7.7h3.87v2.45h-3.87v9.22Z"/><path id="path331494" class="cls-7" d="M147.88,221.27h.94l-2.31,22.08h-.88l-2.3-22.08h.93l1.39,14,.02,.19,.02,.18,.02,.18,.02,.18v.18s.03,.18,.03,.18l.02,.18v.18s.03,.18,.03,.18v.18s.03,.17,.03,.17v.18s.02,.17,.02,.17l.02,.17v.17h.01v.17s.02,.17,.02,.17v.17s.02,.16,.02,.16v.16s.02,.16,.02,.16v.16s.02,.16,.02,.16v.16s.02,.16,.02,.16v.15s.02,.16,.02,.16v.15s.02,.15,.02,.15v.15h.01v-.15s.02-.15,.02-.15v-.15s.02-.16,.02-.16v-.15s.02-.16,.02-.16v-.16s.02-.16,.02-.16v-.16s.02-.16,.02-.16l.02-.16v-.16s.02-.17,.02-.17v-.17s.03-.17,.03-.17h0v-.17s.02-.17,.02-.17l.02-.18,.02-.18v-.18s.03-.18,.03-.18l.02-.18v-.18s.03-.19,.03-.19l.02-.19,.02-.19,.02-.19,.02-.19,.02-.2,.02-.19h0l1.38-13.91Z"/><path id="path331498" class="cls-8" d="M161.03,234.59v.73s-.01,.26-.01,.26v.26s-.02,.21-.02,.21v.26s-.03,.21-.03,.21l-.02,.26-.02,.21-.02,.21-.02,.26-.03,.21-.03,.21-.03,.21h0l-.03,.21-.04,.21-.04,.21-.04,.21-.04,.21-.04,.21-.04,.21-.05,.21-.05,.1-.05,.21-.05,.21-.05,.1-.05,.21-.06,.1-.06,.21h0l-.06,.1-.07,.1-.07,.21-.07,.1-.07,.1-.07,.1-.08,.1-.07,.21-.08,.1-.08,.1h-.08l-.09,.1-.09,.1-.09,.1-.09,.1h-.09l-.09,.1-.1,.1h-.09l-.1,.1h-.1l-.1,.1h-.31l-.1,.1h-2.31v-14.56h2.38l.1,.1h.29l.1,.1h.09l.09,.1h.09l.09,.1h.09l.09,.1,.09,.1h.08l.09,.1,.08,.1,.08,.1,.07,.1,.08,.1,.07,.1,.07,.1,.07,.1,.07,.1,.07,.1,.07,.1,.06,.1,.06,.21,.06,.1h0l.06,.21,.05,.1,.05,.1,.05,.21,.05,.21,.05,.1,.05,.21,.04,.21,.04,.1,.04,.21,.04,.21,.04,.21,.04,.21,.04,.21,.03,.21h0l.03,.21,.03,.21,.03,.21,.02,.21,.02,.21,.02,.26,.02,.21,.02,.21v.26s.02,.21,.02,.21v.26s.02,.21,.02,.21v.26s0,.21,0,.21v.26h0l-1,.1v-.47s0-.21,0-.21v-.21s-.01-.21-.01-.21v-.21s-.02-.21-.02-.21v-.21s-.02-.21-.02-.21l-.02-.1v-.21s-.03-.21-.03-.21l-.02-.21-.02-.1-.02-.21h0l-.02-.21-.02-.1-.02-.21-.02-.1-.03-.21-.03-.1-.03-.1-.04-.21-.03-.1-.04-.1-.04-.21-.04-.1-.04-.1-.04-.1-.04-.1h0l-.04-.1-.05-.1-.04-.1-.05-.1-.05-.1-.05-.1-.05-.1h-.05l-.05-.1-.05-.1h-.06l-.05-.1-.06-.1h-.06l-.06-.1h-.06l-.07-.1h-.06l-.07-.1h-.21l-.07-.1h-.29l-.08-.1h-1.18v11.42h1.01l.17-.1h.32l.15-.1,.15-.1,.14-.1,.13-.1,.13-.1,.12-.21,.12-.1,.11-.21,.11-.21,.1-.21,.1-.21h0l.09-.21,.08-.26,.08-.21,.07-.26,.07-.26,.05-.26,.05-.26,.04-.26,.04-.31,.03-.26,.03-.31,.02-.31,.02-.31v-.31s.01-.31,.01-.31h0l1-1.15Z"/><path id="path331564" class="cls-14" d="M156.62,225.52v3.04h-.72v-7.35h1.51s.13,.01,.13,.01h.12s.12,.03,.12,.03l.11,.02,.11,.02,.11,.03,.1,.03,.1,.04,.09,.04,.09,.05,.08,.05,.08,.06,.07,.06,.07,.07h0l.06,.07,.06,.07,.05,.08,.05,.08,.05,.09,.04,.09,.04,.1,.03,.11,.03,.11,.03,.11,.02,.12,.02,.13v.13s.02,.13,.02,.13v.14h0v.06s0,.06,0,.06v.11s0,.05,0,.05v.05s0,.05,0,.05v.05s-.02,.05-.02,.05v.05s-.02,.05-.02,.05v.05s-.02,.05-.02,.05v.04s-.02,.04-.02,.04h0v.04s-.03,.04-.03,.04l-.02,.04v.04s-.03,.04-.03,.04v.04s-.03,.04-.03,.04l-.02,.04-.02,.04-.02,.03-.02,.04-.02,.03-.02,.03-.02,.03-.02,.03h0l-.02,.03-.02,.03-.02,.03-.02,.03-.02,.03-.03,.03-.02,.03-.03,.02-.03,.03-.02,.02-.03,.02-.03,.02-.03,.02-.03,.02-.03,.02h0l-.03,.02-.03,.02-.03,.02-.03,.02-.03,.02-.03,.02-.03,.02-.03,.02h-.03s-.03,.03-.03,.03l-.03,.02h-.03s-.03,.03-.03,.03h-.03s-.03,.02-.03,.02h0l1.54,3.29h-.84l-1.36-3.04h-.88v-.79h.77s.04,0,.04,0h.04s.04,0,.04,0h.04s.04-.01,.04-.01h.04s.03-.02,.03-.02h.04s.04-.02,.04-.02h.03s.03-.02,.03-.02h.03s.03-.02,.03-.02h.03s.03-.02,.03-.02h.03s.03-.03,.03-.03h.03s.03-.03,.03-.03l.03-.02,.03-.02,.03-.02,.03-.02,.02-.02,.03-.02,.02-.02,.02-.02h0l.02-.02,.02-.03,.02-.02,.02-.03,.02-.03,.02-.03,.02-.03,.02-.03v-.03s.03-.03,.03-.03v-.03s.03-.03,.03-.03v-.03s.02-.03,.02-.03v-.03h.01v-.03s.02-.04,.02-.04v-.04s.02-.04,.02-.04v-.04s.01-.04,.01-.04v-.04s0-.04,0-.04v-.04s0-.04,0-.04v-.04s0-.04,0-.04v-.04s0-.05,0-.05v-.04h0v-.14s0-.04,0-.04v-.04s0-.04,0-.04v-.04s0-.04,0-.04v-.04s-.01-.04-.01-.04v-.04s-.02-.04-.02-.04v-.04s-.02-.03-.02-.03v-.03h0v-.03s-.02-.03-.02-.03v-.03s-.03-.03-.03-.03l-.02-.03v-.03s-.03-.03-.03-.03v-.03s-.03-.03-.03-.03l-.02-.02-.02-.03-.02-.02-.02-.02-.02-.02-.02-.02h0l-.02-.02-.02-.02-.03-.02-.02-.02-.03-.02-.03-.02-.03-.02-.03-.02h-.03s-.03-.02-.03-.02h-.03s-.03-.02-.03-.02h-.03s-.03-.02-.03-.02h-.03s-.03-.02-.03-.02h-.03s-.03-.02-.03-.02h-.03s-.04-.02-.04-.02h-.03s-.04-.02-.04-.02h-.04s-.04-.01-.04-.01h-.04s-.04,0-.04,0h-.08s-.04,0-.04,0h-.66v3.52Z"/></g><g class="cls-32"><path id="path331478" class="cls-7" d="M115.23,243.3v-22.03h1.35v19.53h4.19v2.5h-5.54Z"/><path id="path331484" class="cls-16" d="M124.68,241.69h-1.02v-18.13h-2.27v-2.29h5.55v2.29h-2.26v18.13Z"/><path id="path331490" class="cls-7" d="M133.1,241.15h-5.55v-.37l1.8-.15v-4.32l-1.8-.15v-.37h5.55v.37l-1.8,.15v4.32l1.8,.15v.37Z"/><path id="path331492" class="cls-7" d="M127.56,243.35v-1.13h1.36v1h4.19v.13h-5.55Z"/><path id="path331494-2" class="cls-7" d="M132.16,221.27h.95l-2.33,14.51h-.89l-2.32-14.51h.94l1.4,9.2,.02,.12,.02,.12,.02,.12,.02,.12v.12s.03,.12,.03,.12l.02,.12v.12s.03,.12,.03,.12v.12s.03,.11,.03,.11v.12s.02,.11,.02,.11l.02,.11v.11h.01v.11s.02,.11,.02,.11v.11s.02,.11,.02,.11v.11s.02,.11,.02,.11v.11s.02,.11,.02,.11v.1s.02,.1,.02,.1v.1s.02,.1,.02,.1v.1s.02,.1,.02,.1v.1h.01v-.1s.02-.1,.02-.1v-.1s.02-.1,.02-.1v-.1s.02-.1,.02-.1v-.1s.02-.11,.02-.11v-.11s.02-.11,.02-.11l.02-.11v-.11s.02-.11,.02-.11v-.11s.03-.11,.03-.11h0v-.11s.02-.11,.02-.11l.02-.12,.02-.12v-.12s.03-.12,.03-.12l.02-.12v-.12s.03-.12,.03-.12l.02-.12,.02-.13,.02-.12,.02-.13,.02-.13,.02-.13h0l1.4-9.14Z"/><path id="path331498-2" class="cls-8" d="M139.26,243.02h0v.02h0s0,.02,0,.02h-.01s-.01,.02-.01,.02h-.01s-.02,.02-.02,.02h-.02s-.02,.02-.02,.02h-.02s-.02,.02-.02,.02h-.03s-.03,.02-.03,.02h-.03s-.03,.02-.03,.02h-.04s-.04,.02-.04,.02h-.04s-.04,.02-.04,.02h-.04s-.04,.02-.04,.02h-.05s-.05,.01-.05,.01h-.05s-.06,.02-.06,.02h-.06s-.06,.01-.06,.01h-.06s-.06,.01-.06,.01h-.06s-.07,0-.07,0h-.07s-.07,.01-.07,.01h-.07s-.07,0-.07,0h-.08s-.07,.01-.07,.01h-.08s-.08,0-.08,0h-.17s-.09,0-.09,0h-.09s-.09,0-.09,0h-.18s-.1,0-.1,0h-.19s-.1,0-.1,0h-.1s-.1,0-.1,0h-.31s-.11,0-.11,0h-2.22v-.54h2.51s.1,0,.1,0h.29s.09,0,.09,0h.09s.09,0,.09,0h.09s.09,0,.09,0h.09s.09,0,.09,0h.17s.08,0,.08,0h.08s.07,0,.07,0h.08s.07,0,.07,0h.07s.07,0,.07,0h.07s.07,0,.07,0h.07s.06,0,.06,0h.06s.06,.01,.06,.01h.06s.06,.01,.06,.01h.06s.06,.01,.06,.01h.05s.05,.01,.05,.01h.05s.04,.02,.04,.02h.04s.04,.01,.04,.01h.04s.04,.02,.04,.02h.04s.04,.02,.04,.02h.03s.03,.02,.03,.02h.03s.03,.02,.03,.02h.02s.02,.02,.02,.02h.02s.02,.02,.02,.02h.02s.01,.02,.01,.02h.01s.01,.02,.01,.02h0s0,.02,0,.02h0v.02h-1.01s0,0,0,0h0v-.02h0s0-.02,0-.02h-.01s0-.02,0-.02h-.01s-.01-.02-.01-.02h-.02s-.01-.01-.01-.01h-.02s-.02-.02-.02-.02h-.02s-.02-.01-.02-.01h-.02s-.02-.01-.02-.01h-.02s-.02-.01-.02-.01h-.03s-.03-.01-.03-.01h-.03s-.04-.01-.04-.01h-.03s-.04,0-.04,0h-.04s-.04-.01-.04-.01h-.04s-.04,0-.04,0h-.04s-.04,0-.04,0h-.05s-.04,0-.04,0h-.05s-.05,0-.05,0h-.05s-.06,0-.06,0h-.1s-.06,0-.06,0h-.12s-.06,0-.06,0h-.12s-.06,0-.06,0h-.07s-.06,0-.06,0h-.07s-.07,0-.07,0h-.22s-.07,0-.07,0h-.3s-.08,0-.08,0h-1.11v.42h1.19s.17,0,.17,0h.31s.15,0,.15,0h.14s.14,0,.14,0h.14s.12-.01,.12-.01h.12s.11-.01,.11-.01h.11s.1-.02,.1-.02h.1s.09-.02,.09-.02h.08s.08-.02,.08-.02h.07s.07-.02,.07-.02h.06s.06-.02,.06-.02h.04s.04-.02,.04-.02h.03s.03-.02,.03-.02h.02s.02-.02,.02-.02h0s0-.02,0-.02h0l1.01-.04Z"/><path id="path331592" class="cls-7" d="M101.44,236.31l-.71-4.64h-2.43l-.72,4.64h-.84l2.39-15.05h.76l2.4,15.05h-.84l-.98-6.33-.66-4.35v-.05s-.01-.03-.01-.03v-.05s-.01-.03-.01-.03v-.06s-.01-.03-.01-.03v-.06s-.01-.03-.01-.03v-.03s-.01-.04-.01-.04v-.04h0v-.07s-.01-.04-.01-.04v-.04s-.01-.04-.01-.04v-.08s-.01-.04-.01-.04v-.04s-.01-.04-.01-.04v-.08s-.01-.04-.01-.04v-.04s-.01-.04-.01-.04h0v-.04s-.01-.04-.01-.04v-.08s-.01-.04-.01-.04v-.04s-.01-.04-.01-.04v-.05s-.01-.04-.01-.04v-.04s0-.04,0-.04v-.05s-.01-.04-.01-.04v-.05s-.01-.04-.01-.04h0v-.05s-.01-.05-.01-.05v-.09s-.01-.05-.01-.05v-.04s-.01-.05-.01-.05v-.04s0-.05,0-.05v-.04s-.01-.05-.01-.05v-.04s-.01-.04-.01-.04v-.09h0v.04s-.01,.05-.01,.05v.08s-.01,.05-.01,.05v.09s-.01,.04-.01,.04v.05s-.01,.04-.01,.04v.09s-.01,.05-.01,.05v.05s-.01,.05-.01,.05h0v.05s-.01,.05-.01,.05v.09s-.01,.05-.01,.05v.05s-.01,.04-.01,.04v.05s-.01,.04-.01,.04v.09s-.01,.05-.01,.05v.04s-.01,.04-.01,.04v.04h0v.04s-.01,.04-.01,.04v.08s-.01,.04-.01,.04v.04s-.01,.04-.01,.04v.04s-.01,.04-.01,.04v.07s-.01,.04-.01,.04v.04s-.01,.04-.01,.04v.04h0v.03s0,.03,0,.03v.03s-.01,.03-.01,.03v.03s0,.03,0,.03v.03s-.01,.03-.01,.03v.05s-.01,.03-.01,.03v.05s0,.03,0,.03v.02h0l-.65,4.35h1.9l.98,6.33Z"/><path id="path331596" class="cls-16" d="M100.02,242.76h-1.02v-5.73h-2.27v-.72h5.54v.72h-2.26v5.73Z"/><path id="path331598" class="cls-7" d="M107.51,221.27h.94l-2.33,22.03h-.89l-2.32-22.03h.94l1.4,13.97,.02,.18,.02,.18,.02,.18,.02,.18,.02,.18v.18s.03,.18,.03,.18v.18s.03,.17,.03,.17v.18s.03,.17,.03,.17v.17s.03,.17,.03,.17v.17s.02,.17,.02,.17h0v.17s.02,.17,.02,.17v.16s.02,.16,.02,.16v.16s.03,.16,.03,.16v.16s.02,.16,.02,.16v.16s.02,.15,.02,.15v.15s.02,.15,.02,.15v.15s.02,.15,.02,.15v.15h0v-.15s.02-.15,.02-.15v-.15s.02-.15,.02-.15v-.15s.02-.15,.02-.15v-.16s.02-.16,.02-.16v-.16s.02-.16,.02-.16v-.16s.02-.16,.02-.16v-.16s.02-.17,.02-.17l.02-.17h0v-.17s.03-.17,.03-.17v-.17s.03-.18,.03-.18v-.18s.03-.18,.03-.18l.02-.18,.02-.18v-.18s.03-.19,.03-.19l.02-.19,.02-.19,.02-.19,.02-.19,.02-.19h0l1.4-13.88Z"/><path id="path331556" class="cls-7" d="M136.3,241.32h1.63v.77h-.05s-.03,0-.03,0h-.03s-.03,0-.03,0h-.03s-.02,0-.02,0h-.03s-.03,0-.03,0h-.03s-.03,0-.03,0h-.05s-.02,0-.02,0h-.05s-.03,0-.03,0h-.03s-.03,0-.03,0h-.05s-.03,0-.03,0h-.03s-.03,0-.03,0h-.03s-.03,0-.03,0h-.03s-.03,0-.03,0h-.05s-.03,0-.03,0h-.03s-.03,0-.03,0h-.06s-.03,0-.03,0h-.03s-.03,0-.03,0h-.06s-.03,0-.03,0h-.09s-.03,0-.03,0h-.12s-.03,0-.03,0h-.6s-.06,0-.06,0h-.06s-.06,0-.06,0h-.06s-.06-.01-.06-.01h-.06s-.06-.01-.06-.01h-.06s-.06-.02-.06-.02h-.06s-.06-.02-.06-.02h-.06s-.05-.02-.05-.02h-.05s-.05-.02-.05-.02h-.05s-.05-.02-.05-.02h-.05s-.04-.02-.04-.02h-.05s-.04-.02-.04-.02h-.04s-.04-.02-.04-.02h-.04s-.04-.03-.04-.03h-.04s-.04-.02-.04-.02l-.03-.02h-.03s-.03-.03-.03-.03l-.03-.02-.03-.02-.03-.02-.03-.02-.03-.02-.03-.02-.03-.02-.03-.02-.02-.02-.02-.02-.02-.02h0l-.02-.02-.02-.02-.02-.02v-.02s-.03-.02-.03-.02v-.02s-.03-.02-.03-.02v-.02s-.02-.02-.02-.02v-.02s-.01-.02-.01-.02v-.02s0-.03,0-.03v-.05h0v-.07s0-.02,0-.02v-.02s.02-.02,.02-.02v-.02s.02-.02,.02-.02v-.02s.03-.02,.03-.02l.02-.02v-.02s.03-.02,.03-.02l.02-.02,.02-.02h0l.02-.02,.02-.02,.03-.02,.03-.02,.03-.02,.03-.02,.03-.02,.03-.02,.03-.02,.03-.02,.04-.02,.03-.02h.04s.04-.03,.04-.03h.04s.04-.03,.04-.03h.04s.05-.02,.05-.02h.04s.05-.02,.05-.02h.05s.05-.02,.05-.02h.05s.06-.02,.06-.02h.05s.06-.02,.06-.02h.06s.06-.02,.06-.02h.06s.06-.02,.06-.02h.06s.06-.02,.06-.02h.06s.06-.01,.06-.01h.06s.07-.02,.07-.02h.06s.07,0,.07,0h.07s.07,0,.07,0h.07s.07,0,.07,0h.08s.07,0,.07,0h.27s.05,0,.05,0h.09s.05,0,.05,0h.05s.05,0,.05,0h.05s.05,0,.05,0h.05s.04,0,.04,0h.09s.04,.01,.04,.01h.05s.04,0,.04,0h.05s.04,0,.04,0h.04s.04,.01,.04,.01h.04s.04,.01,.04,.01h.04s.04,.01,.04,.01h.04s.04,.02,.04,.02h.04s-.24,.18-.24,.18h-.02s-.01,0-.01,0h-.02s-.02,0-.02,0h-.02s-.02,0-.02,0h-.03s-.02,0-.02,0h-.02s-.02,0-.02,0h-.02s-.02,0-.02,0h-.03s-.02,0-.02,0h-.03s-.02,0-.02,0h-.04s-.02,0-.02,0h-.02s-.02,0-.02,0h-.02s-.02,0-.02,0h-.04s-.02,0-.02,0h-.02s-.02,0-.02,0h-.02s-.02,0-.02,0h-.02s-.02,0-.02,0h-.02s-.02,0-.02,0h-.04s-.02,0-.02,0h-.02s-.02,0-.02,0h-.04s-.02,0-.02,0h-.04s-.02,0-.02,0h-.08s-.02,0-.02,0h-.36s-.05,0-.05,0h-.05s-.05,0-.05,0h-.05s-.05,0-.05,0h-.05s-.05,0-.05,0h-.05s-.04,.01-.04,.01h-.04s-.04,.01-.04,.01h-.04s-.04,.02-.04,.02h-.04s-.04,.02-.04,.02h-.04s-.04,.02-.04,.02h-.03s-.04,.02-.04,.02h-.03s-.03,.02-.03,.02h-.03s-.03,.02-.03,.02h-.03s-.03,.02-.03,.02h-.03s-.03,.02-.03,.02h-.03s-.03,.02-.03,.02h-.03s-.03,.02-.03,.02h-.02s-.02,.02-.02,.02h-.02s-.02,.02-.02,.02l-.02,.02h-.02s-.02,.03-.02,.03h-.02s-.02,.03-.02,.03l-.02,.02h-.01s-.01,.03-.01,.03v.02s-.03,.02-.03,.02v.02s-.02,.02-.02,.02v.02s-.02,.02-.02,.02v.02s-.01,.02-.01,.02v.02s0,.02,0,.02v.03s0,.02,0,.02h0v.04s0,.02,0,.02v.02s0,.02,0,.02v.02s0,.02,0,.02v.02s.01,.02,.01,.02v.02s.02,.02,.02,.02v.02s.02,.02,.02,.02v.02s.02,.02,.02,.02h.02s.01,.03,.01,.03v.02s.03,.01,.03,.01l.02,.02h.02s.02,.02,.02,.02h.02s.02,.02,.02,.02h.02s.02,.02,.02,.02h.03s.03,.02,.03,.02h.03s.03,.02,.03,.02h.03s.03,.02,.03,.02h.03s.03,.02,.03,.02h.03s.03,.02,.03,.02h.03s.03,.02,.03,.02h.04s.03,.02,.03,.02h.04s.04,.02,.04,.02h.04s.04,.02,.04,.02h.04s.04,.02,.04,.02h.05s.04,.01,.04,.01h.05s.05,.01,.05,.01h.05s.05,0,.05,0h.05s.05,0,.05,0h.06s.06,0,.06,0h.06s.06,0,.06,0h.41s.02,0,.02,0h.09s.01,0,.01,0h.08s.01,0,.01,0h.06s.01,0,.01,0h.06s.01,0,.01,0h.04s.01,0,.01,0h.03s.01,0,.01,0h.04s.01,0,.01,0h.03s.01,0,.01,0h.03v-.47h-1.01v-.18Z"/><path id="path331558" class="cls-7" d="M137.93,240.56h-3.84v-.11l1.25-.05v-1.3l-1.25-.05v-.11h3.84v.11l-1.25,.05v1.3l1.25,.05v.11Z"/><path id="path331560" class="cls-16" d="M137.93,234.65h-.76l-2.52-5.34h-.03v.05s0,.05,0,.05v.09s0,.05,0,.05v.09s0,.05,0,.05v.05s0,.05,0,.05v.05s0,.05,0,.05v.05s0,.05,0,.05v.05h0v.07s0,.04,0,.04v.08s0,.04,0,.04v.08s0,.04,0,.04v.08s0,.04,0,.04v.13h0v.12s0,.04,0,.04v.15s0,.04,0,.04v.21h0v3.5h-.6v-6.45h.75l2.51,5.31h.02v-.13s0-.05,0-.05v-.09s0-.05,0-.05v-.09s0-.04,0-.04v-.05s0-.04,0-.04v-.09s0-.05,0-.05h0v-.04s0-.02,0-.02v-.11s0-.02,0-.02v-.08s0-.02,0-.02h0v-.12s0-.02,0-.02v-.1s0-.02,0-.02v-.04h0v-.06s0-.02,0-.02v-.15s0-.02,0-.02v-.04h0v-.24h0v-3.53h.61v6.44Z"/><path id="path331562" class="cls-16" d="M137.93,235.71v.1s0,.02,0,.02v.03s0,.02,0,.02v.02s0,.02,0,.02v.02s-.01,.02-.01,.02v.02s-.02,.02-.02,.02v.02s-.02,.02-.02,.02h0v.02s-.02,.02-.02,.02v.02s-.03,.02-.03,.02v.02s-.03,.02-.03,.02v.02s-.03,.02-.03,.02v.02s-.03,.02-.03,.02l-.02,.02-.02,.02-.02,.02-.02,.02-.02,.02h0l-.02,.02-.02,.02-.02,.02-.02,.02-.02,.02h-.02s-.03,.03-.03,.03l-.02,.02h-.03s-.03,.02-.03,.02l-.03,.02h-.03s-.03,.02-.03,.02h-.03s-.03,.02-.03,.02h-.03s-.03,.02-.03,.02h-.03s-.03,.02-.03,.02h-.03s-.03,.02-.03,.02h-.03s-.03,.02-.03,.02h-.03s-.03,.02-.03,.02h-.03s-.03,.02-.03,.02h-.04s-.03,.02-.03,.02h-.04s.02,.03,.02,.03l.02,.02,.02,.02,.02,.02,.02,.02,.02,.02,.02,.02,.03,.02,.02,.02h.03s.02,.03,.02,.03h.03s.03,.03,.03,.03h.03s.03,.02,.03,.02h.03s.03,.02,.03,.02l.03,.02h.03s.03,.02,.03,.02h.03s.03,.02,.03,.02h.03s.03,.02,.03,.02h.03s.03,.02,.03,.02h.03s.03,.02,.03,.02h.03s.04,.02,.04,.02h0l-.37,.2h-.04s-.04-.02-.04-.02l-.04-.02h-.04s-.04-.03-.04-.03l-.04-.02-.04-.02-.04-.02-.04-.02-.04-.02-.03-.02-.04-.02-.03-.02-.04-.02-.03-.02h0l-.03-.02-.03-.02-.03-.02-.03-.02-.03-.02-.03-.02-.03-.02-.03-.02-.03-.02-.03-.02-.03-.02-.03-.03-.02-.02-.02-.02-.02-.02h-.07s0,0,0,0h-.35s-.06,0-.06,0h-.06s-.06,0-.06,0h-.06s-.06-.01-.06-.01h-.06s-.06-.02-.06-.02h-.06s-.05-.02-.05-.02h-.05s-.05-.02-.05-.02h-.05s-.05-.02-.05-.02h-.05s-.05-.02-.05-.02h-.04s-.05-.02-.05-.02h-.04s-.04-.03-.04-.03h-.04s-.04-.03-.04-.03l-.03-.02-.04-.02-.03-.02-.04-.02-.03-.02-.03-.02h0l-.03-.02-.03-.02-.03-.02-.03-.02-.03-.02-.03-.02-.03-.02-.02-.02-.02-.02-.02-.02-.02-.03-.02-.02-.02-.03-.02-.03v-.03h-.01l-.02-.03v-.03s-.03-.03-.03-.03v-.03s-.02-.03-.02-.03v-.03s-.02-.03-.02-.03v-.03s-.01-.03-.01-.03v-.03s0-.03,0-.03v-.03s0-.03,0-.03v-.06h0v-.09s0-.03,0-.03v-.03s0-.03,0-.03v-.03s.01-.03,.01-.03v-.03s.02-.03,.02-.03v-.03s.02-.03,.02-.03v-.03s.03-.03,.03-.03l.02-.03h0v-.03s.03-.03,.03-.03l.02-.03,.02-.03,.02-.02,.02-.02,.02-.02,.03-.02,.02-.02,.03-.02,.03-.02,.03-.02,.03-.02,.03-.02,.03-.02h0l.03-.02,.03-.02,.03-.02,.04-.02,.03-.02,.04-.02h.04s.04-.03,.04-.03h.04s.04-.02,.04-.02h.05s.04-.02,.04-.02h.05s.05-.02,.05-.02h.05s.05-.02,.05-.02h.05s.05-.02,.05-.02h.06s.05-.02,.05-.02h.06s.06-.02,.06-.02h.06s.06-.01,.06-.01h.06s.06,0,.06,0h.06s.06,0,.06,0h.37s.06,0,.06,0h.06s.06,.01,.06,.01h.06s.05,.01,.05,.01h.06s.05,.02,.05,.02h.05s.05,.02,.05,.02h.05s.05,.02,.05,.02h.05s.05,.02,.05,.02h.05s.04,.02,.04,.02h.04s.04,.02,.04,.02h.04s.04,.03,.04,.03h.04s.04,.03,.04,.03l.04,.02,.03,.02,.03,.02,.03,.02,.03,.02h0l.03,.02,.03,.02,.03,.02,.03,.02,.03,.02,.03,.02,.03,.02,.02,.02,.03,.02,.02,.02,.02,.03,.02,.02,.02,.03,.02,.03,.02,.03h0l.02,.03v.03s.03,.03,.03,.03v.03s.02,.03,.02,.03v.03s.02,.03,.02,.03v.03s.02,.03,.02,.03v.03s0,.03,0,.03v.03s0,.03,0,.03v.06h-3.24v.1s0,.03,0,.03v.02s0,.02,0,.02v.03s0,.02,0,.02v.02s.01,.02,.01,.02v.02s.02,.02,.02,.02v.02s.02,.02,.02,.02h0v.02s.02,.02,.02,.02v.02s.03,.02,.03,.02v.02s.03,.02,.03,.02v.02s.03,.02,.03,.02l.02,.02,.02,.02,.02,.02,.02,.02,.02,.02h.02s.02,.03,.02,.03h.02s.03,.03,.03,.03h.02s.03,.02,.03,.02h.03s.03,.02,.03,.02h.03s.03,.02,.03,.02h.03s.03,.02,.03,.02h.03s.03,.02,.03,.02h.03s.03,.02,.03,.02h.03s.03,.02,.03,.02h.03s.03,.02,.03,.02h.04s.03,.01,.03,.01h.04s.04,.01,.04,.01h.04s.04,0,.04,0h.04s.04,0,.04,0h.09s.05,0,.05,0h.18s.04,0,.04,0h.04s.04,0,.04,0h.04s.04,0,.04,0h.04s.04-.01,.04-.01h.03s.04-.01,.04-.01h.03s.03-.02,.03-.02h.03s.03-.02,.03-.02h.03s.03-.02,.03-.02h.03s.03-.02,.03-.02h.03s.03-.02,.03-.02h.03s.03-.02,.03-.02h.03s.03-.02,.03-.02h.03s.02-.02,.02-.02l.02-.02h.02s.02-.03,.02-.03h.02s.02-.03,.02-.03l.02-.02,.02-.02,.02-.02,.02-.02,.02-.02v-.02s.03-.02,.03-.02l.02-.02v-.02s.02-.02,.02-.02v-.02s.03-.02,.03-.02h0v-.02s.02-.02,.02-.02v-.02s.02-.02,.02-.02v-.02s.01-.02,.01-.02v-.02s0-.03,0-.03v-.02s0-.02,0-.02v-.03s0-.03,0-.03v-.07h0v-.1s0-.02,0-.02v-.03s0-.02,0-.02v-.02s0-.02,0-.02v-.02s-.01-.02-.01-.02v-.02s-.02-.02-.02-.02v-.02s-.02-.02-.02-.02h0v-.02s-.03-.02-.03-.02v-.02s-.02-.02-.02-.02v-.02s-.03-.02-.03-.02v-.02s-.03-.02-.03-.02l-.02-.02-.02-.02-.02-.02-.02-.02h-.02s-.02-.03-.02-.03l-.02-.02h-.02s-.02-.02-.02-.02h-.03s-.02-.02-.02-.02h-.03s-.03-.02-.03-.02h-.03s-.03-.02-.03-.02h-.03s-.03-.02-.03-.02h-.03s-.03-.02-.03-.02h-.03s-.03-.02-.03-.02h-.03s-.03-.02-.03-.02h-.03s-.03-.02-.03-.02h-.03s-.04-.01-.04-.01h-.04s-.04-.01-.04-.01h-.04s-.04-.01-.04-.01h-.08s-.04,0-.04,0h-.32s-.04,0-.04,0h-.09s-.04,.01-.04,.01h-.04s-.04,.01-.04,.01h-.04s-.03,.01-.03,.01h-.04s-.03,.02-.03,.02h-.03s-.03,.02-.03,.02h-.03s-.03,.02-.03,.02h-.03s-.03,.02-.03,.02h-.03s-.03,.02-.03,.02h-.03s-.03,.02-.03,.02h-.03s-.03,.02-.03,.02h-.03s-.03,.02-.03,.02h-.02s-.02,.02-.02,.02h0l-.02,.02-.02,.02h-.02s-.02,.03-.02,.03l-.02,.02-.02,.02-.02,.02v.02s-.03,.02-.03,.02v.02s-.03,.02-.03,.02v.02s-.03,.02-.03,.02v.02s-.02,.02-.02,.02h0v.02s-.02,.02-.02,.02v.02s-.02,.02-.02,.02v.02s-.01,.02-.01,.02v.02s0,.02,0,.02v.02s0,.03,0,.03v.02s0,.03,0,.03v.08h0l3.24,.03Z"/><path id="path331564-2" class="cls-14" d="M134.82,225.31v2.89h-.73v-6.98h1.52s.13,.01,.13,.01h.12s.12,.03,.12,.03l.12,.02,.11,.02,.11,.03,.1,.03,.1,.04,.09,.04,.09,.05,.08,.05,.08,.05,.07,.06,.07,.06h0l.06,.07,.06,.07,.06,.08,.05,.08,.05,.09,.04,.09,.04,.09,.03,.1,.03,.11,.03,.11,.02,.11,.02,.12v.12s.02,.13,.02,.13v.13h0v.05s0,.05,0,.05v.11s0,.05,0,.05v.05s0,.05,0,.05v.05s-.02,.05-.02,.05v.05s-.02,.05-.02,.05v.05s-.02,.05-.02,.05v.04s-.02,.04-.02,.04h0v.04s-.03,.04-.03,.04l-.02,.04v.04s-.03,.04-.03,.04v.04s-.03,.04-.03,.04l-.02,.04-.02,.04-.02,.03-.02,.04-.02,.03-.02,.03-.02,.03-.02,.03h0l-.02,.03-.02,.03-.02,.03-.02,.03-.02,.03-.03,.03-.02,.03-.03,.02-.03,.03-.02,.02-.03,.02-.03,.02-.03,.02-.03,.02-.03,.02h0l-.03,.02-.03,.02-.03,.02-.03,.02-.03,.02-.03,.02-.03,.02-.03,.02h-.03s-.03,.03-.03,.03l-.03,.02h-.03s-.03,.03-.03,.03h-.03s-.03,.02-.03,.02h0l1.55,3.13h-.85l-1.37-2.89h-.89v-.75h.78s.04,0,.04,0h.04s.04,0,.04,0h.04s.04-.01,.04-.01h.04s.03-.02,.03-.02h.04s.04-.02,.04-.02h.03s.03-.02,.03-.02h.03s.03-.02,.03-.02h.03s.03-.02,.03-.02h.03s.03-.03,.03-.03h.03s.03-.03,.03-.03l.03-.02,.03-.02,.03-.02,.03-.02,.02-.02,.03-.02,.02-.02,.02-.02h0l.02-.02,.02-.03,.02-.02,.02-.03,.02-.03,.02-.03,.02-.03,.02-.03v-.03s.03-.03,.03-.03v-.03s.03-.03,.03-.03v-.03s.02-.03,.02-.03v-.03h.01v-.03s.02-.04,.02-.04v-.04s.02-.04,.02-.04v-.04s.01-.04,.01-.04v-.04s0-.04,0-.04v-.04s0-.04,0-.04v-.04s0-.04,0-.04v-.04s0-.05,0-.05v-.04h0v-.14s0-.04,0-.04v-.04s0-.04,0-.04v-.04s0-.04,0-.04v-.04s-.01-.04-.01-.04v-.04s-.02-.04-.02-.04v-.04s-.02-.03-.02-.03v-.03h0v-.03s-.02-.03-.02-.03v-.03s-.03-.03-.03-.03l-.02-.03v-.03s-.03-.03-.03-.03v-.03s-.03-.03-.03-.03l-.02-.02-.02-.03-.02-.02-.02-.02-.02-.02-.02-.02h0l-.02-.02-.02-.02-.03-.02-.02-.02-.03-.02-.03-.02-.03-.02-.03-.02h-.03s-.03-.02-.03-.02h-.03s-.03-.02-.03-.02h-.03s-.03-.02-.03-.02h-.03s-.03-.02-.03-.02h-.03s-.03-.02-.03-.02h-.03s-.04-.02-.04-.02h-.03s-.04-.02-.04-.02h-.04s-.04-.01-.04-.01h-.04s-.04,0-.04,0h-.09s-.04,0-.04,0h-.67v3.35Z"/><path id="path331566" class="cls-16" d="M137.93,238.5h0v.04s0,.01,0,.01h0s0,.02,0,.02h0s0,.02,0,.02h-.01s-.01,.02-.01,.02h-.01s-.02,.02-.02,.02h-.02s-.02,.02-.02,.02h-.02s-.02,.02-.02,.02h-.02s-.03,.02-.03,.02h-.02s-.03,.02-.03,.02h-.03s-.03,.02-.03,.02h-.03s-.03,.02-.03,.02h-.03s-.03,.02-.03,.02h-.03s-.03,.02-.03,.02h-.03s-.04,.02-.04,.02h-.04s-.04,.02-.04,.02h-.04s-.04,.02-.04,.02h-.04s-.04,.02-.04,.02h-.05s-.05,.01-.05,.01h-.05s-.05,.02-.05,.02h-.05s-.05,.01-.05,.01h-.06s-.05,.01-.05,.01h-.06s-.06,0-.06,0h-.06s-.06,0-.06,0h-.06s-.06,0-.06,0h-.06s-.06,0-.06,0h-.06s-.06,0-.06,0h-.06s-.06,0-.06,0h-.13s-.06,0-.06,0h-.33s-.06,0-.06,0h-.12s-.06,0-.06,0h-.12s-.06,0-.06,0h-.06s-.06,0-.06,0h-.12s-.06,0-.06,0h-.06s-.05,0-.05,0h-.06s-.05,0-.05,0h-.05s-.05,0-.05,0h-.05s-.05,0-.05,0h-.05s-.04-.01-.04-.01h-.04s-.04,0-.04,0h-.04s-.04-.01-.04-.01h0v-.19h.04s.02,0,.02,0h.04s.02,0,.02,0h.03s.02,0,.02,0h.02s.03,0,.03,0h.05s.03,0,.03,0h.05s.03,0,.03,0h.03s.03,0,.03,0h.03s.03,0,.03,0h.03s.03,0,.03,0h.06s.03,0,.03,0h.03s.03,0,.03,0h.06s.03,0,.03,0h.03s.03,0,.03,0h.03s.03,0,.03,0h.03s.03,0,.03,0h.03s.03,0,.03,0h.03s.03,0,.03,0h.06s.03,0,.03,0h.06s.03,0,.03,0h.06s.03,0,.03,0h.09s.03,0,.03,0h.48s.08,0,.08,0h.08s.08,0,.08,0h.07s.07,0,.07,0h.06s.06-.02,.06-.02h.06s.06-.02,.06-.02h.06s.05-.02,.05-.02h.05s.04-.02,.04-.02h.04s.03-.02,.03-.02h.04s.03-.02,.03-.02h.03s.03-.02,.03-.02h.02s.02-.02,.02-.02h.02s.01-.02,.01-.02v-.02s.02-.01,.02-.01v-.02s0-.02,0-.02h0s0-.02,0-.02h0v-.02h0s0-.02,0-.02h0s0-.02,0-.02h0s0-.02,0-.02h0s0-.02,0-.02h0s0-.02,0-.02h0s0-.01,0-.01h0s-.01-.02-.01-.02h0s-.01-.01-.01-.01h-.01s-.02-.01-.02-.01h-.01s-.02-.01-.02-.01h-.02s-.02-.02-.02-.02h-.02s-.02-.01-.02-.01h-.02s-.02-.01-.02-.01h-.02s-.02-.01-.02-.01h-.03s-.03-.01-.03-.01h-.03s-.03-.01-.03-.01h-.03s-.03,0-.03,0h-.03s-.03-.01-.03-.01h-.03s-.03-.01-.03-.01h-.03s-.03-.01-.03-.01h-.03s-.04-.01-.04-.01h-.04s-.04-.01-.04-.01h-.04s-.04-.01-.04-.01h-.04s-.05-.01-.05-.01h-.04s-.05-.01-.05-.01h-.05s-.05-.01-.05-.01h-.05s-.05-.01-.05-.01h-.06s-.05-.01-.05-.01h-.06s-.05-.01-.05-.01h-.05s-.05-.02-.05-.02h-.05s-.05-.01-.05-.01h-.05s-.04-.01-.04-.01h-.05s-.04-.02-.04-.02h-.04s-.04-.01-.04-.01h-.04s-.04-.02-.04-.02h-.04s-.04-.01-.04-.01h-.03s-.04-.02-.04-.02h-.03s-.03-.02-.03-.02h-.03s-.03-.02-.03-.02h-.03s-.03-.02-.03-.02h-.03s-.03-.02-.03-.02h-.03s-.03-.02-.03-.02h-.03s-.03-.02-.03-.02h-.03s-.02-.02-.02-.02h-.03s-.02-.02-.02-.02h-.02s-.02-.02-.02-.02h-.02s-.02-.02-.02-.02h-.02s-.02-.02-.02-.02h-.02s-.01-.02-.01-.02h-.02s-.01-.02-.01-.02h-.01s0-.02,0-.02h-.01s0-.02,0-.02h0s0-.02,0-.02h0s0-.02,0-.02h0s0-.02,0-.02h0s0-.02,0-.02h0v-.02h0s0-.02,0-.02h0v-.02h0s0-.02,0-.02h0s0-.02,0-.02h0s0-.02,0-.02h0s.01-.02,.01-.02h.01s.02-.02,.02-.02h.01s.02-.02,.02-.02h.02s.02-.02,.02-.02h.02s.02-.02,.02-.02h.02s.03-.02,.03-.02h.03s.03-.02,.03-.02h.03s.03-.02,.03-.02h.03s.03-.02,.03-.02h.03s.03-.02,.03-.02h.03s.03-.02,.03-.02h.04s.03-.02,.03-.02h.04s.03-.02,.03-.02h.04s.04-.02,.04-.02h.04s.04-.01,.04-.01h.04s.04-.01,.04-.01h.04s.05-.01,.05-.01h.04s.05,0,.05,0h.05s.05,0,.05,0h.05s.05,0,.05,0h.05s.05,0,.05,0h.05s.05,0,.05,0h.06s.05,0,.05,0h.06s.06,0,.06,0h.17s.06,0,.06,0h.14s.07,0,.07,0h.2s.06,0,.06,0h.06s.06,0,.06,0h.06s.06,0,.06,0h.12s.06,0,.06,0h.06s.06,0,.06,0h.06s.06,0,.06,0h.05s.06,0,.06,0h.05s.05,.01,.05,.01h.05s.05,0,.05,0h.05s.05,.01,.05,.01h.05s.04,.01,.04,.01h.05s.04,.01,.04,.01h0l-.3,.17h-.04s-.04-.01-.04-.01h-.04s-.04,0-.04,0h-.04s-.04,0-.04,0h-.04s-.04-.01-.04-.01h-.04s-.05,0-.05,0h-.05s-.05,0-.05,0h-.05s-.05,0-.05,0h-.05s-.05,0-.05,0h-.1s-.05,0-.05,0h-.05s-.05,0-.05,0h-.05s-.05,0-.05,0h-.05s-.05,0-.05,0h-.1s-.05,0-.05,0h-.31s-.06,0-.06,0h-.06s-.06,0-.06,0h-.06s-.06,0-.06,0h-.05s-.06,.01-.06,.01h-.05s-.05,.02-.05,.02h-.05s-.04,.02-.04,.02h-.04s-.04,.02-.04,.02h-.04s-.03,.02-.03,.02h-.03s-.03,.02-.03,.02h-.03s-.02,.02-.02,.02h-.02s-.02,.02-.02,.02h-.01s-.01,.02-.01,.02h0s0,.02,0,.02h0v.03h0v.02h0s0,.02,0,.02h0v.02h0s0,.02,0,.02h0s0,.02,0,.02h0s0,.02,0,.02h0s0,.02,0,.02h0s.01,.01,.01,.01h0s.01,.02,.01,.02h0s.01,.01,.01,.01h.01s.02,.02,.02,.02h.01s.02,.01,.02,.01h.02s.02,.01,.02,.01h.02s.02,.01,.02,.01h.02s.02,.02,.02,.02h.02s.03,0,.03,0h.02s.03,.01,.03,.01h.02s.03,.01,.03,.01h.03s.03,.01,.03,.01h.03s.03,.01,.03,.01h.03s.03,0,.03,0h.03s.03,.01,.03,.01h.03s.03,.01,.03,.01h.04s.04,0,.04,0h.03s.04,.01,.04,.01h.04s.04,.01,.04,.01h.04s.05,.01,.05,.01h.04s.04,0,.04,0h.05s.05,.01,.05,.01h.05s.05,.01,.05,.01h.06s.05,.01,.05,.01h.05s.05,.02,.05,.02h.05s.05,.01,.05,.01h.05s.05,.01,.05,.01h.05s.05,.01,.05,.01h.04s.04,.02,.04,.02h.04s.04,.01,.04,.01h.04s.04,.01,.04,.01h.04s.04,.02,.04,.02h.04s.04,.02,.04,.02h.03s.04,.01,.04,.01h.03s.03,.02,.03,.02h.03s.03,.02,.03,.02h.03s.03,.02,.03,.02h.03s.03,.02,.03,.02h.03s.03,.02,.03,.02h.03s.02,.02,.02,.02h.03s.02,.02,.02,.02h.02s.02,.02,.02,.02h.02s.02,.02,.02,.02h.02s.02,.02,.02,.02h.01s.02,.02,.02,.02h.01s.01,.02,.01,.02h.01s.01,.02,.01,.02h.01s0,.02,0,.02h0s0,.02,0,.02h0s0,.02,0,.02h0s0,.02,0,.02h0s0,.02,0,.02h0s0,.02,0,.02Z"/><path id="path331476-2" class="cls-8" d="M110.43,243.3h-1.36v-22.03h5.55v2.47h-4.19v7.77h3.91v2.47h-3.91v9.31Z"/></g></g><text class="cls-1" transform="translate(95.78 256.28)"><tspan class="cls-30" x="0" y="0">L</tspan><tspan x="4.96" y="0">ogos</tspan></text></g></svg>