<?xml version="1.0" encoding="utf-8"?>
<!-- Generator: Adobe Illustrator 26.5.0, SVG Export Plug-In . SVG Version: 6.00 Build 0)  -->
<svg version="1.1" id="Layer_1" xmlns="http://www.w3.org/2000/svg" xmlns:xlink="http://www.w3.org/1999/xlink" x="0px" y="0px"
	 viewBox="0 0 215.1 152.2" style="enable-background:new 0 0 215.1 152.2;" xml:space="preserve">
<style type="text/css">
	.st0{fill:none;stroke:#000000;stroke-width:0.8;stroke-linejoin:round;}
	.st1{clip-path:url(#SVGID_00000103962338571510274880000017309313599659988150_);}
	.st2{fill:none;stroke:#000000;stroke-width:0.5;stroke-linecap:square;stroke-linejoin:round;}
	.st3{clip-path:url(#SVGID_00000032613096071676175590000006439613448991611266_);}
	.st4{fill:#769CCB;}
	.st5{clip-path:url(#SVGID_00000064334317864377710110000017560621568462710455_);}
	.st6{fill:#F1BD3A;}
	.st7{clip-path:url(#SVGID_00000071547480720014461580000018214306631730227082_);}
	.st8{fill:#E28BBA;}
	.st9{clip-path:url(#SVGID_00000011018128834604539700000005132810763843967110_);}
	.st10{clip-path:url(#SVGID_00000127009794986894482770000013693667942135365032_);}
	.st11{clip-path:url(#SVGID_00000024718634896029309160000014879091443992545970_);}
	.st12{clip-path:url(#SVGID_00000170262296249368822640000012492274152433120919_);}
	.st13{fill:#78C696;}
	.st14{clip-path:url(#SVGID_00000083786816090798639530000001489165860855008409_);}
	.st15{clip-path:url(#SVGID_00000017499722381238343250000012170972807185898143_);}
	.st16{clip-path:url(#SVGID_00000053542870598363885410000008920147724675318456_);}
	.st17{clip-path:url(#SVGID_00000069364356734241652590000003291371257021189038_);}
	.st18{clip-path:url(#SVGID_00000073706016012768886210000013637163573368027299_);}
	.st19{clip-path:url(#SVGID_00000035504322963516540630000013377314031036668818_);}
	.st20{clip-path:url(#SVGID_00000092446164391170091050000013238915481512785806_);}
	.st21{clip-path:url(#SVGID_00000148635883333709043230000005257165214601308072_);}
	.st22{clip-path:url(#SVGID_00000000936443839130224590000014893455562642496416_);}
	.st23{clip-path:url(#SVGID_00000040563868188896559670000015592191784819439501_);}
	.st24{clip-path:url(#SVGID_00000030460348913632483490000008174093270405438869_);}
	.st25{clip-path:url(#SVGID_00000061433077414262193580000018271735212473352353_);}
	.st26{clip-path:url(#SVGID_00000041284693074635032620000002747707835436183199_);}
	.st27{clip-path:url(#SVGID_00000046305623430592682860000005332897930974804354_);}
	.st28{clip-path:url(#SVGID_00000175289621441587392410000010655022076206091662_);}
	.st29{clip-path:url(#SVGID_00000104706620870040072150000007626139606983303338_);}
	.st30{fill:none;stroke:#000000;stroke-width:0.25;stroke-linecap:square;stroke-miterlimit:10;}
	.st31{fill:#7D7D7D;}
	.st32{font-family:'ArialMT';}
	.st33{font-size:11.37px;}
	.st34{fill:#3E3E3E;}
	.st35{font-family:'Lato-Regular';}
	.st36{font-size:4.18px;}
	.st37{fill:none;stroke:#CFCFCE;stroke-width:0.5;stroke-miterlimit:10;}
	.st38{fill:#FFFFFF;}
	.st39{opacity:3.000000e-02;fill-rule:evenodd;clip-rule:evenodd;fill:#A3D399;enable-background:new    ;}
	.st40{opacity:0.8;fill:none;stroke:#4A9143;stroke-width:0.5;stroke-miterlimit:10;enable-background:new    ;}
	.st41{opacity:0.77;fill:#D0B3D5;stroke:#4F4F4F;stroke-width:0.5;stroke-miterlimit:10;enable-background:new    ;}
	.st42{opacity:0.6;fill-rule:evenodd;clip-rule:evenodd;fill:#EF90B1;enable-background:new    ;}
	.st43{fill:none;stroke:#4F4F4F;stroke-width:0.5;stroke-miterlimit:10;}
	.st44{opacity:0.6;fill:none;stroke:#9E9E9E;stroke-width:0.8;stroke-miterlimit:10;enable-background:new    ;}
	.st45{fill:#231F20;}
	.st46{font-family:'Lato-Bold';}
	.st47{font-size:5.08px;}
	.st48{fill:#4B9142;}
</style>
<line class="st0" x1="64.7" y1="5.4" x2="64" y2="5.4"/>
<polygon points="62.3,6 62.6,6 62.6,4.9 62.2,5 62.2,4.8 62.6,4.7 62.8,4.7 62.8,6 63.1,6 63.1,6.2 62.3,6.2 "/>
<g>
	<defs>
		<rect id="SVGID_1_" x="64.7" y="5.4" width="131.2" height="27.9"/>
	</defs>
	<clipPath id="SVGID_00000125583964574206811530000007232273580688427681_">
		<use xlink:href="#SVGID_1_"  style="overflow:visible;"/>
	</clipPath>
	<g style="clip-path:url(#SVGID_00000125583964574206811530000007232273580688427681_);">
		<line class="st2" x1="64.7" y1="33.3" x2="195.9" y2="33.3"/>
	</g>
</g>
<g>
	<defs>
		<rect id="SVGID_00000029761650693969269740000016516362676531610553_" x="64.7" y="5.4" width="131.2" height="27.9"/>
	</defs>
	<clipPath id="SVGID_00000059281301384921801190000016037613692557120659_">
		<use xlink:href="#SVGID_00000029761650693969269740000016516362676531610553_"  style="overflow:visible;"/>
	</clipPath>
	<g style="clip-path:url(#SVGID_00000059281301384921801190000016037613692557120659_);">
		<path class="st4" d="M69.9,23h3.6l-1.8-11.1L69.9,23L69.9,23z M74.4,28.2H69l-0.8,5.1h-3.5l4.9-27.9h4.1l4.9,27.9h-3.4
			C75.2,33.3,74.4,28.2,74.4,28.2z"/>
	</g>
</g>
<g>
	<defs>
		<rect id="SVGID_00000138542556829107845200000008217183912832100025_" x="64.7" y="5.4" width="131.2" height="27.9"/>
	</defs>
	<clipPath id="SVGID_00000101072854855063198460000017658768431153969853_">
		<use xlink:href="#SVGID_00000138542556829107845200000008217183912832100025_"  style="overflow:visible;"/>
	</clipPath>
	<g style="clip-path:url(#SVGID_00000101072854855063198460000017658768431153969853_);">
		<polygon class="st6" points="79.4,5.4 93.3,5.4 93.3,10.8 88.3,10.8 88.3,33.3 84.4,33.3 84.4,10.8 79.4,10.8 		"/>
	</g>
</g>
<g>
	<defs>
		<rect id="SVGID_00000029043099273092447510000011384891768995771312_" x="64.7" y="5.4" width="131.2" height="27.9"/>
	</defs>
	<clipPath id="SVGID_00000045576687268120004490000012233630151726104751_">
		<use xlink:href="#SVGID_00000029043099273092447510000011384891768995771312_"  style="overflow:visible;"/>
	</clipPath>
	<g style="clip-path:url(#SVGID_00000045576687268120004490000012233630151726104751_);">
		<path class="st8" d="M108,30.7c-0.9,0.8-1.9,1.5-2.9,1.9c-1,0.4-2,0.6-3.1,0.6c-2.4,0-4.4-1.3-5.8-3.8C94.7,27,94,23.6,94,19.3
			s0.7-7.7,2.2-10.2c1.4-2.5,3.4-3.7,5.9-3.7c1,0,1.9,0.2,2.8,0.5c0.9,0.3,1.7,0.8,2.5,1.5V13c-0.8-0.8-1.6-1.5-2.4-1.9
			c-0.8-0.4-1.6-0.6-2.4-0.6c-1.5,0-2.6,0.8-3.5,2.3c-0.8,1.5-1.2,3.7-1.2,6.6s0.4,5,1.2,6.6c0.8,1.5,1.9,2.3,3.3,2.3
			c0.4,0,0.8,0,1.1-0.1c0.3-0.1,0.6-0.2,0.9-0.4v-5.2h-2.3v-4.6h5.9L108,30.7L108,30.7z"/>
	</g>
</g>
<g>
	<defs>
		<rect id="SVGID_00000066478777192117359920000013890821944504194237_" x="64.7" y="5.4" width="131.2" height="27.9"/>
	</defs>
	<clipPath id="SVGID_00000092457102408580139250000017976589400174954659_">
		<use xlink:href="#SVGID_00000066478777192117359920000013890821944504194237_"  style="overflow:visible;"/>
	</clipPath>
	<g style="clip-path:url(#SVGID_00000092457102408580139250000017976589400174954659_);">
		<path class="st4" d="M113.8,33.2h3.6l-1.8,0L113.8,33.2L113.8,33.2z M118.3,33.2H113l-0.8,0h-3.4l4.9-0.1h4.1l4.9,0.1h-3.4
			C119.2,33.3,118.3,33.2,118.3,33.2z"/>
	</g>
</g>
<g>
	<defs>
		<rect id="SVGID_00000134243612671556744230000000977220921164953016_" x="64.7" y="5.4" width="131.2" height="27.9"/>
	</defs>
	<clipPath id="SVGID_00000140010160827037882050000009491431811591574943_">
		<use xlink:href="#SVGID_00000134243612671556744230000000977220921164953016_"  style="overflow:visible;"/>
	</clipPath>
	<g style="clip-path:url(#SVGID_00000140010160827037882050000009491431811591574943_);">
		<path class="st8" d="M122.6,30.6c-0.9,0.8-1.9,1.5-2.9,1.9c-1,0.4-2,0.6-3.1,0.6c-2.4,0-4.4-1.2-5.8-3.7
			c-1.4-2.5-2.1-5.9-2.1-10.1s0.7-7.7,2.2-10.2c1.4-2.5,3.4-3.7,5.9-3.7c1,0,1.9,0.2,2.8,0.5c0.9,0.3,1.7,0.8,2.5,1.5v5.5
			c-0.8-0.8-1.6-1.5-2.4-1.9c-0.8-0.4-1.6-0.6-2.4-0.6c-1.5,0-2.6,0.8-3.5,2.3c-0.8,1.5-1.2,3.7-1.2,6.6s0.4,5,1.2,6.6
			c0.8,1.5,1.9,2.3,3.3,2.3c0.4,0,0.8,0,1.1-0.1c0.3-0.1,0.6-0.2,0.9-0.4v-5.2h-2.3v-4.6h5.9L122.6,30.6L122.6,30.6z"/>
	</g>
</g>
<g>
	<defs>
		<rect id="SVGID_00000115501778940306007270000013709137216104199102_" x="64.7" y="5.4" width="131.2" height="27.9"/>
	</defs>
	<clipPath id="SVGID_00000176756467738936169520000010856232416536714652_">
		<use xlink:href="#SVGID_00000115501778940306007270000013709137216104199102_"  style="overflow:visible;"/>
	</clipPath>
	<g style="clip-path:url(#SVGID_00000176756467738936169520000010856232416536714652_);">
		<path class="st4" d="M128.5,33.2h3.6l-1.8,0L128.5,33.2L128.5,33.2z M133,33.2h-5.4l-0.8,0h-3.4l4.9-0.1h4.1l4.9,0.1h-3.4
			C133.8,33.3,133,33.2,133,33.2z"/>
	</g>
</g>
<g>
	<defs>
		<rect id="SVGID_00000115506190508621527260000005045574542209393577_" x="64.7" y="5.4" width="131.2" height="27.9"/>
	</defs>
	<clipPath id="SVGID_00000038388618140316536030000006917166242307880320_">
		<use xlink:href="#SVGID_00000115506190508621527260000005045574542209393577_"  style="overflow:visible;"/>
	</clipPath>
	<g style="clip-path:url(#SVGID_00000038388618140316536030000006917166242307880320_);">
		<path class="st13" d="M137.3,31.2c-0.8,0.7-1.6,1.2-2.4,1.5c-0.8,0.3-1.7,0.5-2.6,0.5c-2.7,0-4.9-1.2-6.5-3.7
			c-1.6-2.5-2.4-5.9-2.4-10.1s0.8-7.7,2.4-10.2c1.6-2.5,3.8-3.7,6.5-3.7c0.9,0,1.8,0.2,2.6,0.5c0.8,0.3,1.6,0.8,2.4,1.5v5.5
			c-0.8-0.9-1.6-1.5-2.3-1.9c-0.8-0.4-1.6-0.6-2.4-0.6c-1.5,0-2.7,0.8-3.6,2.4c-0.9,1.6-1.3,3.7-1.3,6.5s0.4,4.9,1.3,6.5
			c0.9,1.6,2,2.4,3.6,2.4c0.8,0,1.6-0.2,2.4-0.6c0.8-0.4,1.5-1,2.3-1.9V31.2z"/>
	</g>
</g>
<g>
	<defs>
		<rect id="SVGID_00000063594699450635200050000014342738189937940369_" x="64.7" y="5.4" width="131.2" height="27.9"/>
	</defs>
	<clipPath id="SVGID_00000143586070459636263530000006218017163747489197_">
		<use xlink:href="#SVGID_00000063594699450635200050000014342738189937940369_"  style="overflow:visible;"/>
	</clipPath>
	<g style="clip-path:url(#SVGID_00000143586070459636263530000006218017163747489197_);">
		<path class="st13" d="M152,33.3c-0.8,0-1.6,0-2.4,0c-0.8,0-1.7,0-2.6,0c-2.7,0-4.9,0-6.5,0c-1.6,0-2.4,0-2.4-0.1
			c0,0,0.8-0.1,2.4-0.1c1.6,0,3.8,0,6.5,0c0.9,0,1.8,0,2.6,0c0.8,0,1.6,0,2.4,0v0c-0.8,0-1.6,0-2.3,0s-1.6,0-2.4,0
			c-1.5,0-2.7,0-3.6,0c-0.9,0-1.3,0-1.3,0s0.4,0,1.3,0c0.9,0,2,0,3.6,0c0.8,0,1.6,0,2.4,0C150.4,33.2,151.2,33.2,152,33.3L152,33.3
			L152,33.3z"/>
	</g>
</g>
<g>
	<defs>
		<rect id="SVGID_00000106138220495394752470000006687869122702185615_" x="64.7" y="5.4" width="131.2" height="27.9"/>
	</defs>
	<clipPath id="SVGID_00000011715016976880001820000004919049805731669168_">
		<use xlink:href="#SVGID_00000106138220495394752470000006687869122702185615_"  style="overflow:visible;"/>
	</clipPath>
	<g style="clip-path:url(#SVGID_00000011715016976880001820000004919049805731669168_);">
		<path class="st4" d="M143.2,32.5h3.6l-1.8-0.6L143.2,32.5L143.2,32.5z M147.7,32.8h-5.4l-0.8,0.3H138l4.9-1.5h4.1l4.9,1.5h-3.4
			L147.7,32.8L147.7,32.8z"/>
	</g>
</g>
<g>
	<defs>
		<rect id="SVGID_00000154414045352941547550000001185949388485144226_" x="64.7" y="5.4" width="131.2" height="27.9"/>
	</defs>
	<clipPath id="SVGID_00000139277236231986005740000001778402930616689561_">
		<use xlink:href="#SVGID_00000154414045352941547550000001185949388485144226_"  style="overflow:visible;"/>
	</clipPath>
	<g style="clip-path:url(#SVGID_00000139277236231986005740000001778402930616689561_);">
		<polygon class="st6" points="138,23.3 152,23.3 152,24.9 146.9,24.9 146.9,31.5 143,31.5 143,24.9 138,24.9 		"/>
	</g>
</g>
<g>
	<defs>
		<rect id="SVGID_00000049913383070962020370000007023757844719602818_" x="64.7" y="5.4" width="131.2" height="27.9"/>
	</defs>
	<clipPath id="SVGID_00000081648155934526313250000008748484969776240791_">
		<use xlink:href="#SVGID_00000049913383070962020370000007023757844719602818_"  style="overflow:visible;"/>
	</clipPath>
	<g style="clip-path:url(#SVGID_00000081648155934526313250000008748484969776240791_);">
		<path class="st8" d="M152,21.7c-0.9,0.5-1.9,0.9-2.9,1.2c-1,0.3-2,0.4-3.1,0.4c-2.4,0-4.4-0.8-5.8-2.4c-1.4-1.6-2.1-3.8-2.1-6.5
			s0.7-5,2.2-6.6c1.4-1.6,3.4-2.4,5.9-2.4c1,0,1.9,0.1,2.8,0.3c0.9,0.2,1.7,0.5,2.5,1v3.6c-0.8-0.5-1.6-1-2.4-1.2
			c-0.8-0.3-1.6-0.4-2.4-0.4c-1.5,0-2.6,0.5-3.5,1.5c-0.8,1-1.2,2.4-1.2,4.3s0.4,3.2,1.2,4.2c0.8,1,1.9,1.5,3.3,1.5
			c0.4,0,0.8,0,1.1-0.1s0.6-0.2,0.9-0.3v-3.4h-2.3v-3h5.9L152,21.7L152,21.7z"/>
	</g>
</g>
<g>
	<defs>
		<rect id="SVGID_00000176739724829227720450000001323406559992966318_" x="64.7" y="5.4" width="131.2" height="27.9"/>
	</defs>
	<clipPath id="SVGID_00000030482027089872658320000001391565764199625350_">
		<use xlink:href="#SVGID_00000176739724829227720450000001323406559992966318_"  style="overflow:visible;"/>
	</clipPath>
	<g style="clip-path:url(#SVGID_00000030482027089872658320000001391565764199625350_);">
		<path class="st4" d="M157.8,33.2h3.6l-1.8-0.1L157.8,33.2L157.8,33.2z M162.3,33.2H157l-0.8,0h-3.4l4.9-0.2h4.1l4.9,0.2h-3.4
			L162.3,33.2z"/>
	</g>
</g>
<g>
	<defs>
		<rect id="SVGID_00000057121598435908911850000017879358529844610711_" x="64.7" y="5.4" width="131.2" height="27.9"/>
	</defs>
	<clipPath id="SVGID_00000073692975222535676750000018213531615975118519_">
		<use xlink:href="#SVGID_00000057121598435908911850000017879358529844610711_"  style="overflow:visible;"/>
	</clipPath>
	<g style="clip-path:url(#SVGID_00000073692975222535676750000018213531615975118519_);">
		<path class="st8" d="M166.6,33c-0.9,0-1.9,0-2.9,0.1c-1,0-2,0-3.1,0c-2.4,0-4.4,0-5.8-0.1c-1.4-0.1-2.1-0.2-2.1-0.3
			s0.7-0.3,2.2-0.3c1.4-0.1,3.4-0.1,5.9-0.1c1,0,1.9,0,2.8,0c0.9,0,1.7,0,2.5,0v0.2c-0.8,0-1.6,0-2.4-0.1c-0.8,0-1.6,0-2.4,0
			c-1.5,0-2.6,0-3.5,0.1c-0.8,0.1-1.2,0.1-1.2,0.2c0,0.1,0.4,0.2,1.2,0.2c0.8,0.1,1.9,0.1,3.3,0.1c0.4,0,0.8,0,1.1,0
			c0.3,0,0.6,0,0.9,0v-0.2h-2.3v-0.2h5.9L166.6,33L166.6,33z"/>
	</g>
</g>
<g>
	<defs>
		<rect id="SVGID_00000088114544716307711890000010814221496923264908_" x="64.7" y="5.4" width="131.2" height="27.9"/>
	</defs>
	<clipPath id="SVGID_00000052085130045447046870000016518594121775502740_">
		<use xlink:href="#SVGID_00000088114544716307711890000010814221496923264908_"  style="overflow:visible;"/>
	</clipPath>
	<g style="clip-path:url(#SVGID_00000052085130045447046870000016518594121775502740_);">
		<path class="st13" d="M166.6,31.4c-0.8,0.2-1.6,0.4-2.4,0.5c-0.8,0.1-1.7,0.2-2.6,0.2c-2.7,0-4.9-0.4-6.5-1.3
			c-1.6-0.9-2.4-2.1-2.4-3.6s0.8-2.7,2.4-3.6s3.8-1.3,6.5-1.3c0.9,0,1.8,0.1,2.6,0.2c0.8,0.1,1.6,0.3,2.4,0.5v2
			c-0.8-0.3-1.6-0.5-2.3-0.7c-0.8-0.1-1.6-0.2-2.4-0.2c-1.5,0-2.7,0.3-3.6,0.8c-0.9,0.6-1.3,1.3-1.3,2.3c0,1,0.4,1.8,1.3,2.3
			c0.9,0.6,2,0.8,3.6,0.8c0.8,0,1.6-0.1,2.4-0.2c0.8-0.1,1.5-0.4,2.3-0.7V31.4L166.6,31.4z"/>
	</g>
</g>
<g>
	<defs>
		<rect id="SVGID_00000003823300353946618800000005149819943992917132_" x="64.7" y="5.4" width="131.2" height="27.9"/>
	</defs>
	<clipPath id="SVGID_00000101061685972486572210000001962281324318045103_">
		<use xlink:href="#SVGID_00000003823300353946618800000005149819943992917132_"  style="overflow:visible;"/>
	</clipPath>
	<g style="clip-path:url(#SVGID_00000101061685972486572210000001962281324318045103_);">
		<polygon class="st6" points="152.7,5.4 166.6,5.4 166.6,8.7 161.6,8.7 161.6,22.2 157.7,22.2 157.7,8.7 152.7,8.7 		"/>
	</g>
</g>
<g>
	<defs>
		<rect id="SVGID_00000161599596831632988060000003253650509330801801_" x="64.7" y="5.4" width="131.2" height="27.9"/>
	</defs>
	<clipPath id="SVGID_00000044865520826555727620000013745937178486530715_">
		<use xlink:href="#SVGID_00000161599596831632988060000003253650509330801801_"  style="overflow:visible;"/>
	</clipPath>
	<g style="clip-path:url(#SVGID_00000044865520826555727620000013745937178486530715_);">
		<path class="st13" d="M181.3,33.2c-0.8,0-1.6,0-2.4,0c-0.8,0-1.7,0-2.6,0c-2.7,0-4.9,0-6.5-0.1c-1.6,0-2.4-0.1-2.4-0.2
			c0-0.1,0.8-0.1,2.4-0.2s3.8-0.1,6.5-0.1c0.9,0,1.8,0,2.6,0c0.8,0,1.6,0,2.4,0V33c-0.8,0-1.6,0-2.3,0s-1.6,0-2.4,0
			c-1.5,0-2.7,0-3.6,0c-0.9,0-1.3,0.1-1.3,0.1c0,0,0.4,0.1,1.3,0.1c0.9,0,2,0,3.6,0c0.8,0,1.6,0,2.4,0
			C179.7,33.2,180.5,33.2,181.3,33.2C181.3,33.2,181.3,33.2,181.3,33.2z"/>
	</g>
</g>
<g>
	<defs>
		<rect id="SVGID_00000117658149350252750760000014140298882249848490_" x="64.7" y="5.4" width="131.2" height="27.9"/>
	</defs>
	<clipPath id="SVGID_00000098927986333529870570000005393301563959214261_">
		<use xlink:href="#SVGID_00000117658149350252750760000014140298882249848490_"  style="overflow:visible;"/>
	</clipPath>
	<g style="clip-path:url(#SVGID_00000098927986333529870570000005393301563959214261_);">
		<path class="st8" d="M181.3,32.7c-0.9,0.1-1.9,0.1-2.9,0.1c-1,0-2,0-3.1,0c-2.4,0-4.4-0.1-5.8-0.3s-2.1-0.4-2.1-0.7
			s0.7-0.5,2.2-0.7c1.4-0.2,3.4-0.3,5.9-0.3c1,0,1.9,0,2.8,0c0.9,0,1.7,0.1,2.5,0.1v0.4c-0.8-0.1-1.6-0.1-2.4-0.1
			c-0.8,0-1.6,0-2.4,0c-1.5,0-2.6,0.1-3.5,0.2c-0.8,0.1-1.2,0.3-1.2,0.5s0.4,0.4,1.2,0.5c0.8,0.1,1.9,0.2,3.3,0.2c0.4,0,0.8,0,1.1,0
			c0.3,0,0.6,0,0.9,0v-0.4h-2.3v-0.3h5.9L181.3,32.7L181.3,32.7z"/>
	</g>
</g>
<g>
	<defs>
		<rect id="SVGID_00000117634182218093954250000002425371057819922362_" x="64.7" y="5.4" width="131.2" height="27.9"/>
	</defs>
	<clipPath id="SVGID_00000071547752850918521970000014910523370268025728_">
		<use xlink:href="#SVGID_00000117634182218093954250000002425371057819922362_"  style="overflow:visible;"/>
	</clipPath>
	<g style="clip-path:url(#SVGID_00000071547752850918521970000014910523370268025728_);">
		<polygon class="st6" points="167.3,22 181.3,22 181.3,23.7 176.3,23.7 176.3,30.9 172.4,30.9 172.4,23.7 167.3,23.7 		"/>
	</g>
</g>
<g>
	<defs>
		<rect id="SVGID_00000096048148174068917000000011852464848975142274_" x="64.7" y="5.4" width="131.2" height="27.9"/>
	</defs>
	<clipPath id="SVGID_00000093148568713442836380000013772976668404275099_">
		<use xlink:href="#SVGID_00000096048148174068917000000011852464848975142274_"  style="overflow:visible;"/>
	</clipPath>
	<g style="clip-path:url(#SVGID_00000093148568713442836380000013772976668404275099_);">
		<path class="st4" d="M172.5,15.9h3.6l-1.8-6.6L172.5,15.9L172.5,15.9z M177,19h-5.4l-0.8,3h-3.4l4.9-16.6h4.1l4.9,16.6h-3.4
			L177,19z"/>
	</g>
</g>
<g>
	<defs>
		<rect id="SVGID_00000062176803935826847190000009554555959301620367_" x="64.7" y="5.4" width="131.2" height="27.9"/>
	</defs>
	<clipPath id="SVGID_00000161624555521988051510000009109926227097529520_">
		<use xlink:href="#SVGID_00000062176803935826847190000009554555959301620367_"  style="overflow:visible;"/>
	</clipPath>
	<g style="clip-path:url(#SVGID_00000161624555521988051510000009109926227097529520_);">
		<path class="st4" d="M187.2,32.8h3.6l-1.8-0.5L187.2,32.8L187.2,32.8z M191.7,33h-5.4l-0.8,0.2H182l4.9-1.3h4.1l4.9,1.3h-3.4
			L191.7,33z"/>
	</g>
</g>
<g>
	<defs>
		<rect id="SVGID_00000076573181783574443370000018395532147894009734_" x="64.7" y="5.4" width="131.2" height="27.9"/>
	</defs>
	<clipPath id="SVGID_00000014628946177720410040000017130169588216122040_">
		<use xlink:href="#SVGID_00000076573181783574443370000018395532147894009734_"  style="overflow:visible;"/>
	</clipPath>
	<g style="clip-path:url(#SVGID_00000014628946177720410040000017130169588216122040_);">
		<path class="st8" d="M195.9,31.7c-0.9,0.1-1.9,0.1-2.9,0.2c-1,0-2,0.1-3.1,0.1c-2.4,0-4.4-0.1-5.8-0.4c-1.4-0.2-2.1-0.6-2.1-1
			c0-0.4,0.7-0.7,2.2-1c1.4-0.2,3.4-0.4,5.9-0.4c1,0,1.9,0,2.8,0c0.9,0,1.7,0.1,2.5,0.1V30c-0.8-0.1-1.6-0.1-2.4-0.2
			c-0.8,0-1.6-0.1-2.4-0.1c-1.5,0-2.6,0.1-3.5,0.2c-0.8,0.1-1.2,0.4-1.2,0.6c0,0.3,0.4,0.5,1.2,0.6c0.8,0.1,1.9,0.2,3.3,0.2
			c0.4,0,0.8,0,1.1,0c0.3,0,0.6,0,0.9,0v-0.5h-2.3v-0.4h5.9L195.9,31.7L195.9,31.7z"/>
	</g>
</g>
<g>
	<defs>
		<rect id="SVGID_00000089568336219369207950000016279456220146664835_" x="64.7" y="5.4" width="131.2" height="27.9"/>
	</defs>
	<clipPath id="SVGID_00000005255194783182622110000015859539566795139725_">
		<use xlink:href="#SVGID_00000089568336219369207950000016279456220146664835_"  style="overflow:visible;"/>
	</clipPath>
	<g style="clip-path:url(#SVGID_00000005255194783182622110000015859539566795139725_);">
		<path class="st13" d="M195.9,29c-0.8,0.1-1.6,0.1-2.4,0.2c-0.8,0-1.7,0.1-2.6,0.1c-2.7,0-4.9-0.1-6.5-0.4
			c-1.6-0.3-2.4-0.7-2.4-1.2c0-0.5,0.8-0.9,2.4-1.2c1.6-0.3,3.8-0.4,6.5-0.4c0.9,0,1.8,0,2.6,0.1c0.8,0,1.6,0.1,2.4,0.2v0.7
			c-0.8-0.1-1.6-0.2-2.3-0.2c-0.8,0-1.6-0.1-2.4-0.1c-1.5,0-2.7,0.1-3.6,0.3c-0.9,0.2-1.3,0.4-1.3,0.8c0,0.3,0.4,0.6,1.3,0.8
			c0.9,0.2,2,0.3,3.6,0.3c0.8,0,1.6,0,2.4-0.1c0.8,0,1.5-0.1,2.3-0.2V29L195.9,29z"/>
	</g>
</g>
<g>
	<defs>
		<rect id="SVGID_00000075125855388977664730000002773367713864749706_" x="64.7" y="5.4" width="131.2" height="27.9"/>
	</defs>
	<clipPath id="SVGID_00000086684625826916943340000002906925893101226425_">
		<use xlink:href="#SVGID_00000075125855388977664730000002773367713864749706_"  style="overflow:visible;"/>
	</clipPath>
	<g style="clip-path:url(#SVGID_00000086684625826916943340000002906925893101226425_);">
		<polygon class="st6" points="182,5.4 195.9,5.4 195.9,9.4 190.9,9.4 190.9,26 187,26 187,9.4 182,9.4 		"/>
	</g>
</g>
<line class="st0" x1="64.7" y1="33.3" x2="64" y2="33.3"/>
<path d="M62.7,32.5c0.2,0,0.3,0.1,0.4,0.2c0.1,0.1,0.1,0.3,0.1,0.6c0,0.2,0,0.4-0.1,0.6S62.8,34,62.7,34s-0.3-0.1-0.4-0.2
	s-0.1-0.3-0.1-0.6c0-0.2,0-0.4,0.1-0.6C62.4,32.6,62.5,32.5,62.7,32.5z M62.7,32.7c-0.1,0-0.2,0.1-0.2,0.2c-0.1,0.1-0.1,0.3-0.1,0.5
	s0,0.4,0.1,0.5c0.1,0.1,0.1,0.2,0.2,0.2s0.2-0.1,0.2-0.2c0.1-0.1,0.1-0.3,0.1-0.5s0-0.4-0.1-0.5C62.8,32.7,62.8,32.7,62.7,32.7z"/>
<line class="st30" x1="64.7" y1="33.3" x2="64.7" y2="5.4"/>
<text transform="matrix(6.123234e-17 1 -1 6.123234e-17 119.1992 141.147)" class="st31 st32 st33">....</text>
<text transform="matrix(6.123234e-17 1 -1 6.123234e-17 119.1992 38.927)" class="st31 st32 st33">....</text>
<text transform="matrix(0.98 0 0 1 33.5903 52.3468)" class="st34 st35 st36">Homo sapiens|NM_182810.3</text>
<text transform="matrix(0.98 0 0 1 24.73 57.9469)" class="st34 st35 st36">Hyaena hyaena|XM_039237441.1</text>
<text transform="matrix(0.98 0 0 1 19.9302 63.5368)" class="st34 st35 st36">Hylobates moloch|XM_032754577.1</text>
<text transform="matrix(0.98 0 0 1 26.0903 69.1369)" class="st34 st35 st36">Jaculus jaculus|XM_004650329.3</text>
<text transform="matrix(0.98 0 0 1 29.27 74.737)" class="st34 st35 st36">Lacerta agilis|XM_033161810.1</text>
<text transform="matrix(0.98 0 0 1 1.29 80.3268)" class="st34 st35 st36">Lagenorhynchus obliquidens|XM_027107709.1</text>
<text transform="matrix(0.98 0 0 1 23.2803 85.9269)" class="st34 st35 st36">Lagopus leucura|XM_042889620.1</text>
<text transform="matrix(0.98 0 0 1 27.3003 91.5167)" class="st34 st35 st36">Lagopus muta|XM_048930828.1</text>
<text transform="matrix(0.98 0 0 1 15.4102 97.1168)" class="st34 st35 st36">Latimeria chalumnae|XM_006006873.2</text>
<text transform="matrix(0.98 0 0 1 31.02 102.7072)" class="st34 st35 st36">Lemur catta|XM_045554868.1</text>
<text transform="matrix(0.98 0 0 1 15.0703 108.3068)" class="st34 st35 st36">Lepidothrix coronata|XM_017823453.1</text>
<text transform="matrix(0.98 0 0 1 22.9902 113.8971)" class="st34 st35 st36">Lipotes vexillifer|XM_007453996.1</text>
<text transform="matrix(0.98 0 0 1 4.0103 119.4972)" class="st34 st35 st36">Lonchura striata domestica|XM_021553935.1</text>
<text transform="matrix(0.98 0 0 1 20.1201 125.0871)" class="st34 st35 st36">Lontra canadensis|XM_032882961.1</text>
<text transform="matrix(0.98 0 0 1 17.96 130.6871)" class="st34 st35 st36">Loxodonta africana|XM_003419752.3</text>
<text transform="matrix(0.98 0 0 1 17.96 136.2868)" class="st34 st35 st36">Loxodonta africana|XM_023559906.1</text>
<line class="st37" x1="155.5" y1="50.8" x2="189.8" y2="50.8"/>
<rect x="166" y="48.5" class="st38" width="1.1" height="4.7"/>
<rect x="178" y="48.5" class="st38" width="21.5" height="4.7"/>
<g>
	<polyline class="st39" points="202,53.2 189.8,53.2 189.8,48.5 202,48.5 	"/>
	<polyline class="st40" points="202,53.2 189.8,53.2 189.8,48.5 202,48.5 	"/>
</g>
<polyline class="st41" points="178,50.8 178,48.5 195,48.5 199.5,50.8 195,53.2 178,53.2 178,50.8 "/>
<g>
	<polyline class="st42" points="166,50.8 166,48.5 167.1,50.8 166,53.2 166,50.8 	"/>
	<polyline class="st43" points="166,50.8 166,48.5 167.1,50.8 166,53.2 166,50.8 	"/>
</g>
<line class="st37" x1="153.7" y1="56.4" x2="189.8" y2="56.4"/>
<rect x="166" y="54.1" class="st38" width="1.1" height="4.7"/>
<rect x="178" y="54.1" class="st38" width="21.9" height="4.7"/>
<polyline class="st41" points="178,56.4 178,54.1 195.3,54.1 199.9,56.4 195.3,58.8 178,58.8 178,56.4 "/>
<g>
	<polyline class="st42" points="166,56.4 166,54.1 167.1,56.4 166,58.8 166,56.4 	"/>
	<polyline class="st43" points="166,56.4 166,54.1 167.1,56.4 166,58.8 166,56.4 	"/>
</g>
<line class="st37" x1="91.1" y1="62" x2="189.8" y2="62"/>
<rect x="104.2" y="59.7" class="st38" width="11.7" height="4.7"/>
<rect x="106.8" y="59.7" class="st38" width="9.1" height="4.7"/>
<rect x="113.1" y="59.7" class="st38" width="1.8" height="4.7"/>
<rect x="119.2" y="59.7" class="st38" width="8.8" height="4.7"/>
<rect x="120.7" y="59.7" class="st38" width="7.3" height="4.7"/>
<rect x="129" y="59.7" class="st38" width="17.1" height="4.7"/>
<rect x="132.6" y="59.7" class="st38" width="12.4" height="4.7"/>
<rect x="139.9" y="59.7" class="st38" width="5.1" height="4.7"/>
<rect x="143.8" y="59.7" class="st38" width="6.9" height="4.7"/>
<rect x="144.8" y="59.7" class="st38" width="5.8" height="4.7"/>
<rect x="148" y="59.7" class="st38" width="41.9" height="4.7"/>
<rect x="166" y="59.7" class="st38" width="1.1" height="4.7"/>
<rect x="178" y="59.7" class="st38" width="21.1" height="4.7"/>
<g>
	<polyline class="st39" points="202,64.4 189.8,64.4 189.8,59.7 202,59.7 	"/>
	<polyline class="st40" points="202,64.4 189.8,64.4 189.8,59.7 202,59.7 	"/>
</g>
<polyline class="st37" points="104.2,62 104.2,59.7 111.4,59.7 115.9,62 111.4,64.4 104.2,64.4 104.2,62 "/>
<polyline class="st37" points="106.8,62 106.8,59.7 111.4,59.7 115.9,62 111.4,64.4 106.8,64.4 106.8,62 "/>
<polyline class="st37" points="113.1,62 113.1,59.7 114.9,62 113.1,64.4 113.1,62 "/>
<polyline class="st37" points="119.2,62 119.2,59.7 123.4,59.7 127.9,62 123.4,64.4 119.2,64.4 119.2,62 "/>
<polyline class="st37" points="120.7,62 120.7,59.7 123.4,59.7 127.9,62 123.4,64.4 120.7,64.4 120.7,62 "/>
<polyline class="st37" points="129,62 129,59.7 141.6,59.7 146.2,62 141.6,64.4 129,64.4 129,62 "/>
<polyline class="st37" points="132.6,62 132.6,59.7 140.4,59.7 145,62 140.4,64.4 132.6,64.4 132.6,62 "/>
<polyline class="st37" points="139.9,62 139.9,59.7 140.4,59.7 145,62 140.4,64.4 139.9,64.4 139.9,62 "/>
<polyline class="st37" points="143.8,62 143.8,59.7 146.1,59.7 150.7,62 146.1,64.4 143.8,64.4 143.8,62 "/>
<polyline class="st37" points="144.8,62 144.8,59.7 146.1,59.7 150.7,62 146.1,64.4 144.8,64.4 144.8,62 "/>
<polyline class="st37" points="148,62 148,59.7 185.4,59.7 189.9,62 185.4,64.4 148,64.4 148,62 "/>
<polyline class="st41" points="178,62 178,59.7 194.6,59.7 199.2,62 194.6,64.4 178,64.4 178,62 "/>
<g>
	<polyline class="st42" points="166,62 166,59.7 167.1,62 166,64.4 166,62 	"/>
	<polyline class="st43" points="166,62 166,59.7 167.1,62 166,64.4 166,62 	"/>
</g>
<line class="st37" x1="155.2" y1="67.6" x2="189.8" y2="67.6"/>
<rect x="166" y="65.3" class="st38" width="1.1" height="4.7"/>
<rect x="178" y="65.3" class="st38" width="21.5" height="4.7"/>
<g>
	<polyline class="st39" points="202,70 189.8,70 189.8,65.3 202,65.3 	"/>
	<polyline class="st40" points="202,70 189.8,70 189.8,65.3 202,65.3 	"/>
</g>
<polyline class="st41" points="178,67.6 178,65.3 195,65.3 199.5,67.6 195,70 178,70 178,67.6 "/>
<g>
	<polyline class="st42" points="166,67.6 166,65.3 167.1,67.6 166,70 166,67.6 	"/>
	<polyline class="st43" points="166,67.6 166,65.3 167.1,67.6 166,70 166,67.6 	"/>
</g>
<line class="st37" x1="158.3" y1="73.2" x2="189.8" y2="73.2"/>
<rect x="165.4" y="70.9" class="st38" width="1.1" height="4.7"/>
<rect x="166" y="70.9" class="st38" width="32.4" height="4.7"/>
<rect x="177.3" y="70.9" class="st38" width="21.1" height="4.7"/>
<g>
	<polyline class="st39" points="202,75.5 189.8,75.5 189.8,70.9 202,70.9 	"/>
	<polyline class="st40" points="202,75.5 189.8,75.5 189.8,70.9 202,70.9 	"/>
</g>
<polyline class="st37" points="166,73.2 166,70.9 193.9,70.9 198.4,73.2 193.9,75.5 166,75.5 166,73.2 "/>
<polyline class="st41" points="177.3,73.2 177.3,70.9 193.9,70.9 198.4,73.2 193.9,75.5 177.3,75.5 177.3,73.2 "/>
<g>
	<polyline class="st42" points="165.4,73.2 165.4,70.9 166.5,73.2 165.4,75.5 165.4,73.2 	"/>
	<polyline class="st43" points="165.4,73.2 165.4,70.9 166.5,73.2 165.4,75.5 165.4,73.2 	"/>
</g>
<line class="st37" x1="154.8" y1="78.8" x2="189.8" y2="78.8"/>
<rect x="166" y="76.5" class="st38" width="1.1" height="4.7"/>
<rect x="178" y="76.5" class="st38" width="21.5" height="4.7"/>
<g>
	<polyline class="st39" points="202,81.1 189.8,81.1 189.8,76.5 202,76.5 	"/>
	<polyline class="st40" points="202,81.1 189.8,81.1 189.8,76.5 202,76.5 	"/>
</g>
<polyline class="st41" points="178,78.8 178,76.5 195,76.5 199.5,78.8 195,81.1 178,81.1 178,78.8 "/>
<g>
	<polyline class="st42" points="166,78.8 166,76.5 167.1,78.8 166,81.1 166,78.8 	"/>
	<polyline class="st43" points="166,78.8 166,76.5 167.1,78.8 166,81.1 166,78.8 	"/>
</g>
<line class="st37" x1="137.4" y1="84.4" x2="189.8" y2="84.4"/>
<rect x="165.1" y="82.1" class="st38" width="1.1" height="4.7"/>
<rect x="177.3" y="82.1" class="st38" width="20.8" height="4.7"/>
<g>
	<polyline class="st39" points="202,86.7 189.8,86.7 189.8,82.1 202,82.1 	"/>
	<polyline class="st40" points="202,86.7 189.8,86.7 189.8,82.1 202,82.1 	"/>
</g>
<polyline class="st41" points="177.3,84.4 177.3,82.1 193.5,82.1 198.1,84.4 193.5,86.7 177.3,86.7 177.3,84.4 "/>
<g>
	<polyline class="st42" points="165.1,84.4 165.1,82.1 166.2,84.4 165.1,86.7 165.1,84.4 	"/>
	<polyline class="st43" points="165.1,84.4 165.1,82.1 166.2,84.4 165.1,86.7 165.1,84.4 	"/>
</g>
<line class="st37" x1="122.4" y1="90" x2="189.8" y2="90"/>
<rect x="132.3" y="87.7" class="st38" width="14.9" height="4.7"/>
<rect x="165.1" y="87.7" class="st38" width="1.1" height="4.7"/>
<rect x="177.3" y="87.7" class="st38" width="20.8" height="4.7"/>
<g>
	<polyline class="st39" points="202,92.3 189.8,92.3 189.8,87.7 202,87.7 	"/>
	<polyline class="st40" points="202,92.3 189.8,92.3 189.8,87.7 202,87.7 	"/>
</g>
<polyline class="st37" points="132.3,90 132.3,87.7 142.7,87.7 147.3,90 142.7,92.3 132.3,92.3 132.3,90 "/>
<polyline class="st41" points="177.3,90 177.3,87.7 193.5,87.7 198.1,90 193.5,92.3 177.3,92.3 177.3,90 "/>
<g>
	<polyline class="st42" points="165.1,90 165.1,87.7 166.2,90 165.1,92.3 165.1,90 	"/>
	<polyline class="st43" points="165.1,90 165.1,87.7 166.2,90 165.1,92.3 165.1,90 	"/>
</g>
<line class="st37" x1="150.2" y1="95.6" x2="189.8" y2="95.6"/>
<rect x="165.1" y="93.3" class="st38" width="1.1" height="4.7"/>
<rect x="176.6" y="93.3" class="st38" width="22.2" height="4.7"/>
<rect x="176.9" y="93.3" class="st38" width="21.9" height="4.7"/>
<g>
	<polyline class="st39" points="202,97.9 189.8,97.9 189.8,93.3 202,93.3 	"/>
	<polyline class="st40" points="202,97.9 189.8,97.9 189.8,93.3 202,93.3 	"/>
</g>
<polyline class="st37" points="176.6,95.6 176.6,93.3 194.2,93.3 198.8,95.6 194.2,97.9 176.6,97.9 176.6,95.6 "/>
<polyline class="st41" points="176.9,95.6 176.9,93.3 194.2,93.3 198.8,95.6 194.2,97.9 176.9,97.9 176.9,95.6 "/>
<g>
	<polyline class="st42" points="165.1,95.6 165.1,93.3 166.2,95.6 165.1,97.9 165.1,95.6 	"/>
	<polyline class="st43" points="165.1,95.6 165.1,93.3 166.2,95.6 165.1,97.9 165.1,95.6 	"/>
</g>
<line class="st37" x1="145" y1="101.2" x2="189.8" y2="101.2"/>
<rect x="147.5" y="98.9" class="st38" width="35" height="4.7"/>
<rect x="150.2" y="98.9" class="st38" width="8" height="4.7"/>
<rect x="166" y="98.9" class="st38" width="1.1" height="4.7"/>
<rect x="178" y="98.9" class="st38" width="21.5" height="4.7"/>
<g>
	<polyline class="st39" points="202,103.5 189.8,103.5 189.8,98.9 202,98.9 	"/>
	<polyline class="st40" points="202,103.5 189.8,103.5 189.8,98.9 202,98.9 	"/>
</g>
<polyline class="st37" points="147.5,101.2 147.5,98.9 178,98.9 182.5,101.2 178,103.5 147.5,103.5 147.5,101.2 "/>
<polyline class="st37" points="150.2,101.2 150.2,98.9 153.6,98.9 158.2,101.2 153.6,103.5 150.2,103.5 150.2,101.2 "/>
<polyline class="st41" points="178,101.2 178,98.9 195,98.9 199.5,101.2 195,103.5 178,103.5 178,101.2 "/>
<g>
	<polyline class="st42" points="166,101.2 166,98.9 167.1,101.2 166,103.5 166,101.2 	"/>
	<polyline class="st43" points="166,101.2 166,98.9 167.1,101.2 166,103.5 166,101.2 	"/>
</g>
<line class="st37" x1="150.7" y1="106.8" x2="189.8" y2="106.8"/>
<rect x="165.3" y="104.5" class="st38" width="1.1" height="4.7"/>
<rect x="177.3" y="104.5" class="st38" width="21.1" height="4.7"/>
<g>
	<polyline class="st39" points="202,109.1 189.8,109.1 189.8,104.5 202,104.5 	"/>
	<polyline class="st40" points="202,109.1 189.8,109.1 189.8,104.5 202,104.5 	"/>
</g>
<polyline class="st41" points="177.3,106.8 177.3,104.5 193.9,104.5 198.4,106.8 193.9,109.1 177.3,109.1 177.3,106.8 "/>
<g>
	<polyline class="st42" points="165.3,106.8 165.3,104.5 166.4,106.8 165.3,109.1 165.3,106.8 	"/>
	<polyline class="st43" points="165.3,106.8 165.3,104.5 166.4,106.8 165.3,109.1 165.3,106.8 	"/>
</g>
<line class="st37" x1="155.2" y1="112.4" x2="189.8" y2="112.4"/>
<rect x="158.3" y="110.1" class="st38" width="8.8" height="4.7"/>
<rect x="166" y="110.1" class="st38" width="1.1" height="4.7"/>
<rect x="178" y="110.1" class="st38" width="21.5" height="4.7"/>
<g>
	<polyline class="st39" points="202,114.7 189.8,114.7 189.8,110.1 202,110.1 	"/>
	<polyline class="st40" points="202,114.7 189.8,114.7 189.8,110.1 202,110.1 	"/>
</g>
<polyline class="st37" points="158.3,112.4 158.3,110.1 162.5,110.1 167.1,112.4 162.5,114.7 158.3,114.7 158.3,112.4 "/>
<polyline class="st41" points="178,112.4 178,110.1 195,110.1 199.5,112.4 195,114.7 178,114.7 178,112.4 "/>
<g>
	<polyline class="st42" points="166,112.4 166,110.1 167.1,112.4 166,114.7 166,112.4 	"/>
	<polyline class="st43" points="166,112.4 166,110.1 167.1,112.4 166,114.7 166,112.4 	"/>
</g>
<line class="st37" x1="128.2" y1="118" x2="189.8" y2="118"/>
<rect x="142.3" y="115.6" class="st38" width="6.9" height="4.7"/>
<rect x="165.3" y="115.6" class="st38" width="1.1" height="4.7"/>
<rect x="177.3" y="115.6" class="st38" width="21.1" height="4.7"/>
<g>
	<polyline class="st39" points="202,120.3 189.8,120.3 189.8,115.6 202,115.6 	"/>
	<polyline class="st40" points="202,120.3 189.8,120.3 189.8,115.6 202,115.6 	"/>
</g>
<polyline class="st37" points="142.3,118 142.3,115.6 144.7,115.6 149.2,118 144.7,120.3 142.3,120.3 142.3,118 "/>
<polyline class="st41" points="177.3,118 177.3,115.6 193.9,115.6 198.4,118 193.9,120.3 177.3,120.3 177.3,118 "/>
<g>
	<polyline class="st42" points="165.3,118 165.3,115.6 166.4,118 165.3,120.3 165.3,118 	"/>
	<polyline class="st43" points="165.3,118 165.3,115.6 166.4,118 165.3,120.3 165.3,118 	"/>
</g>
<line class="st37" x1="158.3" y1="123.6" x2="189.8" y2="123.6"/>
<rect x="166" y="121.2" class="st38" width="1.1" height="4.7"/>
<rect x="178" y="121.2" class="st38" width="21.5" height="4.7"/>
<g>
	<polyline class="st39" points="202,125.9 189.8,125.9 189.8,121.2 202,121.2 	"/>
	<polyline class="st40" points="202,125.9 189.8,125.9 189.8,121.2 202,121.2 	"/>
</g>
<polyline class="st41" points="178,123.6 178,121.2 195,121.2 199.5,123.6 195,125.9 178,125.9 178,123.6 "/>
<g>
	<polyline class="st42" points="166,123.6 166,121.2 167.1,123.6 166,125.9 166,123.6 	"/>
	<polyline class="st43" points="166,123.6 166,121.2 167.1,123.6 166,125.9 166,123.6 	"/>
</g>
<line class="st37" x1="162.1" y1="129.2" x2="189.8" y2="129.2"/>
<rect x="166" y="126.8" class="st38" width="1.1" height="4.7"/>
<rect x="178" y="126.8" class="st38" width="21.5" height="4.7"/>
<g>
	<polyline class="st39" points="202,131.5 189.8,131.5 189.8,126.8 202,126.8 	"/>
	<polyline class="st40" points="202,131.5 189.8,131.5 189.8,126.8 202,126.8 	"/>
</g>
<polyline class="st41" points="178,129.2 178,126.8 195,126.8 199.5,129.2 195,131.5 178,131.5 178,129.2 "/>
<g>
	<polyline class="st42" points="166,129.2 166,126.8 167.1,129.2 166,131.5 166,129.2 	"/>
	<polyline class="st43" points="166,129.2 166,126.8 167.1,129.2 166,131.5 166,129.2 	"/>
</g>
<line class="st37" x1="163.3" y1="134.8" x2="189.8" y2="134.8"/>
<rect x="166" y="132.4" class="st38" width="1.1" height="4.7"/>
<rect x="178" y="132.4" class="st38" width="21.5" height="4.7"/>
<g>
	<polyline class="st39" points="202,137.1 189.8,137.1 189.8,132.4 202,132.4 	"/>
	<polyline class="st40" points="202,137.1 189.8,137.1 189.8,132.4 202,132.4 	"/>
</g>
<polyline class="st41" points="178,134.8 178,132.4 195,132.4 199.5,134.8 195,137.1 178,137.1 178,134.8 "/>
<g>
	<polyline class="st42" points="166,134.8 166,132.4 167.1,134.8 166,137.1 166,134.8 	"/>
	<polyline class="st43" points="166,134.8 166,132.4 167.1,134.8 166,137.1 166,134.8 	"/>
</g>
<line class="st44" x1="64.7" y1="33.3" x2="164.8" y2="46.8"/>
<line class="st44" x1="195.9" y1="33.3" x2="167.4" y2="46.8"/>
<text transform="matrix(1 0 0 1 178.3 143.007)" class="st45 st46 st47">uORF2</text>
<text transform="matrix(1 0 0 1 159 143.047)" class="st45 st46 st47">uORF1</text>
<text transform="matrix(1 0 0 1 188.7751 148.598)" class="st48 st46 st47">A</text>
<text transform="matrix(1 0 0 1 192.0151 148.598)" class="st48 st46 st47">TF4 CDS</text>
</svg>
