<?xml version="1.0" encoding="UTF-8"?><svg id="Layer_1" xmlns="http://www.w3.org/2000/svg" viewBox="0 0 239.07 263.09"><defs><style>.cls-1{fill:#333;font-family:Lato-Regular, Lato;font-size:10px;}.cls-2,.cls-3,.cls-4,.cls-5,.cls-6{stroke:#fff;stroke-linecap:square;stroke-miterlimit:10.74;stroke-width:.08px;}.cls-2,.cls-7{fill:#f1be3a;}.cls-3,.cls-8{fill:#f26c6e;}.cls-9,.cls-10{fill:#a9d6e7;}.cls-11{fill:#808285;}.cls-12,.cls-5{fill:#769dcc;}.cls-13{fill:#60b980;}.cls-14,.cls-4{fill:#79c797;}.cls-15{letter-spacing:0em;}.cls-16{fill:#f6a5b1;stroke:#f6a5b1;}.cls-16,.cls-17,.cls-18,.cls-10{stroke-width:.25px;}.cls-16,.cls-17,.cls-18,.cls-10,.cls-19,.cls-20,.cls-21,.cls-22,.cls-23,.cls-24,.cls-25,.cls-26,.cls-27{stroke-miterlimit:10;}.cls-17{fill:#ffd059;stroke:#ffd059;}.cls-28{letter-spacing:-.02em;}.cls-18{fill:#adb1d9;}.cls-18,.cls-24{stroke:#adb1d9;}.cls-10,.cls-22{stroke:#a9d6e7;}.cls-6{fill:#f9f06d;}.cls-19,.cls-20,.cls-21,.cls-22,.cls-23,.cls-24{fill:none;}.cls-19,.cls-20,.cls-21,.cls-22,.cls-25,.cls-26,.cls-27{stroke-width:.75px;}.cls-19,.cls-23{stroke:#808285;}.cls-20{stroke:#60b980;}.cls-21,.cls-25,.cls-26,.cls-27{stroke:#a7a9ac;}.cls-29{letter-spacing:-.01em;}.cls-30{opacity:.7;}.cls-31{opacity:.93;}.cls-32{letter-spacing:-.02em;}.cls-33{letter-spacing:-.02em;}.cls-25{fill:#efe9bb;}.cls-26{fill:#eaced4;}.cls-27{fill:#bee0ba;}.cls-34{letter-spacing:-.01em;}</style></defs><text class="cls-1" transform="translate(123.39 17.4)"><tspan x="0" y="0">RefSeq database search</tspan><tspan x="23.15" y="12">for homologs</tspan></text><rect class="cls-23" x="112.21" y=".5" width="126.36" height="38.27" rx="5.67" ry="5.67"/><g class="cls-31"><g><line class="cls-22" x1="109.82" y1="38.74" x2="87.67" y2="47.36"/><polygon class="cls-9" points="88.27 44.79 81.48 49.77 89.85 48.85 88.27 44.79"/></g></g><text class="cls-1" transform="translate(119.39 74.62)"><tspan x="0" y="0">Upstream t</tspan><tspan class="cls-32" x="49.1" y="0">r</tspan><tspan class="cls-15" x="52.94" y="0">anscripts/loci</tspan><tspan x="10.54" y="12">sequences retri</tspan><tspan class="cls-34" x="77.84" y="12">e</tspan><tspan x="82.95" y="12">ving</tspan></text><rect class="cls-23" x="112.21" y="57.72" width="126.36" height="38.27" rx="5.67" ry="5.67"/><g class="cls-30"><g><line class="cls-20" x1="77.71" y1="78.41" x2="99.41" y2="78.41"/><polygon class="cls-13" points="97.92 80.59 106.05 78.41 97.92 76.23 97.92 80.59"/></g></g><g class="cls-30"><g><line class="cls-20" x1="76.93" y1="19.63" x2="98.63" y2="19.63"/><polygon class="cls-13" points="97.15 21.81 105.28 19.63 97.15 17.45 97.15 21.81"/></g></g><text class="cls-1" transform="translate(.75 148.79)"><tspan x="0" y="0">Sequences</tspan></text><g><g><line class="cls-21" x1="59.37" y1="119.19" x2="1.07" y2="119.19"/><polyline class="cls-27" points="69.1 121.87 57.44 121.87 57.44 116.5 69.1 116.5"/></g><g><line class="cls-21" x1="57.61" y1="127.57" x2="5.66" y2="127.57"/><polyline class="cls-27" points="69.1 130.26 57.61 130.26 57.61 124.88 69.1 124.88"/></g><g><line class="cls-21" x1="60.45" y1="135.95" x2="2.62" y2="135.95"/><polyline class="cls-27" points="69.1 138.64 57.61 138.64 57.61 133.26 69.1 133.26"/></g></g><text class="cls-1" transform="translate(138.31 130.01)"><tspan x="0" y="0">ORFs annotating</tspan></text><rect class="cls-23" x="112.21" y="114.94" width="126.36" height="22.68" rx="5.67" ry="5.67"/><text class="cls-1" transform="translate(123.18 173.34)"><tspan x="0" y="0">Conser</tspan><tspan class="cls-29" x="31.58" y="0">v</tspan><tspan x="36.57" y="0">ed ORFs searc</tspan><tspan class="cls-33" x="99.03" y="0">h</tspan><tspan x="0" y="12">and results visualisation </tspan></text><rect class="cls-23" x="112.21" y="156.56" width="126.36" height="38.27" rx="5.67" ry="5.67"/><text/><g class="cls-30"><g><line class="cls-20" x1="77.71" y1="126.95" x2="99.41" y2="126.95"/><polygon class="cls-13" points="97.92 129.13 106.05 126.95 97.92 124.77 97.92 129.13"/></g></g><g class="cls-30"><g><line class="cls-19" x1="175.59" y1="196.6" x2="175.59" y2="206.6"/><polygon class="cls-11" points="173.41 205.11 175.59 213.24 177.77 205.11 173.41 205.11"/></g></g><g class="cls-30"><g><line class="cls-19" x1="175.39" y1="39.92" x2="175.39" y2="49.92"/><polygon class="cls-11" points="173.21 48.44 175.39 56.57 177.57 48.44 173.21 48.44"/></g></g><g class="cls-30"><g><line class="cls-19" x1="175.59" y1="97.14" x2="175.59" y2="107.14"/><polygon class="cls-11" points="173.41 105.65 175.59 113.79 177.77 105.65 173.41 105.65"/></g></g><g class="cls-30"><g><line class="cls-19" x1="175.39" y1="138.76" x2="175.39" y2="148.77"/><polygon class="cls-11" points="173.21 147.28 175.39 155.41 177.57 147.28 173.21 147.28"/></g></g><g class="cls-31"><g><line class="cls-22" x1="109.82" y1="99.2" x2="87.67" y2="107.82"/><polygon class="cls-9" points="88.27 105.25 81.48 110.22 89.85 109.31 88.27 105.25"/></g></g><text class="cls-1" transform="translate(0 29.62)"><tspan x="0" y="0">RefSeq protein</tspan></text><g><g><polygon class="cls-18" points="3.9 8.36 1.07 13.26 6.72 13.26 3.9 8.36"/><line class="cls-18" x1="3.9" y1="18.85" x2="3.9" y2="13.03"/></g><g><line class="cls-17" x1="11.1" y1="18.85" x2="11.1" y2="13.03"/><circle class="cls-17" cx="11.1" cy="10.81" r="2.66"/></g><g><line class="cls-16" x1="17.7" y1="18.85" x2="17.7" y2="13.11"/><rect class="cls-16" x="15.48" y="8.62" width="4.45" height="4.45"/></g><g><rect class="cls-10" x="22.49" y="8.79" width="4.11" height="4.11" transform="translate(-.48 20.53) rotate(-45)"/><line class="cls-10" x1="24.55" y1="18.85" x2="24.55" y2="13.11"/></g><g><line class="cls-16" x1="31.4" y1="18.85" x2="31.4" y2="13.11"/><rect class="cls-16" x="29.17" y="8.62" width="4.45" height="4.45"/></g><g><line class="cls-17" x1="45.37" y1="18.85" x2="45.37" y2="13.03"/><circle class="cls-17" cx="45.37" cy="10.81" r="2.66"/></g><g><polygon class="cls-18" points="38.16 8.36 35.34 13.26 40.99 13.26 38.16 8.36"/><line class="cls-18" x1="38.16" y1="18.85" x2="38.16" y2="13.03"/></g><g><line class="cls-16" x1="51.97" y1="18.85" x2="51.97" y2="13.11"/><rect class="cls-16" x="49.74" y="8.62" width="4.45" height="4.45"/></g><g><rect class="cls-10" x="56.76" y="8.79" width="4.11" height="4.11" transform="translate(9.56 44.77) rotate(-45)"/><line class="cls-10" x1="58.82" y1="18.85" x2="58.82" y2="13.11"/></g><g><polygon class="cls-18" points="66.27 8.36 63.44 13.26 69.1 13.26 66.27 8.36"/><line class="cls-18" x1="66.27" y1="18.85" x2="66.27" y2="13.03"/></g></g><text class="cls-1" transform="translate(.08 103.29) scale(1.03 1)"><tspan x="0" y="0">Homologs</tspan></text><g><g><polygon class="cls-18" points="3.9 58 1.07 62.9 6.72 62.9 3.9 58"/><line class="cls-18" x1="3.9" y1="68.49" x2="3.9" y2="62.68"/></g><g><line class="cls-17" x1="11.1" y1="68.49" x2="11.1" y2="62.68"/><circle class="cls-17" cx="11.1" cy="60.45" r="2.66"/></g><g><line class="cls-16" x1="17.7" y1="68.49" x2="17.7" y2="62.75"/><rect class="cls-16" x="15.48" y="58.27" width="4.45" height="4.45"/></g><g><rect class="cls-10" x="22.49" y="58.43" width="4.11" height="4.11" transform="translate(-35.58 35.07) rotate(-45)"/><line class="cls-10" x1="24.55" y1="68.49" x2="24.55" y2="62.75"/></g><g><line class="cls-16" x1="31.4" y1="68.49" x2="31.4" y2="62.75"/><rect class="cls-16" x="29.17" y="58.27" width="4.45" height="4.45"/></g><g><line class="cls-17" x1="45.37" y1="68.49" x2="45.37" y2="62.68"/><circle class="cls-17" cx="45.37" cy="60.45" r="2.66"/></g><g><polygon class="cls-18" points="38.16 58 35.34 62.9 40.99 62.9 38.16 58"/><line class="cls-18" x1="38.16" y1="68.49" x2="38.16" y2="62.68"/></g><g><line class="cls-16" x1="51.97" y1="68.49" x2="51.97" y2="62.75"/><rect class="cls-16" x="49.74" y="58.27" width="4.45" height="4.45"/></g><g><rect class="cls-10" x="56.76" y="58.43" width="4.11" height="4.11" transform="translate(-25.55 59.31) rotate(-45)"/><line class="cls-10" x1="58.82" y1="68.49" x2="58.82" y2="62.75"/></g><g><polygon class="cls-18" points="66.27 58 63.44 62.9 69.1 62.9 66.27 58"/><line class="cls-18" x1="66.27" y1="68.49" x2="66.27" y2="62.68"/></g><g><polygon class="cls-18" points="4.15 70.03 1.32 74.93 6.98 74.93 4.15 70.03"/><line class="cls-18" x1="4.15" y1="80.51" x2="4.15" y2="74.7"/></g><g><line class="cls-17" x1="11.35" y1="80.51" x2="11.35" y2="74.7"/><circle class="cls-17" cx="11.35" cy="72.48" r="2.66"/></g><g><line class="cls-16" x1="17.95" y1="80.51" x2="17.95" y2="74.77"/><rect class="cls-16" x="15.73" y="70.29" width="4.45" height="4.45"/></g><g><rect class="cls-10" x="22.74" y="70.46" width="4.11" height="4.11" transform="translate(-44.01 38.78) rotate(-45)"/><line class="cls-10" x1="24.8" y1="80.51" x2="24.8" y2="74.77"/></g><g><line class="cls-16" x1="31.65" y1="80.51" x2="31.65" y2="74.77"/><rect class="cls-16" x="29.43" y="70.29" width="4.45" height="4.45"/></g><g><line class="cls-17" x1="45.62" y1="80.51" x2="45.62" y2="74.7"/><circle class="cls-17" cx="45.62" cy="72.48" r="2.66"/></g><g><line class="cls-16" x1="52.22" y1="80.51" x2="52.22" y2="74.77"/><rect class="cls-16" x="50" y="70.29" width="4.45" height="4.45"/></g><g><polygon class="cls-18" points="66.52 70.03 63.69 74.93 69.35 74.93 66.52 70.03"/><line class="cls-18" x1="66.52" y1="80.51" x2="66.52" y2="74.7"/></g><g><polygon class="cls-18" points="4.15 82.05 1.32 86.95 6.98 86.95 4.15 82.05"/><line class="cls-18" x1="4.15" y1="92.54" x2="4.15" y2="86.73"/></g><g><line class="cls-17" x1="11.35" y1="92.54" x2="11.35" y2="86.73"/><circle class="cls-17" cx="11.35" cy="84.5" r="2.66"/></g><g><rect class="cls-10" x="22.74" y="82.48" width="4.11" height="4.11" transform="translate(-52.51 42.3) rotate(-45)"/><line class="cls-10" x1="24.8" y1="92.54" x2="24.8" y2="86.8"/></g><g><line class="cls-17" x1="45.62" y1="92.54" x2="45.62" y2="86.73"/><circle class="cls-17" cx="45.62" cy="84.5" r="2.66"/></g><g><line class="cls-16" x1="52.22" y1="92.54" x2="52.22" y2="86.8"/><rect class="cls-16" x="50" y="82.32" width="4.45" height="4.45"/></g><g><rect class="cls-10" x="57.01" y="82.48" width="4.11" height="4.11" transform="translate(-42.48 66.53) rotate(-45)"/><line class="cls-10" x1="59.07" y1="92.54" x2="59.07" y2="86.8"/></g><g><polygon class="cls-18" points="66.52 82.05 63.69 86.95 69.35 86.95 66.52 82.05"/><line class="cls-18" x1="66.52" y1="92.54" x2="66.52" y2="86.73"/></g><g><line class="cls-17" x1="38.42" y1="80.62" x2="38.42" y2="74.81"/><circle class="cls-17" cx="38.42" cy="72.58" r="2.66"/></g><g><rect class="cls-10" x="36.36" y="82.35" width="4.11" height="4.11" transform="translate(-48.43 51.89) rotate(-45)"/><line class="cls-10" x1="38.42" y1="92.41" x2="38.42" y2="86.67"/></g><g><line class="cls-17" x1="17.95" y1="92.51" x2="17.95" y2="86.7"/><circle class="cls-17" cx="17.95" cy="84.48" r="2.66"/></g><g><polygon class="cls-18" points="58.82 69.82 55.99 74.72 61.64 74.72 58.82 69.82"/><line class="cls-18" x1="58.82" y1="80.3" x2="58.82" y2="74.49"/></g><g><polygon class="cls-18" points="31.61 82.32 28.78 87.22 34.44 87.22 31.61 82.32"/><line class="cls-18" x1="31.61" y1="92.8" x2="31.61" y2="86.99"/></g></g><line class="cls-21" x1="66.44" y1="240.86" x2="8.61" y2="240.86"/><g><g><line class="cls-21" x1="65.36" y1="224.1" x2="7.06" y2="224.1"/><polyline class="cls-27" points="75.09 226.79 63.44 226.79 63.44 221.41 75.09 221.41"/></g><line class="cls-21" x1="63.6" y1="232.48" x2="11.66" y2="232.48"/><polyline class="cls-27" points="75.09 235.17 63.6 235.17 63.6 229.79 75.09 229.79"/><polyline class="cls-27" points="75.09 243.55 63.6 243.55 63.6 238.17 75.09 238.17"/><polygon class="cls-25" points="30.71 240.86 25.9 238.17 15.15 238.17 15.15 243.55 25.9 243.55 30.71 240.86"/><polygon class="cls-25" points="33.87 232.48 29.06 229.79 18.31 229.79 18.31 235.17 29.06 235.17 33.87 232.48"/><polygon class="cls-25" points="27.51 224.1 22.7 221.41 11.95 221.41 11.95 226.79 22.7 226.79 27.51 224.1"/><polygon class="cls-26" points="56.15 224.1 51.34 221.41 46.38 221.41 46.38 226.79 51.34 226.79 56.15 224.1"/><polygon class="cls-26" points="56.15 232.48 51.34 229.79 48.27 229.79 48.27 235.17 51.34 235.17 56.15 232.48"/><polygon class="cls-26" points="54.49 240.86 49.68 238.17 46.61 238.17 46.61 243.55 49.68 243.55 54.49 240.86"/></g><text class="cls-1" transform="translate(7.06 256.18)"><tspan x="0" y="0">Conser</tspan><tspan class="cls-34" x="31.58" y="0">v</tspan><tspan x="36.57" y="0">ed uORFs</tspan></text><text class="cls-1" transform="translate(168.79 256.05)"><tspan x="0" y="0">MSAs</tspan></text><g><g class="cls-30"><path id="path82275" class="cls-5" d="M186.74,225.05h4.26v-3.62h-4.26v3.62Z"/><path id="path94101" class="cls-2" d="M169.75,225.05h4.26v-3.62h-4.26v3.62Z"/><path id="path94931" class="cls-6" d="M174,225.05h4.26v-3.62h-4.26v3.62Z"/><path id="path95641" class="cls-2" d="M178.26,225.05h4.26v-3.62h-4.26v3.62Z"/><path id="path96335" class="cls-4" d="M182.52,225.05h4.26v-3.62h-4.26v3.62Z"/><path id="path82275-9" class="cls-5" d="M208.01,225.05h4.26v-3.62h-4.26v3.62Z"/><path id="path94101-9" class="cls-3" d="M191.01,225.05h4.26v-3.62h-4.26v3.62Z"/><path id="path94931-6" class="cls-4" d="M195.27,225.05h4.26v-3.62h-4.26v3.62Z"/><path id="path95641-0" class="cls-3" d="M199.53,225.05h4.26v-3.62h-4.26v3.62Z"/><path id="path96335-1" class="cls-4" d="M203.78,225.05h4.26v-3.62h-4.26v3.62Z"/><path id="path82275-9-4" class="cls-5" d="M208.01,228.75h4.26v-3.62h-4.26v3.62Z"/><path id="path94101-9-2" class="cls-6" d="M191.01,228.75h4.26v-3.62h-4.26v3.62Z"/><path id="path94931-6-1" class="cls-4" d="M195.27,228.75h4.26v-3.62h-4.26v3.62Z"/><path id="path95641-0-0" class="cls-3" d="M199.53,228.75h4.26v-3.62h-4.26v3.62Z"/><path id="path96335-1-6" class="cls-2" d="M203.78,228.75h4.26v-3.62h-4.26v3.62Z"/><path id="path82275-7" class="cls-5" d="M186.74,228.75h4.26v-3.62h-4.26v3.62Z"/><path id="path94101-1" class="cls-2" d="M169.75,228.75h4.26v-3.62h-4.26v3.62Z"/><path id="path94931-2" class="cls-6" d="M174,228.75h4.26v-3.62h-4.26v3.62Z"/><path id="path95641-2" class="cls-5" d="M178.26,228.75h4.26v-3.62h-4.26v3.62Z"/><path id="path96335-7" class="cls-4" d="M182.52,228.75h4.26v-3.62h-4.26v3.62Z"/><path id="path82275-7-9" class="cls-5" d="M186.74,232.44h4.26v-3.62h-4.26v3.62Z"/><path id="path94101-1-3" class="cls-2" d="M169.75,232.44h4.26v-3.62h-4.26v3.62Z"/><path id="path94931-2-7" class="cls-3" d="M174,232.44h4.26v-3.62h-4.26v3.62Z"/><path id="path95641-2-1" class="cls-2" d="M178.26,232.44h4.26v-3.62h-4.26v3.62Z"/><path id="path96335-7-5" class="cls-4" d="M182.52,232.44h4.26v-3.62h-4.26v3.62Z"/><path id="path82275-9-4-3" class="cls-5" d="M208.01,232.44h4.26v-3.62h-4.26v3.62Z"/><path id="path94101-9-2-7" class="cls-6" d="M191.01,232.44h4.26v-3.62h-4.26v3.62Z"/><path id="path94931-6-1-8" class="cls-4" d="M195.27,232.44h4.26v-3.62h-4.26v3.62Z"/><path id="path95641-0-0-4" class="cls-3" d="M199.53,232.44h4.26v-3.62h-4.26v3.62Z"/><path id="path96335-1-6-7" class="cls-4" d="M203.78,232.44h4.26v-3.62h-4.26v3.62Z"/><path id="path82275-95" class="cls-5" d="M186.74,236.14h4.26v-3.62h-4.26v3.62Z"/><path id="path94101-0" class="cls-2" d="M169.75,236.14h4.26v-3.62h-4.26v3.62Z"/><path id="path94931-3" class="cls-3" d="M174,236.14h4.26v-3.62h-4.26v3.62Z"/><path id="path95641-02" class="cls-2" d="M178.26,236.14h4.26v-3.62h-4.26v3.62Z"/><path id="path96335-8" class="cls-4" d="M182.52,236.14h4.26v-3.62h-4.26v3.62Z"/><path id="path82275-9-1" class="cls-5" d="M208.01,236.14h4.26v-3.62h-4.26v3.62Z"/><path id="path94101-9-7" class="cls-3" d="M191.01,236.14h4.26v-3.62h-4.26v3.62Z"/><path id="path94931-6-8" class="cls-4" d="M195.27,236.14h4.26v-3.62h-4.26v3.62Z"/><path id="path95641-0-6" class="cls-3" d="M199.53,236.14h4.26v-3.62h-4.26v3.62Z"/><path id="path96335-1-8" class="cls-4" d="M203.78,236.14h4.26v-3.62h-4.26v3.62Z"/><path id="path82275-9-4-7" class="cls-5" d="M208.01,239.83h4.26v-3.62h-4.26v3.62Z"/><path id="path94101-9-2-4" class="cls-3" d="M191.01,239.83h4.26v-3.62h-4.26v3.62Z"/><path id="path94931-6-1-0" class="cls-4" d="M195.27,239.83h4.26v-3.62h-4.26v3.62Z"/><path id="path95641-0-0-0" class="cls-3" d="M199.53,239.83h4.26v-3.62h-4.26v3.62Z"/><path id="path96335-1-6-8" class="cls-2" d="M203.78,239.83h4.26v-3.62h-4.26v3.62Z"/><path id="path82275-7-6" class="cls-5" d="M186.74,239.83h4.26v-3.62h-4.26v3.62Z"/><path id="path94101-1-4" class="cls-2" d="M169.75,239.83h4.26v-3.62h-4.26v3.62Z"/><path id="path94931-2-6" class="cls-6" d="M174,239.83h4.26v-3.62h-4.26v3.62Z"/><path id="path95641-2-3" class="cls-5" d="M178.26,239.83h4.26v-3.62h-4.26v3.62Z"/><path id="path96335-7-7" class="cls-4" d="M182.52,239.83h4.26v-3.62h-4.26v3.62Z"/><path id="path82275-7-9-4" class="cls-5" d="M186.74,243.53h4.26v-3.62h-4.26v3.62Z"/><path id="path94101-1-3-6" class="cls-2" d="M169.75,243.53h4.26v-3.62h-4.26v3.62Z"/><path id="path94931-2-7-8" class="cls-3" d="M174,243.53h4.26v-3.62h-4.26v3.62Z"/><path id="path95641-2-1-2" class="cls-2" d="M178.26,243.53h4.26v-3.62h-4.26v3.62Z"/><path id="path96335-7-5-3" class="cls-4" d="M182.52,243.53h4.26v-3.62h-4.26v3.62Z"/><path id="path82275-9-4-3-4" class="cls-5" d="M208.01,243.53h4.26v-3.62h-4.26v3.62Z"/><path id="path94101-9-2-7-4" class="cls-3" d="M191.01,243.53h4.26v-3.62h-4.26v3.62Z"/><path id="path94931-6-1-8-3" class="cls-4" d="M195.27,243.53h4.26v-3.62h-4.26v3.62Z"/><path id="path95641-0-0-4-3" class="cls-3" d="M199.53,243.53h4.26v-3.62h-4.26v3.62Z"/><path id="path96335-1-6-7-2" class="cls-4" d="M203.78,243.53h4.26v-3.62h-4.26v3.62Z"/></g><g class="cls-30"><path id="path94101-2" class="cls-2" d="M217.7,225.07h4.26v-3.62h-4.26v3.62Z"/><path id="path94101-1-2" class="cls-2" d="M217.7,228.77h4.26v-3.62h-4.26v3.62Z"/><path id="path94101-1-3-2" class="cls-2" d="M217.7,232.46h4.26v-3.62h-4.26v3.62Z"/><path id="path94101-0-2" class="cls-2" d="M217.7,236.16h4.26v-3.62h-4.26v3.62Z"/><path id="path94101-1-4-2" class="cls-2" d="M217.7,239.85h4.26v-3.62h-4.26v3.62Z"/><path id="path94101-1-3-6-2" class="cls-2" d="M217.7,243.55h4.26v-3.62h-4.26v3.62Z"/><path id="path95641-0-2" class="cls-3" d="M222.15,225.03h4.26v-3.62h-4.26v3.62Z"/><path id="path95641-0-0-2" class="cls-3" d="M222.15,228.73h4.26v-3.62h-4.26v3.62Z"/><path id="path95641-0-0-4-2" class="cls-3" d="M222.15,232.42h4.26v-3.62h-4.26v3.62Z"/><path id="path95641-0-6-2" class="cls-3" d="M222.15,236.12h4.26v-3.62h-4.26v3.62Z"/><path id="path95641-0-0-0-2" class="cls-3" d="M222.15,239.81h4.26v-3.62h-4.26v3.62Z"/><path id="path95641-0-0-4-3-2" class="cls-3" d="M222.15,243.51h4.26v-3.62h-4.26v3.62Z"/><path id="path82275-9-2" class="cls-5" d="M226.41,225.03h4.26v-3.62h-4.26v3.62Z"/><path id="path82275-9-4-2" class="cls-3" d="M226.41,228.73h4.26v-3.62h-4.26v3.62Z"/><path id="path82275-9-4-3-2" class="cls-3" d="M226.41,232.42h4.26v-3.62h-4.26v3.62Z"/><path id="path82275-9-1-2" class="cls-3" d="M226.41,236.12h4.26v-3.62h-4.26v3.62Z"/><path id="path82275-9-4-7-2" class="cls-5" d="M226.41,239.81h4.26v-3.62h-4.26v3.62Z"/><path id="path82275-9-4-3-4-2" class="cls-5" d="M226.41,243.51h4.26v-3.62h-4.26v3.62Z"/></g></g><rect class="cls-24" x="1.32" y="214.73" width="237.25" height="47.86" rx="5.67" ry="5.67"/><g><g class="cls-30"><path id="path331476" class="cls-8" d="M150.78,243.28h-1.35v-21.82h5.5v2.45h-4.15v7.7h3.87v2.45h-3.87v9.22Z"/><path id="path331494" class="cls-7" d="M147.88,221.47h.94l-2.31,22.08h-.88l-2.3-22.08h.93l1.39,14,.02,.19,.02,.18,.02,.18,.02,.18v.18s.03,.18,.03,.18l.02,.18v.18s.03,.18,.03,.18v.18s.03,.17,.03,.17v.18s.02,.17,.02,.17l.02,.17v.17h.01v.17s.02,.17,.02,.17v.17s.02,.16,.02,.16v.16s.02,.16,.02,.16v.16s.02,.16,.02,.16v.16s.02,.16,.02,.16v.15s.02,.16,.02,.16v.15s.02,.15,.02,.15v.15h.01v-.15s.02-.15,.02-.15v-.15s.02-.16,.02-.16v-.15s.02-.16,.02-.16v-.16s.02-.16,.02-.16v-.16s.02-.16,.02-.16l.02-.16v-.16s.02-.17,.02-.17v-.17s.03-.17,.03-.17h0v-.17s.02-.17,.02-.17l.02-.18,.02-.18v-.18s.03-.18,.03-.18l.02-.18v-.18s.03-.19,.03-.19l.02-.19,.02-.19,.02-.19,.02-.19,.02-.2,.02-.19h0l1.38-13.91Z"/><path id="path331498" class="cls-8" d="M161.03,234.79v.73s-.01,.26-.01,.26v.26s-.02,.21-.02,.21v.26s-.03,.21-.03,.21l-.02,.26-.02,.21-.02,.21-.02,.26-.03,.21-.03,.21-.03,.21h0l-.03,.21-.04,.21-.04,.21-.04,.21-.04,.21-.04,.21-.04,.21-.05,.21-.05,.1-.05,.21-.05,.21-.05,.1-.05,.21-.06,.1-.06,.21h0l-.06,.1-.07,.1-.07,.21-.07,.1-.07,.1-.07,.1-.08,.1-.07,.21-.08,.1-.08,.1h-.08l-.09,.1-.09,.1-.09,.1-.09,.1h-.09l-.09,.1-.1,.1h-.09l-.1,.1h-.1l-.1,.1h-.31l-.1,.1h-2.31v-14.56h2.38l.1,.1h.29l.1,.1h.09l.09,.1h.09l.09,.1h.09l.09,.1,.09,.1h.08l.09,.1,.08,.1,.08,.1,.07,.1,.08,.1,.07,.1,.07,.1,.07,.1,.07,.1,.07,.1,.07,.1,.06,.1,.06,.21,.06,.1h0l.06,.21,.05,.1,.05,.1,.05,.21,.05,.21,.05,.1,.05,.21,.04,.21,.04,.1,.04,.21,.04,.21,.04,.21,.04,.21,.04,.21,.03,.21h0l.03,.21,.03,.21,.03,.21,.02,.21,.02,.21,.02,.26,.02,.21,.02,.21v.26s.02,.21,.02,.21v.26s.02,.21,.02,.21v.26s0,.21,0,.21v.26h0l-1,.1v-.47s0-.21,0-.21v-.21s-.01-.21-.01-.21v-.21s-.02-.21-.02-.21v-.21s-.02-.21-.02-.21l-.02-.1v-.21s-.03-.21-.03-.21l-.02-.21-.02-.1-.02-.21h0l-.02-.21-.02-.1-.02-.21-.02-.1-.03-.21-.03-.1-.03-.1-.04-.21-.03-.1-.04-.1-.04-.21-.04-.1-.04-.1-.04-.1-.04-.1h0l-.04-.1-.05-.1-.04-.1-.05-.1-.05-.1-.05-.1-.05-.1h-.05l-.05-.1-.05-.1h-.06l-.05-.1-.06-.1h-.06l-.06-.1h-.06l-.07-.1h-.06l-.07-.1h-.21l-.07-.1h-.29l-.08-.1h-1.18v11.42h1.01l.17-.1h.32l.15-.1,.15-.1,.14-.1,.13-.1,.13-.1,.12-.21,.12-.1,.11-.21,.11-.21,.1-.21,.1-.21h0l.09-.21,.08-.26,.08-.21,.07-.26,.07-.26,.05-.26,.05-.26,.04-.26,.04-.31,.03-.26,.03-.31,.02-.31,.02-.31v-.31s.01-.31,.01-.31h0l1-1.15Z"/><path id="path331564" class="cls-12" d="M156.62,225.72v3.04h-.72v-7.35h1.51s.13,.01,.13,.01h.12s.12,.03,.12,.03l.11,.02,.11,.02,.11,.03,.1,.03,.1,.04,.09,.04,.09,.05,.08,.05,.08,.06,.07,.06,.07,.07h0l.06,.07,.06,.07,.05,.08,.05,.08,.05,.09,.04,.09,.04,.1,.03,.11,.03,.11,.03,.11,.02,.12,.02,.13v.13s.02,.13,.02,.13v.14h0v.06s0,.06,0,.06v.11s0,.05,0,.05v.05s0,.05,0,.05v.05s-.02,.05-.02,.05v.05s-.02,.05-.02,.05v.05s-.02,.05-.02,.05v.04s-.02,.04-.02,.04h0v.04s-.03,.04-.03,.04l-.02,.04v.04s-.03,.04-.03,.04v.04s-.03,.04-.03,.04l-.02,.04-.02,.04-.02,.03-.02,.04-.02,.03-.02,.03-.02,.03-.02,.03h0l-.02,.03-.02,.03-.02,.03-.02,.03-.02,.03-.03,.03-.02,.03-.03,.02-.03,.03-.02,.02-.03,.02-.03,.02-.03,.02-.03,.02-.03,.02h0l-.03,.02-.03,.02-.03,.02-.03,.02-.03,.02-.03,.02-.03,.02-.03,.02h-.03s-.03,.03-.03,.03l-.03,.02h-.03s-.03,.03-.03,.03h-.03s-.03,.02-.03,.02h0l1.54,3.29h-.84l-1.36-3.04h-.88v-.79h.77s.04,0,.04,0h.04s.04,0,.04,0h.04s.04-.01,.04-.01h.04s.03-.02,.03-.02h.04s.04-.02,.04-.02h.03s.03-.02,.03-.02h.03s.03-.02,.03-.02h.03s.03-.02,.03-.02h.03s.03-.03,.03-.03h.03s.03-.03,.03-.03l.03-.02,.03-.02,.03-.02,.03-.02,.02-.02,.03-.02,.02-.02,.02-.02h0l.02-.02,.02-.03,.02-.02,.02-.03,.02-.03,.02-.03,.02-.03,.02-.03v-.03s.03-.03,.03-.03v-.03s.03-.03,.03-.03v-.03s.02-.03,.02-.03v-.03h.01v-.03s.02-.04,.02-.04v-.04s.02-.04,.02-.04v-.04s.01-.04,.01-.04v-.04s0-.04,0-.04v-.04s0-.04,0-.04v-.04s0-.04,0-.04v-.04s0-.05,0-.05v-.04h0v-.14s0-.04,0-.04v-.04s0-.04,0-.04v-.04s0-.04,0-.04v-.04s-.01-.04-.01-.04v-.04s-.02-.04-.02-.04v-.04s-.02-.03-.02-.03v-.03h0v-.03s-.02-.03-.02-.03v-.03s-.03-.03-.03-.03l-.02-.03v-.03s-.03-.03-.03-.03v-.03s-.03-.03-.03-.03l-.02-.02-.02-.03-.02-.02-.02-.02-.02-.02-.02-.02h0l-.02-.02-.02-.02-.03-.02-.02-.02-.03-.02-.03-.02-.03-.02-.03-.02h-.03s-.03-.02-.03-.02h-.03s-.03-.02-.03-.02h-.03s-.03-.02-.03-.02h-.03s-.03-.02-.03-.02h-.03s-.03-.02-.03-.02h-.03s-.04-.02-.04-.02h-.03s-.04-.02-.04-.02h-.04s-.04-.01-.04-.01h-.04s-.04,0-.04,0h-.08s-.04,0-.04,0h-.66v3.52Z"/></g><g class="cls-30"><path id="path331478" class="cls-7" d="M115.23,243.5v-22.03h1.35v19.53h4.19v2.5h-5.54Z"/><path id="path331484" class="cls-14" d="M124.68,241.89h-1.02v-18.13h-2.27v-2.29h5.55v2.29h-2.26v18.13Z"/><path id="path331490" class="cls-7" d="M133.1,241.35h-5.55v-.37l1.8-.15v-4.32l-1.8-.15v-.37h5.55v.37l-1.8,.15v4.32l1.8,.15v.37Z"/><path id="path331492" class="cls-7" d="M127.56,243.55v-1.13h1.36v1h4.19v.13h-5.55Z"/><path id="path331494-2" class="cls-7" d="M132.16,221.47h.95l-2.33,14.51h-.89l-2.32-14.51h.94l1.4,9.2,.02,.12,.02,.12,.02,.12,.02,.12v.12s.03,.12,.03,.12l.02,.12v.12s.03,.12,.03,.12v.12s.03,.11,.03,.11v.12s.02,.11,.02,.11l.02,.11v.11h.01v.11s.02,.11,.02,.11v.11s.02,.11,.02,.11v.11s.02,.11,.02,.11v.11s.02,.11,.02,.11v.1s.02,.1,.02,.1v.1s.02,.1,.02,.1v.1s.02,.1,.02,.1v.1h.01v-.1s.02-.1,.02-.1v-.1s.02-.1,.02-.1v-.1s.02-.1,.02-.1v-.1s.02-.11,.02-.11v-.11s.02-.11,.02-.11l.02-.11v-.11s.02-.11,.02-.11v-.11s.03-.11,.03-.11h0v-.11s.02-.11,.02-.11l.02-.12,.02-.12v-.12s.03-.12,.03-.12l.02-.12v-.12s.03-.12,.03-.12l.02-.12,.02-.13,.02-.12,.02-.13,.02-.13,.02-.13h0l1.4-9.14Z"/><path id="path331498-2" class="cls-8" d="M139.26,243.22h0v.02h0s0,.02,0,.02h-.01s-.01,.02-.01,.02h-.01s-.02,.02-.02,.02h-.02s-.02,.02-.02,.02h-.02s-.02,.02-.02,.02h-.03s-.03,.02-.03,.02h-.03s-.03,.02-.03,.02h-.04s-.04,.02-.04,.02h-.04s-.04,.02-.04,.02h-.04s-.04,.02-.04,.02h-.05s-.05,.01-.05,.01h-.05s-.06,.02-.06,.02h-.06s-.06,.01-.06,.01h-.06s-.06,.01-.06,.01h-.06s-.07,0-.07,0h-.07s-.07,.01-.07,.01h-.07s-.07,0-.07,0h-.08s-.07,.01-.07,.01h-.08s-.08,0-.08,0h-.17s-.09,0-.09,0h-.09s-.09,0-.09,0h-.18s-.1,0-.1,0h-.19s-.1,0-.1,0h-.1s-.1,0-.1,0h-.31s-.11,0-.11,0h-2.22v-.54h2.51s.1,0,.1,0h.29s.09,0,.09,0h.09s.09,0,.09,0h.09s.09,0,.09,0h.09s.09,0,.09,0h.17s.08,0,.08,0h.08s.07,0,.07,0h.08s.07,0,.07,0h.07s.07,0,.07,0h.07s.07,0,.07,0h.07s.06,0,.06,0h.06s.06,.01,.06,.01h.06s.06,.01,.06,.01h.06s.06,.01,.06,.01h.05s.05,.01,.05,.01h.05s.04,.02,.04,.02h.04s.04,.01,.04,.01h.04s.04,.02,.04,.02h.04s.04,.02,.04,.02h.03s.03,.02,.03,.02h.03s.03,.02,.03,.02h.02s.02,.02,.02,.02h.02s.02,.02,.02,.02h.02s.01,.02,.01,.02h.01s.01,.02,.01,.02h0s0,.02,0,.02h0v.02h-1.01s0,0,0,0h0v-.02h0s0-.02,0-.02h-.01s0-.02,0-.02h-.01s-.01-.02-.01-.02h-.02s-.01-.01-.01-.01h-.02s-.02-.02-.02-.02h-.02s-.02-.01-.02-.01h-.02s-.02-.01-.02-.01h-.02s-.02-.01-.02-.01h-.03s-.03-.01-.03-.01h-.03s-.04-.01-.04-.01h-.03s-.04,0-.04,0h-.04s-.04-.01-.04-.01h-.04s-.04,0-.04,0h-.04s-.04,0-.04,0h-.05s-.04,0-.04,0h-.05s-.05,0-.05,0h-.05s-.06,0-.06,0h-.1s-.06,0-.06,0h-.12s-.06,0-.06,0h-.12s-.06,0-.06,0h-.07s-.06,0-.06,0h-.07s-.07,0-.07,0h-.22s-.07,0-.07,0h-.3s-.08,0-.08,0h-1.11v.42h1.19s.17,0,.17,0h.31s.15,0,.15,0h.14s.14,0,.14,0h.14s.12-.01,.12-.01h.12s.11-.01,.11-.01h.11s.1-.02,.1-.02h.1s.09-.02,.09-.02h.08s.08-.02,.08-.02h.07s.07-.02,.07-.02h.06s.06-.02,.06-.02h.04s.04-.02,.04-.02h.03s.03-.02,.03-.02h.02s.02-.02,.02-.02h0s0-.02,0-.02h0l1.01-.04Z"/><path id="path331592" class="cls-7" d="M101.44,236.51l-.71-4.64h-2.43l-.72,4.64h-.84l2.39-15.05h.76l2.4,15.05h-.84l-.98-6.33-.66-4.35v-.05s-.01-.03-.01-.03v-.05s-.01-.03-.01-.03v-.06s-.01-.03-.01-.03v-.06s-.01-.03-.01-.03v-.03s-.01-.04-.01-.04v-.04h0v-.07s-.01-.04-.01-.04v-.04s-.01-.04-.01-.04v-.08s-.01-.04-.01-.04v-.04s-.01-.04-.01-.04v-.08s-.01-.04-.01-.04v-.04s-.01-.04-.01-.04h0v-.04s-.01-.04-.01-.04v-.08s-.01-.04-.01-.04v-.04s-.01-.04-.01-.04v-.05s-.01-.04-.01-.04v-.04s0-.04,0-.04v-.05s-.01-.04-.01-.04v-.05s-.01-.04-.01-.04h0v-.05s-.01-.05-.01-.05v-.09s-.01-.05-.01-.05v-.04s-.01-.05-.01-.05v-.04s0-.05,0-.05v-.04s-.01-.05-.01-.05v-.04s-.01-.04-.01-.04v-.09h0v.04s-.01,.05-.01,.05v.08s-.01,.05-.01,.05v.09s-.01,.04-.01,.04v.05s-.01,.04-.01,.04v.09s-.01,.05-.01,.05v.05s-.01,.05-.01,.05h0v.05s-.01,.05-.01,.05v.09s-.01,.05-.01,.05v.05s-.01,.04-.01,.04v.05s-.01,.04-.01,.04v.09s-.01,.05-.01,.05v.04s-.01,.04-.01,.04v.04h0v.04s-.01,.04-.01,.04v.08s-.01,.04-.01,.04v.04s-.01,.04-.01,.04v.04s-.01,.04-.01,.04v.07s-.01,.04-.01,.04v.04s-.01,.04-.01,.04v.04h0v.03s0,.03,0,.03v.03s-.01,.03-.01,.03v.03s0,.03,0,.03v.03s-.01,.03-.01,.03v.05s-.01,.03-.01,.03v.05s0,.03,0,.03v.02h0l-.65,4.35h1.9l.98,6.33Z"/><path id="path331596" class="cls-14" d="M100.02,242.96h-1.02v-5.73h-2.27v-.72h5.54v.72h-2.26v5.73Z"/><path id="path331598" class="cls-7" d="M107.51,221.47h.94l-2.33,22.03h-.89l-2.32-22.03h.94l1.4,13.97,.02,.18,.02,.18,.02,.18,.02,.18,.02,.18v.18s.03,.18,.03,.18v.18s.03,.17,.03,.17v.18s.03,.17,.03,.17v.17s.03,.17,.03,.17v.17s.02,.17,.02,.17h0v.17s.02,.17,.02,.17v.16s.02,.16,.02,.16v.16s.03,.16,.03,.16v.16s.02,.16,.02,.16v.16s.02,.15,.02,.15v.15s.02,.15,.02,.15v.15s.02,.15,.02,.15v.15h0v-.15s.02-.15,.02-.15v-.15s.02-.15,.02-.15v-.15s.02-.15,.02-.15v-.16s.02-.16,.02-.16v-.16s.02-.16,.02-.16v-.16s.02-.16,.02-.16v-.16s.02-.17,.02-.17l.02-.17h0v-.17s.03-.17,.03-.17v-.17s.03-.18,.03-.18v-.18s.03-.18,.03-.18l.02-.18,.02-.18v-.18s.03-.19,.03-.19l.02-.19,.02-.19,.02-.19,.02-.19,.02-.19h0l1.4-13.88Z"/><path id="path331556" class="cls-7" d="M136.3,241.52h1.63v.77h-.05s-.03,0-.03,0h-.03s-.03,0-.03,0h-.03s-.02,0-.02,0h-.03s-.03,0-.03,0h-.03s-.03,0-.03,0h-.05s-.02,0-.02,0h-.05s-.03,0-.03,0h-.03s-.03,0-.03,0h-.05s-.03,0-.03,0h-.03s-.03,0-.03,0h-.03s-.03,0-.03,0h-.03s-.03,0-.03,0h-.05s-.03,0-.03,0h-.03s-.03,0-.03,0h-.06s-.03,0-.03,0h-.03s-.03,0-.03,0h-.06s-.03,0-.03,0h-.09s-.03,0-.03,0h-.12s-.03,0-.03,0h-.6s-.06,0-.06,0h-.06s-.06,0-.06,0h-.06s-.06-.01-.06-.01h-.06s-.06-.01-.06-.01h-.06s-.06-.02-.06-.02h-.06s-.06-.02-.06-.02h-.06s-.05-.02-.05-.02h-.05s-.05-.02-.05-.02h-.05s-.05-.02-.05-.02h-.05s-.04-.02-.04-.02h-.05s-.04-.02-.04-.02h-.04s-.04-.02-.04-.02h-.04s-.04-.03-.04-.03h-.04s-.04-.02-.04-.02l-.03-.02h-.03s-.03-.03-.03-.03l-.03-.02-.03-.02-.03-.02-.03-.02-.03-.02-.03-.02-.03-.02-.03-.02-.02-.02-.02-.02-.02-.02h0l-.02-.02-.02-.02-.02-.02v-.02s-.03-.02-.03-.02v-.02s-.03-.02-.03-.02v-.02s-.02-.02-.02-.02v-.02s-.01-.02-.01-.02v-.02s0-.03,0-.03v-.05h0v-.07s0-.02,0-.02v-.02s.02-.02,.02-.02v-.02s.02-.02,.02-.02v-.02s.03-.02,.03-.02l.02-.02v-.02s.03-.02,.03-.02l.02-.02,.02-.02h0l.02-.02,.02-.02,.03-.02,.03-.02,.03-.02,.03-.02,.03-.02,.03-.02,.03-.02,.03-.02,.04-.02,.03-.02h.04s.04-.03,.04-.03h.04s.04-.03,.04-.03h.04s.05-.02,.05-.02h.04s.05-.02,.05-.02h.05s.05-.02,.05-.02h.05s.06-.02,.06-.02h.05s.06-.02,.06-.02h.06s.06-.02,.06-.02h.06s.06-.02,.06-.02h.06s.06-.02,.06-.02h.06s.06-.01,.06-.01h.06s.07-.02,.07-.02h.06s.07,0,.07,0h.07s.07,0,.07,0h.07s.07,0,.07,0h.08s.07,0,.07,0h.27s.05,0,.05,0h.09s.05,0,.05,0h.05s.05,0,.05,0h.05s.05,0,.05,0h.05s.04,0,.04,0h.09s.04,.01,.04,.01h.05s.04,0,.04,0h.05s.04,0,.04,0h.04s.04,.01,.04,.01h.04s.04,.01,.04,.01h.04s.04,.01,.04,.01h.04s.04,.02,.04,.02h.04s-.24,.18-.24,.18h-.02s-.01,0-.01,0h-.02s-.02,0-.02,0h-.02s-.02,0-.02,0h-.03s-.02,0-.02,0h-.02s-.02,0-.02,0h-.02s-.02,0-.02,0h-.03s-.02,0-.02,0h-.03s-.02,0-.02,0h-.04s-.02,0-.02,0h-.02s-.02,0-.02,0h-.02s-.02,0-.02,0h-.04s-.02,0-.02,0h-.02s-.02,0-.02,0h-.02s-.02,0-.02,0h-.02s-.02,0-.02,0h-.02s-.02,0-.02,0h-.04s-.02,0-.02,0h-.02s-.02,0-.02,0h-.04s-.02,0-.02,0h-.04s-.02,0-.02,0h-.08s-.02,0-.02,0h-.36s-.05,0-.05,0h-.05s-.05,0-.05,0h-.05s-.05,0-.05,0h-.05s-.05,0-.05,0h-.05s-.04,.01-.04,.01h-.04s-.04,.01-.04,.01h-.04s-.04,.02-.04,.02h-.04s-.04,.02-.04,.02h-.04s-.04,.02-.04,.02h-.03s-.04,.02-.04,.02h-.03s-.03,.02-.03,.02h-.03s-.03,.02-.03,.02h-.03s-.03,.02-.03,.02h-.03s-.03,.02-.03,.02h-.03s-.03,.02-.03,.02h-.03s-.03,.02-.03,.02h-.02s-.02,.02-.02,.02h-.02s-.02,.02-.02,.02l-.02,.02h-.02s-.02,.03-.02,.03h-.02s-.02,.03-.02,.03l-.02,.02h-.01s-.01,.03-.01,.03v.02s-.03,.02-.03,.02v.02s-.02,.02-.02,.02v.02s-.02,.02-.02,.02v.02s-.01,.02-.01,.02v.02s0,.02,0,.02v.03s0,.02,0,.02h0v.04s0,.02,0,.02v.02s0,.02,0,.02v.02s0,.02,0,.02v.02s.01,.02,.01,.02v.02s.02,.02,.02,.02v.02s.02,.02,.02,.02v.02s.02,.02,.02,.02h.02s.01,.03,.01,.03v.02s.03,.01,.03,.01l.02,.02h.02s.02,.02,.02,.02h.02s.02,.02,.02,.02h.02s.02,.02,.02,.02h.03s.03,.02,.03,.02h.03s.03,.02,.03,.02h.03s.03,.02,.03,.02h.03s.03,.02,.03,.02h.03s.03,.02,.03,.02h.03s.03,.02,.03,.02h.04s.03,.02,.03,.02h.04s.04,.02,.04,.02h.04s.04,.02,.04,.02h.04s.04,.02,.04,.02h.05s.04,.01,.04,.01h.05s.05,.01,.05,.01h.05s.05,0,.05,0h.05s.05,0,.05,0h.06s.06,0,.06,0h.06s.06,0,.06,0h.41s.02,0,.02,0h.09s.01,0,.01,0h.08s.01,0,.01,0h.06s.01,0,.01,0h.06s.01,0,.01,0h.04s.01,0,.01,0h.03s.01,0,.01,0h.04s.01,0,.01,0h.03s.01,0,.01,0h.03v-.47h-1.01v-.18Z"/><path id="path331558" class="cls-7" d="M137.93,240.76h-3.84v-.11l1.25-.05v-1.3l-1.25-.05v-.11h3.84v.11l-1.25,.05v1.3l1.25,.05v.11Z"/><path id="path331560" class="cls-14" d="M137.93,234.85h-.76l-2.52-5.34h-.03v.05s0,.05,0,.05v.09s0,.05,0,.05v.09s0,.05,0,.05v.05s0,.05,0,.05v.05s0,.05,0,.05v.05s0,.05,0,.05v.05h0v.07s0,.04,0,.04v.08s0,.04,0,.04v.08s0,.04,0,.04v.08s0,.04,0,.04v.13h0v.12s0,.04,0,.04v.15s0,.04,0,.04v.21h0v3.5h-.6v-6.45h.75l2.51,5.31h.02v-.13s0-.05,0-.05v-.09s0-.05,0-.05v-.09s0-.04,0-.04v-.05s0-.04,0-.04v-.09s0-.05,0-.05h0v-.04s0-.02,0-.02v-.11s0-.02,0-.02v-.08s0-.02,0-.02h0v-.12s0-.02,0-.02v-.1s0-.02,0-.02v-.04h0v-.06s0-.02,0-.02v-.15s0-.02,0-.02v-.04h0v-.24h0v-3.53h.61v6.44Z"/><path id="path331562" class="cls-14" d="M137.93,235.91v.1s0,.02,0,.02v.03s0,.02,0,.02v.02s0,.02,0,.02v.02s-.01,.02-.01,.02v.02s-.02,.02-.02,.02v.02s-.02,.02-.02,.02h0v.02s-.02,.02-.02,.02v.02s-.03,.02-.03,.02v.02s-.03,.02-.03,.02v.02s-.03,.02-.03,.02v.02s-.03,.02-.03,.02l-.02,.02-.02,.02-.02,.02-.02,.02-.02,.02h0l-.02,.02-.02,.02-.02,.02-.02,.02-.02,.02h-.02s-.03,.03-.03,.03l-.02,.02h-.03s-.03,.02-.03,.02l-.03,.02h-.03s-.03,.02-.03,.02h-.03s-.03,.02-.03,.02h-.03s-.03,.02-.03,.02h-.03s-.03,.02-.03,.02h-.03s-.03,.02-.03,.02h-.03s-.03,.02-.03,.02h-.03s-.03,.02-.03,.02h-.03s-.03,.02-.03,.02h-.04s-.03,.02-.03,.02h-.04s.02,.03,.02,.03l.02,.02,.02,.02,.02,.02,.02,.02,.02,.02,.02,.02,.03,.02,.02,.02h.03s.02,.03,.02,.03h.03s.03,.03,.03,.03h.03s.03,.02,.03,.02h.03s.03,.02,.03,.02l.03,.02h.03s.03,.02,.03,.02h.03s.03,.02,.03,.02h.03s.03,.02,.03,.02h.03s.03,.02,.03,.02h.03s.03,.02,.03,.02h.03s.04,.02,.04,.02h0l-.37,.2h-.04s-.04-.02-.04-.02l-.04-.02h-.04s-.04-.03-.04-.03l-.04-.02-.04-.02-.04-.02-.04-.02-.04-.02-.03-.02-.04-.02-.03-.02-.04-.02-.03-.02h0l-.03-.02-.03-.02-.03-.02-.03-.02-.03-.02-.03-.02-.03-.02-.03-.02-.03-.02-.03-.02-.03-.02-.03-.03-.02-.02-.02-.02-.02-.02h-.07s0,0,0,0h-.35s-.06,0-.06,0h-.06s-.06,0-.06,0h-.06s-.06-.01-.06-.01h-.06s-.06-.02-.06-.02h-.06s-.05-.02-.05-.02h-.05s-.05-.02-.05-.02h-.05s-.05-.02-.05-.02h-.05s-.05-.02-.05-.02h-.04s-.05-.02-.05-.02h-.04s-.04-.03-.04-.03h-.04s-.04-.03-.04-.03l-.03-.02-.04-.02-.03-.02-.04-.02-.03-.02-.03-.02h0l-.03-.02-.03-.02-.03-.02-.03-.02-.03-.02-.03-.02-.03-.02-.02-.02-.02-.02-.02-.02-.02-.03-.02-.02-.02-.03-.02-.03v-.03h-.01l-.02-.03v-.03s-.03-.03-.03-.03v-.03s-.02-.03-.02-.03v-.03s-.02-.03-.02-.03v-.03s-.01-.03-.01-.03v-.03s0-.03,0-.03v-.03s0-.03,0-.03v-.06h0v-.09s0-.03,0-.03v-.03s0-.03,0-.03v-.03s.01-.03,.01-.03v-.03s.02-.03,.02-.03v-.03s.02-.03,.02-.03v-.03s.03-.03,.03-.03l.02-.03h0v-.03s.03-.03,.03-.03l.02-.03,.02-.03,.02-.02,.02-.02,.02-.02,.03-.02,.02-.02,.03-.02,.03-.02,.03-.02,.03-.02,.03-.02,.03-.02h0l.03-.02,.03-.02,.03-.02,.04-.02,.03-.02,.04-.02h.04s.04-.03,.04-.03h.04s.04-.02,.04-.02h.05s.04-.02,.04-.02h.05s.05-.02,.05-.02h.05s.05-.02,.05-.02h.05s.05-.02,.05-.02h.06s.05-.02,.05-.02h.06s.06-.02,.06-.02h.06s.06-.01,.06-.01h.06s.06,0,.06,0h.06s.06,0,.06,0h.37s.06,0,.06,0h.06s.06,.01,.06,.01h.06s.05,.01,.05,.01h.06s.05,.02,.05,.02h.05s.05,.02,.05,.02h.05s.05,.02,.05,.02h.05s.05,.02,.05,.02h.05s.04,.02,.04,.02h.04s.04,.02,.04,.02h.04s.04,.03,.04,.03h.04s.04,.03,.04,.03l.04,.02,.03,.02,.03,.02,.03,.02,.03,.02h0l.03,.02,.03,.02,.03,.02,.03,.02,.03,.02,.03,.02,.03,.02,.02,.02,.03,.02,.02,.02,.02,.03,.02,.02,.02,.03,.02,.03,.02,.03h0l.02,.03v.03s.03,.03,.03,.03v.03s.02,.03,.02,.03v.03s.02,.03,.02,.03v.03s.02,.03,.02,.03v.03s0,.03,0,.03v.03s0,.03,0,.03v.06h-3.24v.1s0,.03,0,.03v.02s0,.02,0,.02v.03s0,.02,0,.02v.02s.01,.02,.01,.02v.02s.02,.02,.02,.02v.02s.02,.02,.02,.02h0v.02s.02,.02,.02,.02v.02s.03,.02,.03,.02v.02s.03,.02,.03,.02v.02s.03,.02,.03,.02l.02,.02,.02,.02,.02,.02,.02,.02,.02,.02h.02s.02,.03,.02,.03h.02s.03,.03,.03,.03h.02s.03,.02,.03,.02h.03s.03,.02,.03,.02h.03s.03,.02,.03,.02h.03s.03,.02,.03,.02h.03s.03,.02,.03,.02h.03s.03,.02,.03,.02h.03s.03,.02,.03,.02h.03s.03,.02,.03,.02h.04s.03,.01,.03,.01h.04s.04,.01,.04,.01h.04s.04,0,.04,0h.04s.04,0,.04,0h.09s.05,0,.05,0h.18s.04,0,.04,0h.04s.04,0,.04,0h.04s.04,0,.04,0h.04s.04-.01,.04-.01h.03s.04-.01,.04-.01h.03s.03-.02,.03-.02h.03s.03-.02,.03-.02h.03s.03-.02,.03-.02h.03s.03-.02,.03-.02h.03s.03-.02,.03-.02h.03s.03-.02,.03-.02h.03s.03-.02,.03-.02h.03s.02-.02,.02-.02l.02-.02h.02s.02-.03,.02-.03h.02s.02-.03,.02-.03l.02-.02,.02-.02,.02-.02,.02-.02,.02-.02v-.02s.03-.02,.03-.02l.02-.02v-.02s.02-.02,.02-.02v-.02s.03-.02,.03-.02h0v-.02s.02-.02,.02-.02v-.02s.02-.02,.02-.02v-.02s.01-.02,.01-.02v-.02s0-.03,0-.03v-.02s0-.02,0-.02v-.03s0-.03,0-.03v-.07h0v-.1s0-.02,0-.02v-.03s0-.02,0-.02v-.02s0-.02,0-.02v-.02s-.01-.02-.01-.02v-.02s-.02-.02-.02-.02v-.02s-.02-.02-.02-.02h0v-.02s-.03-.02-.03-.02v-.02s-.02-.02-.02-.02v-.02s-.03-.02-.03-.02v-.02s-.03-.02-.03-.02l-.02-.02-.02-.02-.02-.02-.02-.02h-.02s-.02-.03-.02-.03l-.02-.02h-.02s-.02-.02-.02-.02h-.03s-.02-.02-.02-.02h-.03s-.03-.02-.03-.02h-.03s-.03-.02-.03-.02h-.03s-.03-.02-.03-.02h-.03s-.03-.02-.03-.02h-.03s-.03-.02-.03-.02h-.03s-.03-.02-.03-.02h-.03s-.03-.02-.03-.02h-.03s-.04-.01-.04-.01h-.04s-.04-.01-.04-.01h-.04s-.04-.01-.04-.01h-.08s-.04,0-.04,0h-.32s-.04,0-.04,0h-.09s-.04,.01-.04,.01h-.04s-.04,.01-.04,.01h-.04s-.03,.01-.03,.01h-.04s-.03,.02-.03,.02h-.03s-.03,.02-.03,.02h-.03s-.03,.02-.03,.02h-.03s-.03,.02-.03,.02h-.03s-.03,.02-.03,.02h-.03s-.03,.02-.03,.02h-.03s-.03,.02-.03,.02h-.03s-.03,.02-.03,.02h-.02s-.02,.02-.02,.02h0l-.02,.02-.02,.02h-.02s-.02,.03-.02,.03l-.02,.02-.02,.02-.02,.02v.02s-.03,.02-.03,.02v.02s-.03,.02-.03,.02v.02s-.03,.02-.03,.02v.02s-.02,.02-.02,.02h0v.02s-.02,.02-.02,.02v.02s-.02,.02-.02,.02v.02s-.01,.02-.01,.02v.02s0,.02,0,.02v.02s0,.03,0,.03v.02s0,.03,0,.03v.08h0l3.24,.03Z"/><path id="path331564-2" class="cls-12" d="M134.82,225.51v2.89h-.73v-6.98h1.52s.13,.01,.13,.01h.12s.12,.03,.12,.03l.12,.02,.11,.02,.11,.03,.1,.03,.1,.04,.09,.04,.09,.05,.08,.05,.08,.05,.07,.06,.07,.06h0l.06,.07,.06,.07,.06,.08,.05,.08,.05,.09,.04,.09,.04,.09,.03,.1,.03,.11,.03,.11,.02,.11,.02,.12v.12s.02,.13,.02,.13v.13h0v.05s0,.05,0,.05v.11s0,.05,0,.05v.05s0,.05,0,.05v.05s-.02,.05-.02,.05v.05s-.02,.05-.02,.05v.05s-.02,.05-.02,.05v.04s-.02,.04-.02,.04h0v.04s-.03,.04-.03,.04l-.02,.04v.04s-.03,.04-.03,.04v.04s-.03,.04-.03,.04l-.02,.04-.02,.04-.02,.03-.02,.04-.02,.03-.02,.03-.02,.03-.02,.03h0l-.02,.03-.02,.03-.02,.03-.02,.03-.02,.03-.03,.03-.02,.03-.03,.02-.03,.03-.02,.02-.03,.02-.03,.02-.03,.02-.03,.02-.03,.02h0l-.03,.02-.03,.02-.03,.02-.03,.02-.03,.02-.03,.02-.03,.02-.03,.02h-.03s-.03,.03-.03,.03l-.03,.02h-.03s-.03,.03-.03,.03h-.03s-.03,.02-.03,.02h0l1.55,3.13h-.85l-1.37-2.89h-.89v-.75h.78s.04,0,.04,0h.04s.04,0,.04,0h.04s.04-.01,.04-.01h.04s.03-.02,.03-.02h.04s.04-.02,.04-.02h.03s.03-.02,.03-.02h.03s.03-.02,.03-.02h.03s.03-.02,.03-.02h.03s.03-.03,.03-.03h.03s.03-.03,.03-.03l.03-.02,.03-.02,.03-.02,.03-.02,.02-.02,.03-.02,.02-.02,.02-.02h0l.02-.02,.02-.03,.02-.02,.02-.03,.02-.03,.02-.03,.02-.03,.02-.03v-.03s.03-.03,.03-.03v-.03s.03-.03,.03-.03v-.03s.02-.03,.02-.03v-.03h.01v-.03s.02-.04,.02-.04v-.04s.02-.04,.02-.04v-.04s.01-.04,.01-.04v-.04s0-.04,0-.04v-.04s0-.04,0-.04v-.04s0-.04,0-.04v-.04s0-.05,0-.05v-.04h0v-.14s0-.04,0-.04v-.04s0-.04,0-.04v-.04s0-.04,0-.04v-.04s-.01-.04-.01-.04v-.04s-.02-.04-.02-.04v-.04s-.02-.03-.02-.03v-.03h0v-.03s-.02-.03-.02-.03v-.03s-.03-.03-.03-.03l-.02-.03v-.03s-.03-.03-.03-.03v-.03s-.03-.03-.03-.03l-.02-.02-.02-.03-.02-.02-.02-.02-.02-.02-.02-.02h0l-.02-.02-.02-.02-.03-.02-.02-.02-.03-.02-.03-.02-.03-.02-.03-.02h-.03s-.03-.02-.03-.02h-.03s-.03-.02-.03-.02h-.03s-.03-.02-.03-.02h-.03s-.03-.02-.03-.02h-.03s-.03-.02-.03-.02h-.03s-.04-.02-.04-.02h-.03s-.04-.02-.04-.02h-.04s-.04-.01-.04-.01h-.04s-.04,0-.04,0h-.09s-.04,0-.04,0h-.67v3.35Z"/><path id="path331566" class="cls-14" d="M137.93,238.7h0v.04s0,.01,0,.01h0s0,.02,0,.02h0s0,.02,0,.02h-.01s-.01,.02-.01,.02h-.01s-.02,.02-.02,.02h-.02s-.02,.02-.02,.02h-.02s-.02,.02-.02,.02h-.02s-.03,.02-.03,.02h-.02s-.03,.02-.03,.02h-.03s-.03,.02-.03,.02h-.03s-.03,.02-.03,.02h-.03s-.03,.02-.03,.02h-.03s-.03,.02-.03,.02h-.03s-.04,.02-.04,.02h-.04s-.04,.02-.04,.02h-.04s-.04,.02-.04,.02h-.04s-.04,.02-.04,.02h-.05s-.05,.01-.05,.01h-.05s-.05,.02-.05,.02h-.05s-.05,.01-.05,.01h-.06s-.05,.01-.05,.01h-.06s-.06,0-.06,0h-.06s-.06,0-.06,0h-.06s-.06,0-.06,0h-.06s-.06,0-.06,0h-.06s-.06,0-.06,0h-.06s-.06,0-.06,0h-.13s-.06,0-.06,0h-.33s-.06,0-.06,0h-.12s-.06,0-.06,0h-.12s-.06,0-.06,0h-.06s-.06,0-.06,0h-.12s-.06,0-.06,0h-.06s-.05,0-.05,0h-.06s-.05,0-.05,0h-.05s-.05,0-.05,0h-.05s-.05,0-.05,0h-.05s-.04-.01-.04-.01h-.04s-.04,0-.04,0h-.04s-.04-.01-.04-.01h0v-.19h.04s.02,0,.02,0h.04s.02,0,.02,0h.03s.02,0,.02,0h.02s.03,0,.03,0h.05s.03,0,.03,0h.05s.03,0,.03,0h.03s.03,0,.03,0h.03s.03,0,.03,0h.03s.03,0,.03,0h.06s.03,0,.03,0h.03s.03,0,.03,0h.06s.03,0,.03,0h.03s.03,0,.03,0h.03s.03,0,.03,0h.03s.03,0,.03,0h.03s.03,0,.03,0h.03s.03,0,.03,0h.06s.03,0,.03,0h.06s.03,0,.03,0h.06s.03,0,.03,0h.09s.03,0,.03,0h.48s.08,0,.08,0h.08s.08,0,.08,0h.07s.07,0,.07,0h.06s.06-.02,.06-.02h.06s.06-.02,.06-.02h.06s.05-.02,.05-.02h.05s.04-.02,.04-.02h.04s.03-.02,.03-.02h.04s.03-.02,.03-.02h.03s.03-.02,.03-.02h.02s.02-.02,.02-.02h.02s.01-.02,.01-.02v-.02s.02-.01,.02-.01v-.02s0-.02,0-.02h0s0-.02,0-.02h0v-.02h0s0-.02,0-.02h0s0-.02,0-.02h0s0-.02,0-.02h0s0-.02,0-.02h0s0-.02,0-.02h0s0-.01,0-.01h0s-.01-.02-.01-.02h0s-.01-.01-.01-.01h-.01s-.02-.01-.02-.01h-.01s-.02-.01-.02-.01h-.02s-.02-.02-.02-.02h-.02s-.02-.01-.02-.01h-.02s-.02-.01-.02-.01h-.02s-.02-.01-.02-.01h-.03s-.03-.01-.03-.01h-.03s-.03-.01-.03-.01h-.03s-.03,0-.03,0h-.03s-.03-.01-.03-.01h-.03s-.03-.01-.03-.01h-.03s-.03-.01-.03-.01h-.03s-.04-.01-.04-.01h-.04s-.04-.01-.04-.01h-.04s-.04-.01-.04-.01h-.04s-.05-.01-.05-.01h-.04s-.05-.01-.05-.01h-.05s-.05-.01-.05-.01h-.05s-.05-.01-.05-.01h-.06s-.05-.01-.05-.01h-.06s-.05-.01-.05-.01h-.05s-.05-.02-.05-.02h-.05s-.05-.01-.05-.01h-.05s-.04-.01-.04-.01h-.05s-.04-.02-.04-.02h-.04s-.04-.01-.04-.01h-.04s-.04-.02-.04-.02h-.04s-.04-.01-.04-.01h-.03s-.04-.02-.04-.02h-.03s-.03-.02-.03-.02h-.03s-.03-.02-.03-.02h-.03s-.03-.02-.03-.02h-.03s-.03-.02-.03-.02h-.03s-.03-.02-.03-.02h-.03s-.03-.02-.03-.02h-.03s-.02-.02-.02-.02h-.03s-.02-.02-.02-.02h-.02s-.02-.02-.02-.02h-.02s-.02-.02-.02-.02h-.02s-.02-.02-.02-.02h-.02s-.01-.02-.01-.02h-.02s-.01-.02-.01-.02h-.01s0-.02,0-.02h-.01s0-.02,0-.02h0s0-.02,0-.02h0s0-.02,0-.02h0s0-.02,0-.02h0s0-.02,0-.02h0v-.02h0s0-.02,0-.02h0v-.02h0s0-.02,0-.02h0s0-.02,0-.02h0s0-.02,0-.02h0s.01-.02,.01-.02h.01s.02-.02,.02-.02h.01s.02-.02,.02-.02h.02s.02-.02,.02-.02h.02s.02-.02,.02-.02h.02s.03-.02,.03-.02h.03s.03-.02,.03-.02h.03s.03-.02,.03-.02h.03s.03-.02,.03-.02h.03s.03-.02,.03-.02h.03s.03-.02,.03-.02h.04s.03-.02,.03-.02h.04s.03-.02,.03-.02h.04s.04-.02,.04-.02h.04s.04-.01,.04-.01h.04s.04-.01,.04-.01h.04s.05-.01,.05-.01h.04s.05,0,.05,0h.05s.05,0,.05,0h.05s.05,0,.05,0h.05s.05,0,.05,0h.05s.05,0,.05,0h.06s.05,0,.05,0h.06s.06,0,.06,0h.17s.06,0,.06,0h.14s.07,0,.07,0h.2s.06,0,.06,0h.06s.06,0,.06,0h.06s.06,0,.06,0h.12s.06,0,.06,0h.06s.06,0,.06,0h.06s.06,0,.06,0h.05s.06,0,.06,0h.05s.05,.01,.05,.01h.05s.05,0,.05,0h.05s.05,.01,.05,.01h.05s.04,.01,.04,.01h.05s.04,.01,.04,.01h0l-.3,.17h-.04s-.04-.01-.04-.01h-.04s-.04,0-.04,0h-.04s-.04,0-.04,0h-.04s-.04-.01-.04-.01h-.04s-.05,0-.05,0h-.05s-.05,0-.05,0h-.05s-.05,0-.05,0h-.05s-.05,0-.05,0h-.1s-.05,0-.05,0h-.05s-.05,0-.05,0h-.05s-.05,0-.05,0h-.05s-.05,0-.05,0h-.1s-.05,0-.05,0h-.31s-.06,0-.06,0h-.06s-.06,0-.06,0h-.06s-.06,0-.06,0h-.05s-.06,.01-.06,.01h-.05s-.05,.02-.05,.02h-.05s-.04,.02-.04,.02h-.04s-.04,.02-.04,.02h-.04s-.03,.02-.03,.02h-.03s-.03,.02-.03,.02h-.03s-.02,.02-.02,.02h-.02s-.02,.02-.02,.02h-.01s-.01,.02-.01,.02h0s0,.02,0,.02h0v.03h0v.02h0s0,.02,0,.02h0v.02h0s0,.02,0,.02h0s0,.02,0,.02h0s0,.02,0,.02h0s0,.02,0,.02h0s.01,.01,.01,.01h0s.01,.02,.01,.02h0s.01,.01,.01,.01h.01s.02,.02,.02,.02h.01s.02,.01,.02,.01h.02s.02,.01,.02,.01h.02s.02,.01,.02,.01h.02s.02,.02,.02,.02h.02s.03,0,.03,0h.02s.03,.01,.03,.01h.02s.03,.01,.03,.01h.03s.03,.01,.03,.01h.03s.03,.01,.03,.01h.03s.03,0,.03,0h.03s.03,.01,.03,.01h.03s.03,.01,.03,.01h.04s.04,0,.04,0h.03s.04,.01,.04,.01h.04s.04,.01,.04,.01h.04s.05,.01,.05,.01h.04s.04,0,.04,0h.05s.05,.01,.05,.01h.05s.05,.01,.05,.01h.06s.05,.01,.05,.01h.05s.05,.02,.05,.02h.05s.05,.01,.05,.01h.05s.05,.01,.05,.01h.05s.05,.01,.05,.01h.04s.04,.02,.04,.02h.04s.04,.01,.04,.01h.04s.04,.01,.04,.01h.04s.04,.02,.04,.02h.04s.04,.02,.04,.02h.03s.04,.01,.04,.01h.03s.03,.02,.03,.02h.03s.03,.02,.03,.02h.03s.03,.02,.03,.02h.03s.03,.02,.03,.02h.03s.03,.02,.03,.02h.03s.02,.02,.02,.02h.03s.02,.02,.02,.02h.02s.02,.02,.02,.02h.02s.02,.02,.02,.02h.02s.02,.02,.02,.02h.01s.02,.02,.02,.02h.01s.01,.02,.01,.02h.01s.01,.02,.01,.02h.01s0,.02,0,.02h0s0,.02,0,.02h0s0,.02,0,.02h0s0,.02,0,.02h0s0,.02,0,.02h0s0,.02,0,.02Z"/><path id="path331476-2" class="cls-8" d="M110.43,243.5h-1.36v-22.03h5.55v2.47h-4.19v7.77h3.91v2.47h-3.91v9.31Z"/></g></g><text class="cls-1" transform="translate(95.78 256.48)"><tspan class="cls-28" x="0" y="0">L</tspan><tspan x="4.96" y="0">ogos</tspan></text></svg>